<?xml version="1.0" encoding="utf-8" standalone="no"?>
<!DOCTYPE svg PUBLIC "-//W3C//DTD SVG 1.1//EN"
  "http://www.w3.org/Graphics/SVG/1.1/DTD/svg11.dtd">
<!-- Created with matplotlib (https://matplotlib.org/) -->
<svg height="345.6pt" version="1.1" viewBox="0 0 460.8 345.6" width="460.8pt" xmlns="http://www.w3.org/2000/svg" xmlns:xlink="http://www.w3.org/1999/xlink">
 <defs>
  <style type="text/css">
*{stroke-linecap:butt;stroke-linejoin:round;white-space:pre;}
  </style>
 </defs>
 <g id="figure_1">
  <g id="patch_1">
   <path d="M 0 345.6 
L 460.8 345.6 
L 460.8 0 
L 0 0 
z
" style="fill:#ffffff;"/>
  </g>
  <g id="axes_1">
   <g id="patch_2">
    <path d="M 57.6 307.584 
L 414.72 307.584 
L 414.72 41.472 
L 57.6 41.472 
z
" style="fill:#ffffff;"/>
   </g>
   <g id="matplotlib.axis_1">
    <g id="xtick_1">
     <g id="line2d_1">
      <defs>
       <path d="M 0 0 
L 0 3.5 
" id="ma6bc9ab567" style="stroke:#000000;stroke-width:0.8;"/>
      </defs>
      <g>
       <use style="stroke:#000000;stroke-width:0.8;" x="102.467772" xlink:href="#ma6bc9ab567" y="307.584"/>
      </g>
     </g>
     <g id="text_1">
      <!-- −20 -->
      <defs>
       <path d="M 10.59375 35.5 
L 73.1875 35.5 
L 73.1875 27.203125 
L 10.59375 27.203125 
z
" id="DejaVuSans-8722"/>
       <path d="M 19.1875 8.296875 
L 53.609375 8.296875 
L 53.609375 0 
L 7.328125 0 
L 7.328125 8.296875 
Q 12.9375 14.109375 22.625 23.890625 
Q 32.328125 33.6875 34.8125 36.53125 
Q 39.546875 41.84375 41.421875 45.53125 
Q 43.3125 49.21875 43.3125 52.78125 
Q 43.3125 58.59375 39.234375 62.25 
Q 35.15625 65.921875 28.609375 65.921875 
Q 23.96875 65.921875 18.8125 64.3125 
Q 13.671875 62.703125 7.8125 59.421875 
L 7.8125 69.390625 
Q 13.765625 71.78125 18.9375 73 
Q 24.125 74.21875 28.421875 74.21875 
Q 39.75 74.21875 46.484375 68.546875 
Q 53.21875 62.890625 53.21875 53.421875 
Q 53.21875 48.921875 51.53125 44.890625 
Q 49.859375 40.875 45.40625 35.40625 
Q 44.1875 33.984375 37.640625 27.21875 
Q 31.109375 20.453125 19.1875 8.296875 
z
" id="DejaVuSans-50"/>
       <path d="M 31.78125 66.40625 
Q 24.171875 66.40625 20.328125 58.90625 
Q 16.5 51.421875 16.5 36.375 
Q 16.5 21.390625 20.328125 13.890625 
Q 24.171875 6.390625 31.78125 6.390625 
Q 39.453125 6.390625 43.28125 13.890625 
Q 47.125 21.390625 47.125 36.375 
Q 47.125 51.421875 43.28125 58.90625 
Q 39.453125 66.40625 31.78125 66.40625 
z
M 31.78125 74.21875 
Q 44.046875 74.21875 50.515625 64.515625 
Q 56.984375 54.828125 56.984375 36.375 
Q 56.984375 17.96875 50.515625 8.265625 
Q 44.046875 -1.421875 31.78125 -1.421875 
Q 19.53125 -1.421875 13.0625 8.265625 
Q 6.59375 17.96875 6.59375 36.375 
Q 6.59375 54.828125 13.0625 64.515625 
Q 19.53125 74.21875 31.78125 74.21875 
z
" id="DejaVuSans-48"/>
      </defs>
      <g transform="translate(91.915428 322.182437)scale(0.1 -0.1)">
       <use xlink:href="#DejaVuSans-8722"/>
       <use x="83.789062" xlink:href="#DejaVuSans-50"/>
       <use x="147.412109" xlink:href="#DejaVuSans-48"/>
      </g>
     </g>
    </g>
    <g id="xtick_2">
     <g id="line2d_2">
      <g>
       <use style="stroke:#000000;stroke-width:0.8;" x="176.979314" xlink:href="#ma6bc9ab567" y="307.584"/>
      </g>
     </g>
     <g id="text_2">
      <!-- −10 -->
      <defs>
       <path d="M 12.40625 8.296875 
L 28.515625 8.296875 
L 28.515625 63.921875 
L 10.984375 60.40625 
L 10.984375 69.390625 
L 28.421875 72.90625 
L 38.28125 72.90625 
L 38.28125 8.296875 
L 54.390625 8.296875 
L 54.390625 0 
L 12.40625 0 
z
" id="DejaVuSans-49"/>
      </defs>
      <g transform="translate(166.42697 322.182437)scale(0.1 -0.1)">
       <use xlink:href="#DejaVuSans-8722"/>
       <use x="83.789062" xlink:href="#DejaVuSans-49"/>
       <use x="147.412109" xlink:href="#DejaVuSans-48"/>
      </g>
     </g>
    </g>
    <g id="xtick_3">
     <g id="line2d_3">
      <g>
       <use style="stroke:#000000;stroke-width:0.8;" x="251.490855" xlink:href="#ma6bc9ab567" y="307.584"/>
      </g>
     </g>
     <g id="text_3">
      <!-- 0 -->
      <g transform="translate(248.309605 322.182437)scale(0.1 -0.1)">
       <use xlink:href="#DejaVuSans-48"/>
      </g>
     </g>
    </g>
    <g id="xtick_4">
     <g id="line2d_4">
      <g>
       <use style="stroke:#000000;stroke-width:0.8;" x="326.002397" xlink:href="#ma6bc9ab567" y="307.584"/>
      </g>
     </g>
     <g id="text_4">
      <!-- 10 -->
      <g transform="translate(319.639897 322.182437)scale(0.1 -0.1)">
       <use xlink:href="#DejaVuSans-49"/>
       <use x="63.623047" xlink:href="#DejaVuSans-48"/>
      </g>
     </g>
    </g>
    <g id="xtick_5">
     <g id="line2d_5">
      <g>
       <use style="stroke:#000000;stroke-width:0.8;" x="400.513939" xlink:href="#ma6bc9ab567" y="307.584"/>
      </g>
     </g>
     <g id="text_5">
      <!-- 20 -->
      <g transform="translate(394.151439 322.182437)scale(0.1 -0.1)">
       <use xlink:href="#DejaVuSans-50"/>
       <use x="63.623047" xlink:href="#DejaVuSans-48"/>
      </g>
     </g>
    </g>
   </g>
   <g id="matplotlib.axis_2">
    <g id="ytick_1">
     <g id="line2d_6">
      <defs>
       <path d="M 0 0 
L -3.5 0 
" id="m36b5229152" style="stroke:#000000;stroke-width:0.8;"/>
      </defs>
      <g>
       <use style="stroke:#000000;stroke-width:0.8;" x="57.6" xlink:href="#m36b5229152" y="303.960702"/>
      </g>
     </g>
     <g id="text_6">
      <!-- −20 -->
      <g transform="translate(29.495313 307.759921)scale(0.1 -0.1)">
       <use xlink:href="#DejaVuSans-8722"/>
       <use x="83.789062" xlink:href="#DejaVuSans-50"/>
       <use x="147.412109" xlink:href="#DejaVuSans-48"/>
      </g>
     </g>
    </g>
    <g id="ytick_2">
     <g id="line2d_7">
      <g>
       <use style="stroke:#000000;stroke-width:0.8;" x="57.6" xlink:href="#m36b5229152" y="249.712629"/>
      </g>
     </g>
     <g id="text_7">
      <!-- −10 -->
      <g transform="translate(29.495313 253.511848)scale(0.1 -0.1)">
       <use xlink:href="#DejaVuSans-8722"/>
       <use x="83.789062" xlink:href="#DejaVuSans-49"/>
       <use x="147.412109" xlink:href="#DejaVuSans-48"/>
      </g>
     </g>
    </g>
    <g id="ytick_3">
     <g id="line2d_8">
      <g>
       <use style="stroke:#000000;stroke-width:0.8;" x="57.6" xlink:href="#m36b5229152" y="195.464557"/>
      </g>
     </g>
     <g id="text_8">
      <!-- 0 -->
      <g transform="translate(44.2375 199.263776)scale(0.1 -0.1)">
       <use xlink:href="#DejaVuSans-48"/>
      </g>
     </g>
    </g>
    <g id="ytick_4">
     <g id="line2d_9">
      <g>
       <use style="stroke:#000000;stroke-width:0.8;" x="57.6" xlink:href="#m36b5229152" y="141.216484"/>
      </g>
     </g>
     <g id="text_9">
      <!-- 10 -->
      <g transform="translate(37.875 145.015703)scale(0.1 -0.1)">
       <use xlink:href="#DejaVuSans-49"/>
       <use x="63.623047" xlink:href="#DejaVuSans-48"/>
      </g>
     </g>
    </g>
    <g id="ytick_5">
     <g id="line2d_10">
      <g>
       <use style="stroke:#000000;stroke-width:0.8;" x="57.6" xlink:href="#m36b5229152" y="86.968412"/>
      </g>
     </g>
     <g id="text_10">
      <!-- 20 -->
      <g transform="translate(37.875 90.767631)scale(0.1 -0.1)">
       <use xlink:href="#DejaVuSans-50"/>
       <use x="63.623047" xlink:href="#DejaVuSans-48"/>
      </g>
     </g>
    </g>
   </g>
   <g id="line2d_11">
    <defs>
     <path d="M 0 5 
C 1.326016 5 2.597899 4.473168 3.535534 3.535534 
C 4.473168 2.597899 5 1.326016 5 0 
C 5 -1.326016 4.473168 -2.597899 3.535534 -3.535534 
C 2.597899 -4.473168 1.326016 -5 0 -5 
C -1.326016 -5 -2.597899 -4.473168 -3.535534 -3.535534 
C -4.473168 -2.597899 -5 -1.326016 -5 0 
C -5 1.326016 -4.473168 2.597899 -3.535534 3.535534 
C -2.597899 4.473168 -1.326016 5 0 5 
z
" id="m0e441fc21b" style="stroke:#000000;"/>
    </defs>
    <g clip-path="url(#p63a4e8e587)">
     <use style="fill:#9e0142;stroke:#000000;" x="85.273986" xlink:href="#m0e441fc21b" y="180.093021"/>
     <use style="fill:#9e0142;stroke:#000000;" x="73.832727" xlink:href="#m0e441fc21b" y="182.905081"/>
     <use style="fill:#9e0142;stroke:#000000;" x="74.418657" xlink:href="#m0e441fc21b" y="182.580587"/>
     <use style="fill:#9e0142;stroke:#000000;" x="79.356727" xlink:href="#m0e441fc21b" y="181.181713"/>
    </g>
   </g>
   <g id="line2d_12">
    <defs>
     <path d="M 0 5 
C 1.326016 5 2.597899 4.473168 3.535534 3.535534 
C 4.473168 2.597899 5 1.326016 5 0 
C 5 -1.326016 4.473168 -2.597899 3.535534 -3.535534 
C 2.597899 -4.473168 1.326016 -5 0 -5 
C -1.326016 -5 -2.597899 -4.473168 -3.535534 -3.535534 
C -4.473168 -2.597899 -5 -1.326016 -5 0 
C -5 1.326016 -4.473168 2.597899 -3.535534 3.535534 
C -2.597899 4.473168 -1.326016 5 0 5 
z
" id="m4c4f774e6a" style="stroke:#000000;"/>
    </defs>
    <g clip-path="url(#p63a4e8e587)">
     <use style="fill:#b11747;stroke:#000000;" x="183.621055" xlink:href="#m4c4f774e6a" y="201.211208"/>
     <use style="fill:#b11747;stroke:#000000;" x="178.175079" xlink:href="#m4c4f774e6a" y="212.171007"/>
     <use style="fill:#b11747;stroke:#000000;" x="198.161626" xlink:href="#m4c4f774e6a" y="181.741472"/>
     <use style="fill:#b11747;stroke:#000000;" x="197.978257" xlink:href="#m4c4f774e6a" y="190.396533"/>
     <use style="fill:#b11747;stroke:#000000;" x="146.269282" xlink:href="#m4c4f774e6a" y="184.300527"/>
     <use style="fill:#b11747;stroke:#000000;" x="197.646408" xlink:href="#m4c4f774e6a" y="175.788739"/>
     <use style="fill:#b11747;stroke:#000000;" x="232.593522" xlink:href="#m4c4f774e6a" y="186.489775"/>
     <use style="fill:#b11747;stroke:#000000;" x="184.17623" xlink:href="#m4c4f774e6a" y="215.419331"/>
     <use style="fill:#b11747;stroke:#000000;" x="226.999262" xlink:href="#m4c4f774e6a" y="174.463863"/>
     <use style="fill:#b11747;stroke:#000000;" x="212.55859" xlink:href="#m4c4f774e6a" y="193.382966"/>
     <use style="fill:#b11747;stroke:#000000;" x="135.190443" xlink:href="#m4c4f774e6a" y="174.209267"/>
     <use style="fill:#b11747;stroke:#000000;" x="215.521142" xlink:href="#m4c4f774e6a" y="200.029312"/>
     <use style="fill:#b11747;stroke:#000000;" x="202.398983" xlink:href="#m4c4f774e6a" y="186.960621"/>
     <use style="fill:#b11747;stroke:#000000;" x="192.877421" xlink:href="#m4c4f774e6a" y="206.195919"/>
     <use style="fill:#b11747;stroke:#000000;" x="175.531159" xlink:href="#m4c4f774e6a" y="197.745547"/>
     <use style="fill:#b11747;stroke:#000000;" x="223.36885" xlink:href="#m4c4f774e6a" y="188.39326"/>
     <use style="fill:#b11747;stroke:#000000;" x="272.965572" xlink:href="#m4c4f774e6a" y="265.548406"/>
     <use style="fill:#b11747;stroke:#000000;" x="139.203165" xlink:href="#m4c4f774e6a" y="183.819332"/>
     <use style="fill:#b11747;stroke:#000000;" x="209.302842" xlink:href="#m4c4f774e6a" y="180.13675"/>
     <use style="fill:#b11747;stroke:#000000;" x="236.154122" xlink:href="#m4c4f774e6a" y="173.276662"/>
     <use style="fill:#b11747;stroke:#000000;" x="224.192983" xlink:href="#m4c4f774e6a" y="202.544642"/>
     <use style="fill:#b11747;stroke:#000000;" x="232.518986" xlink:href="#m4c4f774e6a" y="186.491428"/>
     <use style="fill:#b11747;stroke:#000000;" x="209.302842" xlink:href="#m4c4f774e6a" y="180.13675"/>
     <use style="fill:#b11747;stroke:#000000;" x="202.542801" xlink:href="#m4c4f774e6a" y="200.227826"/>
     <use style="fill:#b11747;stroke:#000000;" x="230.474551" xlink:href="#m4c4f774e6a" y="174.980939"/>
     <use style="fill:#b11747;stroke:#000000;" x="212.55859" xlink:href="#m4c4f774e6a" y="193.382966"/>
     <use style="fill:#b11747;stroke:#000000;" x="229.999424" xlink:href="#m4c4f774e6a" y="193.407253"/>
     <use style="fill:#b11747;stroke:#000000;" x="202.542804" xlink:href="#m4c4f774e6a" y="200.227826"/>
     <use style="fill:#b11747;stroke:#000000;" x="208.521231" xlink:href="#m4c4f774e6a" y="187.915413"/>
     <use style="fill:#b11747;stroke:#000000;" x="131.327706" xlink:href="#m4c4f774e6a" y="187.189618"/>
     <use style="fill:#b11747;stroke:#000000;" x="223.290363" xlink:href="#m4c4f774e6a" y="184.997571"/>
    </g>
   </g>
   <g id="line2d_13">
    <defs>
     <path d="M 0 5 
C 1.326016 5 2.597899 4.473168 3.535534 3.535534 
C 4.473168 2.597899 5 1.326016 5 0 
C 5 -1.326016 4.473168 -2.597899 3.535534 -3.535534 
C 2.597899 -4.473168 1.326016 -5 0 -5 
C -1.326016 -5 -2.597899 -4.473168 -3.535534 -3.535534 
C -4.473168 -2.597899 -5 -1.326016 -5 0 
C -5 1.326016 -4.473168 2.597899 -3.535534 3.535534 
C -2.597899 4.473168 -1.326016 5 0 5 
z
" id="m7f939623ef" style="stroke:#000000;"/>
    </defs>
    <g clip-path="url(#p63a4e8e587)">
     <use style="fill:#c52c4b;stroke:#000000;" x="278.762796" xlink:href="#m7f939623ef" y="81.080825"/>
     <use style="fill:#c52c4b;stroke:#000000;" x="251.520774" xlink:href="#m7f939623ef" y="67.539201"/>
     <use style="fill:#c52c4b;stroke:#000000;" x="261.323112" xlink:href="#m7f939623ef" y="75.275424"/>
     <use style="fill:#c52c4b;stroke:#000000;" x="269.244916" xlink:href="#m7f939623ef" y="69.64736"/>
     <use style="fill:#c52c4b;stroke:#000000;" x="271.365964" xlink:href="#m7f939623ef" y="78.674413"/>
     <use style="fill:#c52c4b;stroke:#000000;" x="274.751751" xlink:href="#m7f939623ef" y="81.102885"/>
     <use style="fill:#c52c4b;stroke:#000000;" x="256.811046" xlink:href="#m7f939623ef" y="56.675121"/>
     <use style="fill:#c52c4b;stroke:#000000;" x="256.286432" xlink:href="#m7f939623ef" y="53.568"/>
     <use style="fill:#c52c4b;stroke:#000000;" x="256.773481" xlink:href="#m7f939623ef" y="71.814436"/>
     <use style="fill:#c52c4b;stroke:#000000;" x="250.194503" xlink:href="#m7f939623ef" y="73.546327"/>
     <use style="fill:#c52c4b;stroke:#000000;" x="260.235913" xlink:href="#m7f939623ef" y="56.760484"/>
     <use style="fill:#c52c4b;stroke:#000000;" x="246.625942" xlink:href="#m7f939623ef" y="83.893843"/>
     <use style="fill:#c52c4b;stroke:#000000;" x="268.731495" xlink:href="#m7f939623ef" y="58.201417"/>
     <use style="fill:#c52c4b;stroke:#000000;" x="277.097444" xlink:href="#m7f939623ef" y="72.669687"/>
     <use style="fill:#c52c4b;stroke:#000000;" x="261.330097" xlink:href="#m7f939623ef" y="75.259396"/>
    </g>
   </g>
   <g id="line2d_14">
    <defs>
     <path d="M 0 5 
C 1.326016 5 2.597899 4.473168 3.535534 3.535534 
C 4.473168 2.597899 5 1.326016 5 0 
C 5 -1.326016 4.473168 -2.597899 3.535534 -3.535534 
C 2.597899 -4.473168 1.326016 -5 0 -5 
C -1.326016 -5 -2.597899 -4.473168 -3.535534 -3.535534 
C -4.473168 -2.597899 -5 -1.326016 -5 0 
C -5 1.326016 -4.473168 2.597899 -3.535534 3.535534 
C -2.597899 4.473168 -1.326016 5 0 5 
z
" id="m5fbfe5820b" style="stroke:#000000;"/>
    </defs>
    <g clip-path="url(#p63a4e8e587)">
     <use style="fill:#d8434e;stroke:#000000;" x="269.338231" xlink:href="#m5fbfe5820b" y="168.124636"/>
     <use style="fill:#d8434e;stroke:#000000;" x="184.526143" xlink:href="#m5fbfe5820b" y="259.370554"/>
     <use style="fill:#d8434e;stroke:#000000;" x="289.358906" xlink:href="#m5fbfe5820b" y="190.151739"/>
     <use style="fill:#d8434e;stroke:#000000;" x="221.566816" xlink:href="#m5fbfe5820b" y="153.517511"/>
     <use style="fill:#d8434e;stroke:#000000;" x="280.99694" xlink:href="#m5fbfe5820b" y="172.780997"/>
     <use style="fill:#d8434e;stroke:#000000;" x="269.339388" xlink:href="#m5fbfe5820b" y="168.117607"/>
     <use style="fill:#d8434e;stroke:#000000;" x="121.712626" xlink:href="#m5fbfe5820b" y="127.74656"/>
     <use style="fill:#d8434e;stroke:#000000;" x="190.507959" xlink:href="#m5fbfe5820b" y="287.307425"/>
     <use style="fill:#d8434e;stroke:#000000;" x="181.670607" xlink:href="#m5fbfe5820b" y="253.477054"/>
     <use style="fill:#d8434e;stroke:#000000;" x="312.910798" xlink:href="#m5fbfe5820b" y="220.001114"/>
     <use style="fill:#d8434e;stroke:#000000;" x="394.671947" xlink:href="#m5fbfe5820b" y="204.514746"/>
     <use style="fill:#d8434e;stroke:#000000;" x="325.803721" xlink:href="#m5fbfe5820b" y="167.170725"/>
     <use style="fill:#d8434e;stroke:#000000;" x="330.777996" xlink:href="#m5fbfe5820b" y="165.496565"/>
     <use style="fill:#d8434e;stroke:#000000;" x="223.00207" xlink:href="#m5fbfe5820b" y="253.705572"/>
     <use style="fill:#d8434e;stroke:#000000;" x="192.508078" xlink:href="#m5fbfe5820b" y="264.564623"/>
     <use style="fill:#d8434e;stroke:#000000;" x="212.040031" xlink:href="#m5fbfe5820b" y="251.711199"/>
     <use style="fill:#d8434e;stroke:#000000;" x="208.845086" xlink:href="#m5fbfe5820b" y="145.586141"/>
     <use style="fill:#d8434e;stroke:#000000;" x="299.130896" xlink:href="#m5fbfe5820b" y="230.435573"/>
     <use style="fill:#d8434e;stroke:#000000;" x="260.879948" xlink:href="#m5fbfe5820b" y="291.941163"/>
     <use style="fill:#d8434e;stroke:#000000;" x="249.176941" xlink:href="#m5fbfe5820b" y="221.879782"/>
     <use style="fill:#d8434e;stroke:#000000;" x="205.654521" xlink:href="#m5fbfe5820b" y="262.46275"/>
     <use style="fill:#d8434e;stroke:#000000;" x="289.215106" xlink:href="#m5fbfe5820b" y="186.591222"/>
     <use style="fill:#d8434e;stroke:#000000;" x="221.565451" xlink:href="#m5fbfe5820b" y="153.517785"/>
     <use style="fill:#d8434e;stroke:#000000;" x="266.975159" xlink:href="#m5fbfe5820b" y="268.97112"/>
     <use style="fill:#d8434e;stroke:#000000;" x="277.687252" xlink:href="#m5fbfe5820b" y="182.10941"/>
     <use style="fill:#d8434e;stroke:#000000;" x="117.693771" xlink:href="#m5fbfe5820b" y="133.180881"/>
     <use style="fill:#d8434e;stroke:#000000;" x="296.554213" xlink:href="#m5fbfe5820b" y="187.546653"/>
     <use style="fill:#d8434e;stroke:#000000;" x="212.492064" xlink:href="#m5fbfe5820b" y="267.706986"/>
     <use style="fill:#d8434e;stroke:#000000;" x="258.957603" xlink:href="#m5fbfe5820b" y="208.373421"/>
     <use style="fill:#d8434e;stroke:#000000;" x="202.029053" xlink:href="#m5fbfe5820b" y="273.312607"/>
     <use style="fill:#d8434e;stroke:#000000;" x="286.761917" xlink:href="#m5fbfe5820b" y="182.260683"/>
     <use style="fill:#d8434e;stroke:#000000;" x="289.735902" xlink:href="#m5fbfe5820b" y="246.686143"/>
     <use style="fill:#d8434e;stroke:#000000;" x="372.549386" xlink:href="#m5fbfe5820b" y="181.737746"/>
     <use style="fill:#d8434e;stroke:#000000;" x="190.6914" xlink:href="#m5fbfe5820b" y="272.242572"/>
     <use style="fill:#d8434e;stroke:#000000;" x="173.456122" xlink:href="#m5fbfe5820b" y="118.806882"/>
     <use style="fill:#d8434e;stroke:#000000;" x="325.01704" xlink:href="#m5fbfe5820b" y="159.444712"/>
     <use style="fill:#d8434e;stroke:#000000;" x="311.172833" xlink:href="#m5fbfe5820b" y="225.917417"/>
     <use style="fill:#d8434e;stroke:#000000;" x="299.686352" xlink:href="#m5fbfe5820b" y="188.28315"/>
     <use style="fill:#d8434e;stroke:#000000;" x="309.045716" xlink:href="#m5fbfe5820b" y="198.54134"/>
     <use style="fill:#d8434e;stroke:#000000;" x="176.198374" xlink:href="#m5fbfe5820b" y="120.203618"/>
     <use style="fill:#d8434e;stroke:#000000;" x="240.74497" xlink:href="#m5fbfe5820b" y="220.345382"/>
     <use style="fill:#d8434e;stroke:#000000;" x="181.93264" xlink:href="#m5fbfe5820b" y="287.439339"/>
     <use style="fill:#d8434e;stroke:#000000;" x="200.622308" xlink:href="#m5fbfe5820b" y="287.50407"/>
     <use style="fill:#d8434e;stroke:#000000;" x="298.479935" xlink:href="#m5fbfe5820b" y="235.912116"/>
     <use style="fill:#d8434e;stroke:#000000;" x="294.901981" xlink:href="#m5fbfe5820b" y="224.77548"/>
     <use style="fill:#d8434e;stroke:#000000;" x="294.677674" xlink:href="#m5fbfe5820b" y="200.274507"/>
     <use style="fill:#d8434e;stroke:#000000;" x="175.597933" xlink:href="#m5fbfe5820b" y="116.543021"/>
     <use style="fill:#d8434e;stroke:#000000;" x="198.668353" xlink:href="#m5fbfe5820b" y="255.04496"/>
     <use style="fill:#d8434e;stroke:#000000;" x="293.350132" xlink:href="#m5fbfe5820b" y="168.281206"/>
     <use style="fill:#d8434e;stroke:#000000;" x="286.762141" xlink:href="#m5fbfe5820b" y="182.259866"/>
     <use style="fill:#d8434e;stroke:#000000;" x="312.736005" xlink:href="#m5fbfe5820b" y="180.977822"/>
     <use style="fill:#d8434e;stroke:#000000;" x="314.227016" xlink:href="#m5fbfe5820b" y="293.965646"/>
     <use style="fill:#d8434e;stroke:#000000;" x="178.328596" xlink:href="#m5fbfe5820b" y="118.081201"/>
     <use style="fill:#d8434e;stroke:#000000;" x="262.176091" xlink:href="#m5fbfe5820b" y="269.245802"/>
     <use style="fill:#d8434e;stroke:#000000;" x="190.508236" xlink:href="#m5fbfe5820b" y="287.306038"/>
     <use style="fill:#d8434e;stroke:#000000;" x="309.875566" xlink:href="#m5fbfe5820b" y="291.093112"/>
     <use style="fill:#d8434e;stroke:#000000;" x="192.20634" xlink:href="#m5fbfe5820b" y="294.027149"/>
     <use style="fill:#d8434e;stroke:#000000;" x="110.53048" xlink:href="#m5fbfe5820b" y="130.662701"/>
     <use style="fill:#d8434e;stroke:#000000;" x="320.030345" xlink:href="#m5fbfe5820b" y="294.410319"/>
     <use style="fill:#d8434e;stroke:#000000;" x="394.665893" xlink:href="#m5fbfe5820b" y="204.54322"/>
     <use style="fill:#d8434e;stroke:#000000;" x="121.701996" xlink:href="#m5fbfe5820b" y="127.744889"/>
     <use style="fill:#d8434e;stroke:#000000;" x="99.82921" xlink:href="#m5fbfe5820b" y="176.994744"/>
     <use style="fill:#d8434e;stroke:#000000;" x="99.824491" xlink:href="#m5fbfe5820b" y="176.997243"/>
     <use style="fill:#d8434e;stroke:#000000;" x="188.151064" xlink:href="#m5fbfe5820b" y="269.675042"/>
     <use style="fill:#d8434e;stroke:#000000;" x="192.489154" xlink:href="#m5fbfe5820b" y="264.573993"/>
     <use style="fill:#d8434e;stroke:#000000;" x="235.626796" xlink:href="#m5fbfe5820b" y="146.934179"/>
     <use style="fill:#d8434e;stroke:#000000;" x="175.045998" xlink:href="#m5fbfe5820b" y="272.892566"/>
     <use style="fill:#d8434e;stroke:#000000;" x="299.157781" xlink:href="#m5fbfe5820b" y="230.472861"/>
     <use style="fill:#d8434e;stroke:#000000;" x="283.798584" xlink:href="#m5fbfe5820b" y="169.679839"/>
     <use style="fill:#d8434e;stroke:#000000;" x="194.73002" xlink:href="#m5fbfe5820b" y="260.807126"/>
     <use style="fill:#d8434e;stroke:#000000;" x="215.783029" xlink:href="#m5fbfe5820b" y="144.720558"/>
     <use style="fill:#d8434e;stroke:#000000;" x="327.507578" xlink:href="#m5fbfe5820b" y="165.22328"/>
     <use style="fill:#d8434e;stroke:#000000;" x="263.237107" xlink:href="#m5fbfe5820b" y="286.544996"/>
     <use style="fill:#d8434e;stroke:#000000;" x="114.458549" xlink:href="#m5fbfe5820b" y="126.065364"/>
     <use style="fill:#d8434e;stroke:#000000;" x="350.949398" xlink:href="#m5fbfe5820b" y="146.038874"/>
     <use style="fill:#d8434e;stroke:#000000;" x="181.023871" xlink:href="#m5fbfe5820b" y="276.86632"/>
     <use style="fill:#d8434e;stroke:#000000;" x="311.845733" xlink:href="#m5fbfe5820b" y="291.339226"/>
     <use style="fill:#d8434e;stroke:#000000;" x="181.921107" xlink:href="#m5fbfe5820b" y="287.518473"/>
     <use style="fill:#d8434e;stroke:#000000;" x="282.887992" xlink:href="#m5fbfe5820b" y="236.713348"/>
     <use style="fill:#d8434e;stroke:#000000;" x="295.31433" xlink:href="#m5fbfe5820b" y="173.859193"/>
     <use style="fill:#d8434e;stroke:#000000;" x="201.208085" xlink:href="#m5fbfe5820b" y="148.720831"/>
     <use style="fill:#d8434e;stroke:#000000;" x="240.745221" xlink:href="#m5fbfe5820b" y="220.347475"/>
     <use style="fill:#d8434e;stroke:#000000;" x="209.446727" xlink:href="#m5fbfe5820b" y="249.353951"/>
     <use style="fill:#d8434e;stroke:#000000;" x="99.490567" xlink:href="#m5fbfe5820b" y="181.01984"/>
     <use style="fill:#d8434e;stroke:#000000;" x="296.361818" xlink:href="#m5fbfe5820b" y="180.599241"/>
     <use style="fill:#d8434e;stroke:#000000;" x="293.91968" xlink:href="#m5fbfe5820b" y="215.331925"/>
     <use style="fill:#d8434e;stroke:#000000;" x="269.695061" xlink:href="#m5fbfe5820b" y="215.896385"/>
     <use style="fill:#d8434e;stroke:#000000;" x="263.475071" xlink:href="#m5fbfe5820b" y="286.276264"/>
     <use style="fill:#d8434e;stroke:#000000;" x="280.342758" xlink:href="#m5fbfe5820b" y="188.37392"/>
     <use style="fill:#d8434e;stroke:#000000;" x="316.506996" xlink:href="#m5fbfe5820b" y="227.031499"/>
    </g>
   </g>
   <g id="line2d_15">
    <defs>
     <path d="M 0 5 
C 1.326016 5 2.597899 4.473168 3.535534 3.535534 
C 4.473168 2.597899 5 1.326016 5 0 
C 5 -1.326016 4.473168 -2.597899 3.535534 -3.535534 
C 2.597899 -4.473168 1.326016 -5 0 -5 
C -1.326016 -5 -2.597899 -4.473168 -3.535534 -3.535534 
C -4.473168 -2.597899 -5 -1.326016 -5 0 
C -5 1.326016 -4.473168 2.597899 -3.535534 3.535534 
C -2.597899 4.473168 -1.326016 5 0 5 
z
" id="m6bc655d4d6" style="stroke:#000000;"/>
    </defs>
    <g clip-path="url(#p63a4e8e587)">
     <use style="fill:#e3534a;stroke:#000000;" x="128.163259" xlink:href="#m6bc655d4d6" y="219.496411"/>
     <use style="fill:#e3534a;stroke:#000000;" x="125.716488" xlink:href="#m6bc655d4d6" y="120.409099"/>
     <use style="fill:#e3534a;stroke:#000000;" x="158.095421" xlink:href="#m6bc655d4d6" y="207.645529"/>
     <use style="fill:#e3534a;stroke:#000000;" x="159.298761" xlink:href="#m6bc655d4d6" y="214.802726"/>
     <use style="fill:#e3534a;stroke:#000000;" x="158.664702" xlink:href="#m6bc655d4d6" y="227.310992"/>
     <use style="fill:#e3534a;stroke:#000000;" x="176.45146" xlink:href="#m6bc655d4d6" y="230.166417"/>
     <use style="fill:#e3534a;stroke:#000000;" x="124.189314" xlink:href="#m6bc655d4d6" y="226.953361"/>
     <use style="fill:#e3534a;stroke:#000000;" x="164.891255" xlink:href="#m6bc655d4d6" y="113.605782"/>
     <use style="fill:#e3534a;stroke:#000000;" x="252.940696" xlink:href="#m6bc655d4d6" y="272.301436"/>
     <use style="fill:#e3534a;stroke:#000000;" x="147.558647" xlink:href="#m6bc655d4d6" y="231.843257"/>
     <use style="fill:#e3534a;stroke:#000000;" x="152.412788" xlink:href="#m6bc655d4d6" y="224.206212"/>
     <use style="fill:#e3534a;stroke:#000000;" x="145.081902" xlink:href="#m6bc655d4d6" y="210.5795"/>
     <use style="fill:#e3534a;stroke:#000000;" x="135.145092" xlink:href="#m6bc655d4d6" y="229.224995"/>
     <use style="fill:#e3534a;stroke:#000000;" x="154.395454" xlink:href="#m6bc655d4d6" y="225.313361"/>
     <use style="fill:#e3534a;stroke:#000000;" x="160.661353" xlink:href="#m6bc655d4d6" y="231.893287"/>
     <use style="fill:#e3534a;stroke:#000000;" x="129.868125" xlink:href="#m6bc655d4d6" y="209.232624"/>
     <use style="fill:#e3534a;stroke:#000000;" x="136.290355" xlink:href="#m6bc655d4d6" y="215.141682"/>
     <use style="fill:#e3534a;stroke:#000000;" x="270.455292" xlink:href="#m6bc655d4d6" y="234.989075"/>
     <use style="fill:#e3534a;stroke:#000000;" x="157.623009" xlink:href="#m6bc655d4d6" y="208.480194"/>
     <use style="fill:#e3534a;stroke:#000000;" x="171.352462" xlink:href="#m6bc655d4d6" y="221.418686"/>
     <use style="fill:#e3534a;stroke:#000000;" x="135.535459" xlink:href="#m6bc655d4d6" y="200.885036"/>
     <use style="fill:#e3534a;stroke:#000000;" x="148.736547" xlink:href="#m6bc655d4d6" y="229.208458"/>
    </g>
   </g>
   <g id="line2d_16">
    <defs>
     <path d="M 0 5 
C 1.326016 5 2.597899 4.473168 3.535534 3.535534 
C 4.473168 2.597899 5 1.326016 5 0 
C 5 -1.326016 4.473168 -2.597899 3.535534 -3.535534 
C 2.597899 -4.473168 1.326016 -5 0 -5 
C -1.326016 -5 -2.597899 -4.473168 -3.535534 -3.535534 
C -4.473168 -2.597899 -5 -1.326016 -5 0 
C -5 1.326016 -4.473168 2.597899 -3.535534 3.535534 
C -2.597899 4.473168 -1.326016 5 0 5 
z
" id="mb18d023e21" style="stroke:#000000;"/>
    </defs>
    <g clip-path="url(#p63a4e8e587)">
     <use style="fill:#ef6645;stroke:#000000;" x="220.499925" xlink:href="#mb18d023e21" y="143.11819"/>
    </g>
   </g>
   <g id="line2d_17">
    <defs>
     <path d="M 0 5 
C 1.326016 5 2.597899 4.473168 3.535534 3.535534 
C 4.473168 2.597899 5 1.326016 5 0 
C 5 -1.326016 4.473168 -2.597899 3.535534 -3.535534 
C 2.597899 -4.473168 1.326016 -5 0 -5 
C -1.326016 -5 -2.597899 -4.473168 -3.535534 -3.535534 
C -4.473168 -2.597899 -5 -1.326016 -5 0 
C -5 1.326016 -4.473168 2.597899 -3.535534 3.535534 
C -2.597899 4.473168 -1.326016 5 0 5 
z
" id="m7b72b47cbb" style="stroke:#000000;"/>
    </defs>
    <g clip-path="url(#p63a4e8e587)">
     <use style="fill:#f67a49;stroke:#000000;" x="192.838285" xlink:href="#m7b72b47cbb" y="196.14803"/>
     <use style="fill:#f67a49;stroke:#000000;" x="193.091823" xlink:href="#m7b72b47cbb" y="169.884523"/>
     <use style="fill:#f67a49;stroke:#000000;" x="192.838193" xlink:href="#m7b72b47cbb" y="196.148399"/>
     <use style="fill:#f67a49;stroke:#000000;" x="175.644883" xlink:href="#m7b72b47cbb" y="176.302217"/>
    </g>
   </g>
   <g id="line2d_18">
    <defs>
     <path d="M 0 5 
C 1.326016 5 2.597899 4.473168 3.535534 3.535534 
C 4.473168 2.597899 5 1.326016 5 0 
C 5 -1.326016 4.473168 -2.597899 3.535534 -3.535534 
C 2.597899 -4.473168 1.326016 -5 0 -5 
C -1.326016 -5 -2.597899 -4.473168 -3.535534 -3.535534 
C -4.473168 -2.597899 -5 -1.326016 -5 0 
C -5 1.326016 -4.473168 2.597899 -3.535534 3.535534 
C -2.597899 4.473168 -1.326016 5 0 5 
z
" id="m07a732157a" style="stroke:#000000;"/>
    </defs>
    <g clip-path="url(#p63a4e8e587)">
     <use style="fill:#f99355;stroke:#000000;" x="276.788755" xlink:href="#m07a732157a" y="94.475656"/>
     <use style="fill:#f99355;stroke:#000000;" x="287.383924" xlink:href="#m07a732157a" y="98.79975"/>
     <use style="fill:#f99355;stroke:#000000;" x="281.319348" xlink:href="#m07a732157a" y="99.685277"/>
     <use style="fill:#f99355;stroke:#000000;" x="278.602068" xlink:href="#m07a732157a" y="104.686012"/>
    </g>
   </g>
   <g id="line2d_19">
    <defs>
     <path d="M 0 5 
C 1.326016 5 2.597899 4.473168 3.535534 3.535534 
C 4.473168 2.597899 5 1.326016 5 0 
C 5 -1.326016 4.473168 -2.597899 3.535534 -3.535534 
C 2.597899 -4.473168 1.326016 -5 0 -5 
C -1.326016 -5 -2.597899 -4.473168 -3.535534 -3.535534 
C -4.473168 -2.597899 -5 -1.326016 -5 0 
C -5 1.326016 -4.473168 2.597899 -3.535534 3.535534 
C -2.597899 4.473168 -1.326016 5 0 5 
z
" id="mdc364347ba" style="stroke:#000000;"/>
    </defs>
    <g clip-path="url(#p63a4e8e587)">
     <use style="fill:#fcaa5f;stroke:#000000;" x="215.318699" xlink:href="#mdc364347ba" y="126.628442"/>
     <use style="fill:#fcaa5f;stroke:#000000;" x="215.455163" xlink:href="#mdc364347ba" y="128.011231"/>
     <use style="fill:#fcaa5f;stroke:#000000;" x="215.866474" xlink:href="#mdc364347ba" y="135.190392"/>
    </g>
   </g>
   <g id="line2d_20">
    <defs>
     <path d="M 0 5 
C 1.326016 5 2.597899 4.473168 3.535534 3.535534 
C 4.473168 2.597899 5 1.326016 5 0 
C 5 -1.326016 4.473168 -2.597899 3.535534 -3.535534 
C 2.597899 -4.473168 1.326016 -5 0 -5 
C -1.326016 -5 -2.597899 -4.473168 -3.535534 -3.535534 
C -4.473168 -2.597899 -5 -1.326016 -5 0 
C -5 1.326016 -4.473168 2.597899 -3.535534 3.535534 
C -2.597899 4.473168 -1.326016 5 0 5 
z
" id="m94671eb0aa" style="stroke:#000000;"/>
    </defs>
    <g clip-path="url(#p63a4e8e587)">
     <use style="fill:#fdbf6f;stroke:#000000;" x="203.420609" xlink:href="#m94671eb0aa" y="193.267133"/>
    </g>
   </g>
   <g id="line2d_21">
    <defs>
     <path d="M 0 5 
C 1.326016 5 2.597899 4.473168 3.535534 3.535534 
C 4.473168 2.597899 5 1.326016 5 0 
C 5 -1.326016 4.473168 -2.597899 3.535534 -3.535534 
C 2.597899 -4.473168 1.326016 -5 0 -5 
C -1.326016 -5 -2.597899 -4.473168 -3.535534 -3.535534 
C -4.473168 -2.597899 -5 -1.326016 -5 0 
C -5 1.326016 -4.473168 2.597899 -3.535534 3.535534 
C -2.597899 4.473168 -1.326016 5 0 5 
z
" id="m0f6195453d" style="stroke:#000000;"/>
    </defs>
    <g clip-path="url(#p63a4e8e587)">
     <use style="fill:#fed07e;stroke:#000000;" x="250.382673" xlink:href="#m0f6195453d" y="203.160115"/>
     <use style="fill:#fed07e;stroke:#000000;" x="251.489368" xlink:href="#m0f6195453d" y="203.807131"/>
    </g>
   </g>
   <g id="line2d_22">
    <defs>
     <path d="M 0 5 
C 1.326016 5 2.597899 4.473168 3.535534 3.535534 
C 4.473168 2.597899 5 1.326016 5 0 
C 5 -1.326016 4.473168 -2.597899 3.535534 -3.535534 
C 2.597899 -4.473168 1.326016 -5 0 -5 
C -1.326016 -5 -2.597899 -4.473168 -3.535534 -3.535534 
C -4.473168 -2.597899 -5 -1.326016 -5 0 
C -5 1.326016 -4.473168 2.597899 -3.535534 3.535534 
C -2.597899 4.473168 -1.326016 5 0 5 
z
" id="me2f9bd7314" style="stroke:#000000;"/>
    </defs>
    <g clip-path="url(#p63a4e8e587)">
     <use style="fill:#fee28f;stroke:#000000;" x="254.894083" xlink:href="#me2f9bd7314" y="260.62982"/>
     <use style="fill:#fee28f;stroke:#000000;" x="255.173125" xlink:href="#me2f9bd7314" y="256.443414"/>
     <use style="fill:#fee28f;stroke:#000000;" x="255.422642" xlink:href="#me2f9bd7314" y="263.658594"/>
     <use style="fill:#fee28f;stroke:#000000;" x="243.137382" xlink:href="#me2f9bd7314" y="240.271728"/>
     <use style="fill:#fee28f;stroke:#000000;" x="239.298933" xlink:href="#me2f9bd7314" y="245.72277"/>
     <use style="fill:#fee28f;stroke:#000000;" x="240.578665" xlink:href="#me2f9bd7314" y="246.719693"/>
     <use style="fill:#fee28f;stroke:#000000;" x="232.210658" xlink:href="#me2f9bd7314" y="246.338939"/>
     <use style="fill:#fee28f;stroke:#000000;" x="175.426964" xlink:href="#me2f9bd7314" y="263.139899"/>
     <use style="fill:#fee28f;stroke:#000000;" x="219.534006" xlink:href="#me2f9bd7314" y="241.757878"/>
    </g>
   </g>
   <g id="line2d_23">
    <defs>
     <path d="M 0 5 
C 1.326016 5 2.597899 4.473168 3.535534 3.535534 
C 4.473168 2.597899 5 1.326016 5 0 
C 5 -1.326016 4.473168 -2.597899 3.535534 -3.535534 
C 2.597899 -4.473168 1.326016 -5 0 -5 
C -1.326016 -5 -2.597899 -4.473168 -3.535534 -3.535534 
C -4.473168 -2.597899 -5 -1.326016 -5 0 
C -5 1.326016 -4.473168 2.597899 -3.535534 3.535534 
C -2.597899 4.473168 -1.326016 5 0 5 
z
" id="mcc7a3624cc" style="stroke:#000000;"/>
    </defs>
    <g clip-path="url(#p63a4e8e587)">
     <use style="fill:#feeda1;stroke:#000000;" x="289.344562" xlink:href="#mcc7a3624cc" y="123.342386"/>
     <use style="fill:#feeda1;stroke:#000000;" x="300.566068" xlink:href="#mcc7a3624cc" y="295.488"/>
     <use style="fill:#feeda1;stroke:#000000;" x="288.117389" xlink:href="#mcc7a3624cc" y="131.669526"/>
     <use style="fill:#feeda1;stroke:#000000;" x="267.803304" xlink:href="#mcc7a3624cc" y="130.086999"/>
     <use style="fill:#feeda1;stroke:#000000;" x="307.01021" xlink:href="#mcc7a3624cc" y="121.33753"/>
     <use style="fill:#feeda1;stroke:#000000;" x="289.320747" xlink:href="#mcc7a3624cc" y="123.353793"/>
     <use style="fill:#feeda1;stroke:#000000;" x="247.633429" xlink:href="#mcc7a3624cc" y="146.181249"/>
     <use style="fill:#feeda1;stroke:#000000;" x="282.4612" xlink:href="#mcc7a3624cc" y="127.647379"/>
     <use style="fill:#feeda1;stroke:#000000;" x="289.661791" xlink:href="#mcc7a3624cc" y="143.041147"/>
     <use style="fill:#feeda1;stroke:#000000;" x="267.803302" xlink:href="#mcc7a3624cc" y="130.086999"/>
     <use style="fill:#feeda1;stroke:#000000;" x="288.899618" xlink:href="#mcc7a3624cc" y="128.459468"/>
     <use style="fill:#feeda1;stroke:#000000;" x="310.707726" xlink:href="#mcc7a3624cc" y="126.38983"/>
     <use style="fill:#feeda1;stroke:#000000;" x="289.660785" xlink:href="#mcc7a3624cc" y="143.042518"/>
     <use style="fill:#feeda1;stroke:#000000;" x="300.283744" xlink:href="#mcc7a3624cc" y="128.613478"/>
     <use style="fill:#feeda1;stroke:#000000;" x="311.21215" xlink:href="#mcc7a3624cc" y="123.255254"/>
     <use style="fill:#feeda1;stroke:#000000;" x="298.231894" xlink:href="#mcc7a3624cc" y="116.285024"/>
    </g>
   </g>
   <g id="line2d_24">
    <defs>
     <path d="M 0 5 
C 1.326016 5 2.597899 4.473168 3.535534 3.535534 
C 4.473168 2.597899 5 1.326016 5 0 
C 5 -1.326016 4.473168 -2.597899 3.535534 -3.535534 
C 2.597899 -4.473168 1.326016 -5 0 -5 
C -1.326016 -5 -2.597899 -4.473168 -3.535534 -3.535534 
C -4.473168 -2.597899 -5 -1.326016 -5 0 
C -5 1.326016 -4.473168 2.597899 -3.535534 3.535534 
C -2.597899 4.473168 -1.326016 5 0 5 
z
" id="m6e1a415bed" style="stroke:#000000;"/>
    </defs>
    <g clip-path="url(#p63a4e8e587)">
     <use style="fill:#fffab6;stroke:#000000;" x="379.611872" xlink:href="#m6e1a415bed" y="242.459114"/>
     <use style="fill:#fffab6;stroke:#000000;" x="371.071841" xlink:href="#m6e1a415bed" y="233.896978"/>
     <use style="fill:#fffab6;stroke:#000000;" x="394.263183" xlink:href="#m6e1a415bed" y="217.774668"/>
     <use style="fill:#fffab6;stroke:#000000;" x="370.61379" xlink:href="#m6e1a415bed" y="243.597646"/>
     <use style="fill:#fffab6;stroke:#000000;" x="375.162196" xlink:href="#m6e1a415bed" y="233.845481"/>
     <use style="fill:#fffab6;stroke:#000000;" x="391.283932" xlink:href="#m6e1a415bed" y="234.382627"/>
     <use style="fill:#fffab6;stroke:#000000;" x="380.393472" xlink:href="#m6e1a415bed" y="239.846114"/>
     <use style="fill:#fffab6;stroke:#000000;" x="398.487273" xlink:href="#m6e1a415bed" y="247.050921"/>
     <use style="fill:#fffab6;stroke:#000000;" x="384.742968" xlink:href="#m6e1a415bed" y="232.87986"/>
     <use style="fill:#fffab6;stroke:#000000;" x="394.498107" xlink:href="#m6e1a415bed" y="217.816824"/>
     <use style="fill:#fffab6;stroke:#000000;" x="382.625729" xlink:href="#m6e1a415bed" y="241.118759"/>
     <use style="fill:#fffab6;stroke:#000000;" x="374.042337" xlink:href="#m6e1a415bed" y="232.077921"/>
     <use style="fill:#fffab6;stroke:#000000;" x="380.108878" xlink:href="#m6e1a415bed" y="255.057656"/>
     <use style="fill:#fffab6;stroke:#000000;" x="372.032114" xlink:href="#m6e1a415bed" y="239.001525"/>
    </g>
   </g>
   <g id="line2d_25">
    <defs>
     <path d="M 0 5 
C 1.326016 5 2.597899 4.473168 3.535534 3.535534 
C 4.473168 2.597899 5 1.326016 5 0 
C 5 -1.326016 4.473168 -2.597899 3.535534 -3.535534 
C 2.597899 -4.473168 1.326016 -5 0 -5 
C -1.326016 -5 -2.597899 -4.473168 -3.535534 -3.535534 
C -4.473168 -2.597899 -5 -1.326016 -5 0 
C -5 1.326016 -4.473168 2.597899 -3.535534 3.535534 
C -2.597899 4.473168 -1.326016 5 0 5 
z
" id="m96c089ce84" style="stroke:#000000;"/>
    </defs>
    <g clip-path="url(#p63a4e8e587)">
     <use style="fill:#fbfdb8;stroke:#000000;" x="121.800357" xlink:href="#m96c089ce84" y="207.006058"/>
    </g>
   </g>
   <g id="line2d_26">
    <defs>
     <path d="M 0 5 
C 1.326016 5 2.597899 4.473168 3.535534 3.535534 
C 4.473168 2.597899 5 1.326016 5 0 
C 5 -1.326016 4.473168 -2.597899 3.535534 -3.535534 
C 2.597899 -4.473168 1.326016 -5 0 -5 
C -1.326016 -5 -2.597899 -4.473168 -3.535534 -3.535534 
C -4.473168 -2.597899 -5 -1.326016 -5 0 
C -5 1.326016 -4.473168 2.597899 -3.535534 3.535534 
C -2.597899 4.473168 -1.326016 5 0 5 
z
" id="m835b820595" style="stroke:#000000;"/>
    </defs>
    <g clip-path="url(#p63a4e8e587)">
     <use style="fill:#f1f9a9;stroke:#000000;" x="260.394485" xlink:href="#m835b820595" y="94.785507"/>
     <use style="fill:#f1f9a9;stroke:#000000;" x="254.693984" xlink:href="#m835b820595" y="83.543586"/>
     <use style="fill:#f1f9a9;stroke:#000000;" x="260.270276" xlink:href="#m835b820595" y="88.39011"/>
     <use style="fill:#f1f9a9;stroke:#000000;" x="267.193208" xlink:href="#m835b820595" y="88.189254"/>
     <use style="fill:#f1f9a9;stroke:#000000;" x="265.545883" xlink:href="#m835b820595" y="91.577203"/>
    </g>
   </g>
   <g id="line2d_27">
    <defs>
     <path d="M 0 5 
C 1.326016 5 2.597899 4.473168 3.535534 3.535534 
C 4.473168 2.597899 5 1.326016 5 0 
C 5 -1.326016 4.473168 -2.597899 3.535534 -3.535534 
C 2.597899 -4.473168 1.326016 -5 0 -5 
C -1.326016 -5 -2.597899 -4.473168 -3.535534 -3.535534 
C -4.473168 -2.597899 -5 -1.326016 -5 0 
C -5 1.326016 -4.473168 2.597899 -3.535534 3.535534 
C -2.597899 4.473168 -1.326016 5 0 5 
z
" id="mb2c7a546bb" style="stroke:#000000;"/>
    </defs>
    <g clip-path="url(#p63a4e8e587)">
     <use style="fill:#e8f69b;stroke:#000000;" x="180.20554" xlink:href="#mb2c7a546bb" y="159.60328"/>
     <use style="fill:#e8f69b;stroke:#000000;" x="180.209569" xlink:href="#mb2c7a546bb" y="159.612936"/>
     <use style="fill:#e8f69b;stroke:#000000;" x="145.360435" xlink:href="#mb2c7a546bb" y="163.442808"/>
     <use style="fill:#e8f69b;stroke:#000000;" x="142.644709" xlink:href="#mb2c7a546bb" y="161.618678"/>
     <use style="fill:#e8f69b;stroke:#000000;" x="196.257588" xlink:href="#mb2c7a546bb" y="153.514223"/>
     <use style="fill:#e8f69b;stroke:#000000;" x="172.155082" xlink:href="#mb2c7a546bb" y="159.200983"/>
     <use style="fill:#e8f69b;stroke:#000000;" x="219.626149" xlink:href="#mb2c7a546bb" y="160.458989"/>
     <use style="fill:#e8f69b;stroke:#000000;" x="152.076107" xlink:href="#mb2c7a546bb" y="172.493335"/>
     <use style="fill:#e8f69b;stroke:#000000;" x="182.637538" xlink:href="#mb2c7a546bb" y="140.205029"/>
     <use style="fill:#e8f69b;stroke:#000000;" x="172.437416" xlink:href="#mb2c7a546bb" y="165.252524"/>
     <use style="fill:#e8f69b;stroke:#000000;" x="157.516725" xlink:href="#mb2c7a546bb" y="162.346592"/>
     <use style="fill:#e8f69b;stroke:#000000;" x="181.738909" xlink:href="#mb2c7a546bb" y="142.763676"/>
     <use style="fill:#e8f69b;stroke:#000000;" x="127.881053" xlink:href="#mb2c7a546bb" y="130.208328"/>
     <use style="fill:#e8f69b;stroke:#000000;" x="207.172489" xlink:href="#mb2c7a546bb" y="167.424033"/>
    </g>
   </g>
   <g id="line2d_28">
    <defs>
     <path d="M 0 5 
C 1.326016 5 2.597899 4.473168 3.535534 3.535534 
C 4.473168 2.597899 5 1.326016 5 0 
C 5 -1.326016 4.473168 -2.597899 3.535534 -3.535534 
C 2.597899 -4.473168 1.326016 -5 0 -5 
C -1.326016 -5 -2.597899 -4.473168 -3.535534 -3.535534 
C -4.473168 -2.597899 -5 -1.326016 -5 0 
C -5 1.326016 -4.473168 2.597899 -3.535534 3.535534 
C -2.597899 4.473168 -1.326016 5 0 5 
z
" id="me6b4dc9c54" style="stroke:#000000;"/>
    </defs>
    <g clip-path="url(#p63a4e8e587)">
     <use style="fill:#d3ed9c;stroke:#000000;" x="178.566582" xlink:href="#me6b4dc9c54" y="154.096695"/>
    </g>
   </g>
   <g id="line2d_29">
    <defs>
     <path d="M 0 5 
C 1.326016 5 2.597899 4.473168 3.535534 3.535534 
C 4.473168 2.597899 5 1.326016 5 0 
C 5 -1.326016 4.473168 -2.597899 3.535534 -3.535534 
C 2.597899 -4.473168 1.326016 -5 0 -5 
C -1.326016 -5 -2.597899 -4.473168 -3.535534 -3.535534 
C -4.473168 -2.597899 -5 -1.326016 -5 0 
C -5 1.326016 -4.473168 2.597899 -3.535534 3.535534 
C -2.597899 4.473168 -1.326016 5 0 5 
z
" id="m76daf037d4" style="stroke:#000000;"/>
    </defs>
    <g clip-path="url(#p63a4e8e587)">
     <use style="fill:#bfe5a0;stroke:#000000;" x="316.6232" xlink:href="#m76daf037d4" y="246.179471"/>
     <use style="fill:#bfe5a0;stroke:#000000;" x="317.767021" xlink:href="#m76daf037d4" y="182.434866"/>
    </g>
   </g>
   <g id="line2d_30">
    <defs>
     <path d="M 0 5 
C 1.326016 5 2.597899 4.473168 3.535534 3.535534 
C 4.473168 2.597899 5 1.326016 5 0 
C 5 -1.326016 4.473168 -2.597899 3.535534 -3.535534 
C 2.597899 -4.473168 1.326016 -5 0 -5 
C -1.326016 -5 -2.597899 -4.473168 -3.535534 -3.535534 
C -4.473168 -2.597899 -5 -1.326016 -5 0 
C -5 1.326016 -4.473168 2.597899 -3.535534 3.535534 
C -2.597899 4.473168 -1.326016 5 0 5 
z
" id="m8a62bcba3c" style="stroke:#000000;"/>
    </defs>
    <g clip-path="url(#p63a4e8e587)">
     <use style="fill:#a7dba4;stroke:#000000;" x="350.882126" xlink:href="#m8a62bcba3c" y="239.195712"/>
    </g>
   </g>
   <g id="line2d_31">
    <defs>
     <path d="M 0 5 
C 1.326016 5 2.597899 4.473168 3.535534 3.535534 
C 4.473168 2.597899 5 1.326016 5 0 
C 5 -1.326016 4.473168 -2.597899 3.535534 -3.535534 
C 2.597899 -4.473168 1.326016 -5 0 -5 
C -1.326016 -5 -2.597899 -4.473168 -3.535534 -3.535534 
C -4.473168 -2.597899 -5 -1.326016 -5 0 
C -5 1.326016 -4.473168 2.597899 -3.535534 3.535534 
C -2.597899 4.473168 -1.326016 5 0 5 
z
" id="m86409fc6a4" style="stroke:#000000;"/>
    </defs>
    <g clip-path="url(#p63a4e8e587)">
     <use style="fill:#8fd2a4;stroke:#000000;" x="338.164678" xlink:href="#m86409fc6a4" y="170.121909"/>
     <use style="fill:#8fd2a4;stroke:#000000;" x="336.809888" xlink:href="#m86409fc6a4" y="198.504169"/>
     <use style="fill:#8fd2a4;stroke:#000000;" x="316.75027" xlink:href="#m86409fc6a4" y="262.867312"/>
     <use style="fill:#8fd2a4;stroke:#000000;" x="350.94888" xlink:href="#m86409fc6a4" y="146.07112"/>
     <use style="fill:#8fd2a4;stroke:#000000;" x="347.55518" xlink:href="#m86409fc6a4" y="261.005002"/>
     <use style="fill:#8fd2a4;stroke:#000000;" x="350.258449" xlink:href="#m86409fc6a4" y="213.722425"/>
     <use style="fill:#8fd2a4;stroke:#000000;" x="341.37451" xlink:href="#m86409fc6a4" y="171.885705"/>
     <use style="fill:#8fd2a4;stroke:#000000;" x="340.583089" xlink:href="#m86409fc6a4" y="194.801796"/>
     <use style="fill:#8fd2a4;stroke:#000000;" x="352.275267" xlink:href="#m86409fc6a4" y="251.122232"/>
     <use style="fill:#8fd2a4;stroke:#000000;" x="337.54655" xlink:href="#m86409fc6a4" y="197.97266"/>
     <use style="fill:#8fd2a4;stroke:#000000;" x="262.951797" xlink:href="#m86409fc6a4" y="183.662832"/>
    </g>
   </g>
   <g id="line2d_32">
    <defs>
     <path d="M 0 5 
C 1.326016 5 2.597899 4.473168 3.535534 3.535534 
C 4.473168 2.597899 5 1.326016 5 0 
C 5 -1.326016 4.473168 -2.597899 3.535534 -3.535534 
C 2.597899 -4.473168 1.326016 -5 0 -5 
C -1.326016 -5 -2.597899 -4.473168 -3.535534 -3.535534 
C -4.473168 -2.597899 -5 -1.326016 -5 0 
C -5 1.326016 -4.473168 2.597899 -3.535534 3.535534 
C -2.597899 4.473168 -1.326016 5 0 5 
z
" id="mf8ba7fee1e" style="stroke:#000000;"/>
    </defs>
    <g clip-path="url(#p63a4e8e587)">
     <use style="fill:#74c7a5;stroke:#000000;" x="147.003791" xlink:href="#mf8ba7fee1e" y="177.969629"/>
     <use style="fill:#74c7a5;stroke:#000000;" x="207.850129" xlink:href="#mf8ba7fee1e" y="206.078206"/>
     <use style="fill:#74c7a5;stroke:#000000;" x="157.400251" xlink:href="#mf8ba7fee1e" y="145.604046"/>
     <use style="fill:#74c7a5;stroke:#000000;" x="160.598849" xlink:href="#mf8ba7fee1e" y="149.076515"/>
     <use style="fill:#74c7a5;stroke:#000000;" x="214.804824" xlink:href="#mf8ba7fee1e" y="214.793029"/>
     <use style="fill:#74c7a5;stroke:#000000;" x="210.549244" xlink:href="#mf8ba7fee1e" y="209.390912"/>
     <use style="fill:#74c7a5;stroke:#000000;" x="164.681757" xlink:href="#mf8ba7fee1e" y="126.90553"/>
     <use style="fill:#74c7a5;stroke:#000000;" x="200.457005" xlink:href="#mf8ba7fee1e" y="213.222407"/>
     <use style="fill:#74c7a5;stroke:#000000;" x="274.409561" xlink:href="#mf8ba7fee1e" y="272.826221"/>
    </g>
   </g>
   <g id="line2d_33">
    <defs>
     <path d="M 0 5 
C 1.326016 5 2.597899 4.473168 3.535534 3.535534 
C 4.473168 2.597899 5 1.326016 5 0 
C 5 -1.326016 4.473168 -2.597899 3.535534 -3.535534 
C 2.597899 -4.473168 1.326016 -5 0 -5 
C -1.326016 -5 -2.597899 -4.473168 -3.535534 -3.535534 
C -4.473168 -2.597899 -5 -1.326016 -5 0 
C -5 1.326016 -4.473168 2.597899 -3.535534 3.535534 
C -2.597899 4.473168 -1.326016 5 0 5 
z
" id="m418b0a7410" style="stroke:#000000;"/>
    </defs>
    <g clip-path="url(#p63a4e8e587)">
     <use style="fill:#5eb9a9;stroke:#000000;" x="174.050814" xlink:href="#m418b0a7410" y="187.004899"/>
     <use style="fill:#5eb9a9;stroke:#000000;" x="183.366945" xlink:href="#m418b0a7410" y="189.255802"/>
     <use style="fill:#5eb9a9;stroke:#000000;" x="186.396307" xlink:href="#m418b0a7410" y="184.168566"/>
     <use style="fill:#5eb9a9;stroke:#000000;" x="188.848735" xlink:href="#m418b0a7410" y="186.143868"/>
     <use style="fill:#5eb9a9;stroke:#000000;" x="182.420529" xlink:href="#m418b0a7410" y="176.762987"/>
     <use style="fill:#5eb9a9;stroke:#000000;" x="169.736762" xlink:href="#m418b0a7410" y="177.704843"/>
     <use style="fill:#5eb9a9;stroke:#000000;" x="183.044675" xlink:href="#m418b0a7410" y="185.885496"/>
     <use style="fill:#5eb9a9;stroke:#000000;" x="186.895211" xlink:href="#m418b0a7410" y="188.825523"/>
    </g>
   </g>
   <g id="line2d_34">
    <defs>
     <path d="M 0 5 
C 1.326016 5 2.597899 4.473168 3.535534 3.535534 
C 4.473168 2.597899 5 1.326016 5 0 
C 5 -1.326016 4.473168 -2.597899 3.535534 -3.535534 
C 2.597899 -4.473168 1.326016 -5 0 -5 
C -1.326016 -5 -2.597899 -4.473168 -3.535534 -3.535534 
C -4.473168 -2.597899 -5 -1.326016 -5 0 
C -5 1.326016 -4.473168 2.597899 -3.535534 3.535534 
C -2.597899 4.473168 -1.326016 5 0 5 
z
" id="mb3a8a7b4eb" style="stroke:#000000;"/>
    </defs>
    <g clip-path="url(#p63a4e8e587)">
     <use style="fill:#49a2b2;stroke:#000000;" x="188.471763" xlink:href="#mb3a8a7b4eb" y="161.956929"/>
    </g>
   </g>
   <g id="line2d_35">
    <defs>
     <path d="M 0 5 
C 1.326016 5 2.597899 4.473168 3.535534 3.535534 
C 4.473168 2.597899 5 1.326016 5 0 
C 5 -1.326016 4.473168 -2.597899 3.535534 -3.535534 
C 2.597899 -4.473168 1.326016 -5 0 -5 
C -1.326016 -5 -2.597899 -4.473168 -3.535534 -3.535534 
C -4.473168 -2.597899 -5 -1.326016 -5 0 
C -5 1.326016 -4.473168 2.597899 -3.535534 3.535534 
C -2.597899 4.473168 -1.326016 5 0 5 
z
" id="mf80fb31150" style="stroke:#000000;"/>
    </defs>
    <g clip-path="url(#p63a4e8e587)">
     <use style="fill:#378ebb;stroke:#000000;" x="316.813854" xlink:href="#mf80fb31150" y="204.016653"/>
     <use style="fill:#378ebb;stroke:#000000;" x="340.668674" xlink:href="#mf80fb31150" y="235.158541"/>
     <use style="fill:#378ebb;stroke:#000000;" x="365.928721" xlink:href="#mf80fb31150" y="280.618421"/>
     <use style="fill:#378ebb;stroke:#000000;" x="330.87603" xlink:href="#mf80fb31150" y="228.060955"/>
     <use style="fill:#378ebb;stroke:#000000;" x="331.399101" xlink:href="#mf80fb31150" y="224.387781"/>
     <use style="fill:#378ebb;stroke:#000000;" x="376.499114" xlink:href="#mf80fb31150" y="283.470913"/>
     <use style="fill:#378ebb;stroke:#000000;" x="372.612004" xlink:href="#mf80fb31150" y="181.914311"/>
     <use style="fill:#378ebb;stroke:#000000;" x="373.46853" xlink:href="#mf80fb31150" y="278.666263"/>
     <use style="fill:#378ebb;stroke:#000000;" x="334.845178" xlink:href="#mf80fb31150" y="239.355548"/>
     <use style="fill:#378ebb;stroke:#000000;" x="326.773211" xlink:href="#mf80fb31150" y="264.793106"/>
     <use style="fill:#378ebb;stroke:#000000;" x="334.850167" xlink:href="#mf80fb31150" y="239.356262"/>
     <use style="fill:#378ebb;stroke:#000000;" x="365.808311" xlink:href="#mf80fb31150" y="278.452877"/>
     <use style="fill:#378ebb;stroke:#000000;" x="335.8607" xlink:href="#mf80fb31150" y="246.361071"/>
     <use style="fill:#378ebb;stroke:#000000;" x="347.178293" xlink:href="#mf80fb31150" y="243.955953"/>
     <use style="fill:#378ebb;stroke:#000000;" x="369.059976" xlink:href="#mf80fb31150" y="275.401263"/>
     <use style="fill:#378ebb;stroke:#000000;" x="324.134883" xlink:href="#mf80fb31150" y="237.279221"/>
     <use style="fill:#378ebb;stroke:#000000;" x="348.12434" xlink:href="#mf80fb31150" y="229.665909"/>
     <use style="fill:#378ebb;stroke:#000000;" x="325.738112" xlink:href="#mf80fb31150" y="246.546215"/>
     <use style="fill:#378ebb;stroke:#000000;" x="350.114653" xlink:href="#mf80fb31150" y="215.767028"/>
     <use style="fill:#378ebb;stroke:#000000;" x="331.5272" xlink:href="#mf80fb31150" y="233.497734"/>
     <use style="fill:#378ebb;stroke:#000000;" x="310.512709" xlink:href="#mf80fb31150" y="235.589931"/>
     <use style="fill:#378ebb;stroke:#000000;" x="327.844337" xlink:href="#mf80fb31150" y="265.599784"/>
    </g>
   </g>
   <g id="line2d_36">
    <defs>
     <path d="M 0 5 
C 1.326016 5 2.597899 4.473168 3.535534 3.535534 
C 4.473168 2.597899 5 1.326016 5 0 
C 5 -1.326016 4.473168 -2.597899 3.535534 -3.535534 
C 2.597899 -4.473168 1.326016 -5 0 -5 
C -1.326016 -5 -2.597899 -4.473168 -3.535534 -3.535534 
C -4.473168 -2.597899 -5 -1.326016 -5 0 
C -5 1.326016 -4.473168 2.597899 -3.535534 3.535534 
C -2.597899 4.473168 -1.326016 5 0 5 
z
" id="m9dcf951464" style="stroke:#000000;"/>
    </defs>
    <g clip-path="url(#p63a4e8e587)">
     <use style="fill:#3f77b5;stroke:#000000;" x="277.885994" xlink:href="#m9dcf951464" y="200.09611"/>
     <use style="fill:#3f77b5;stroke:#000000;" x="267.873811" xlink:href="#m9dcf951464" y="206.013927"/>
     <use style="fill:#3f77b5;stroke:#000000;" x="277.186647" xlink:href="#m9dcf951464" y="197.178861"/>
     <use style="fill:#3f77b5;stroke:#000000;" x="283.139398" xlink:href="#m9dcf951464" y="162.849593"/>
    </g>
   </g>
   <g id="line2d_37">
    <defs>
     <path d="M 0 5 
C 1.326016 5 2.597899 4.473168 3.535534 3.535534 
C 4.473168 2.597899 5 1.326016 5 0 
C 5 -1.326016 4.473168 -2.597899 3.535534 -3.535534 
C 2.597899 -4.473168 1.326016 -5 0 -5 
C -1.326016 -5 -2.597899 -4.473168 -3.535534 -3.535534 
C -4.473168 -2.597899 -5 -1.326016 -5 0 
C -5 1.326016 -4.473168 2.597899 -3.535534 3.535534 
C -2.597899 4.473168 -1.326016 5 0 5 
z
" id="m697de887b9" style="stroke:#000000;"/>
    </defs>
    <g clip-path="url(#p63a4e8e587)">
     <use style="fill:#4e63ac;stroke:#000000;" x="246.528571" xlink:href="#m697de887b9" y="104.272764"/>
     <use style="fill:#4e63ac;stroke:#000000;" x="246.536908" xlink:href="#m697de887b9" y="104.281279"/>
     <use style="fill:#4e63ac;stroke:#000000;" x="238.952421" xlink:href="#m697de887b9" y="108.800952"/>
    </g>
   </g>
   <g id="line2d_38">
    <defs>
     <path d="M 0 5 
C 1.326016 5 2.597899 4.473168 3.535534 3.535534 
C 4.473168 2.597899 5 1.326016 5 0 
C 5 -1.326016 4.473168 -2.597899 3.535534 -3.535534 
C 2.597899 -4.473168 1.326016 -5 0 -5 
C -1.326016 -5 -2.597899 -4.473168 -3.535534 -3.535534 
C -4.473168 -2.597899 -5 -1.326016 -5 0 
C -5 1.326016 -4.473168 2.597899 -3.535534 3.535534 
C -2.597899 4.473168 -1.326016 5 0 5 
z
" id="mb9b7ba887d" style="stroke:#000000;"/>
    </defs>
    <g clip-path="url(#p63a4e8e587)">
     <use style="fill:#5e4fa2;stroke:#000000;" x="162.182095" xlink:href="#mb9b7ba887d" y="192.887509"/>
     <use style="fill:#5e4fa2;stroke:#000000;" x="161.04639" xlink:href="#mb9b7ba887d" y="193.297064"/>
    </g>
   </g>
   <g id="patch_3">
    <path d="M 57.6 307.584 
L 57.6 41.472 
" style="fill:none;stroke:#000000;stroke-linecap:square;stroke-linejoin:miter;stroke-width:0.8;"/>
   </g>
   <g id="patch_4">
    <path d="M 414.72 307.584 
L 414.72 41.472 
" style="fill:none;stroke:#000000;stroke-linecap:square;stroke-linejoin:miter;stroke-width:0.8;"/>
   </g>
   <g id="patch_5">
    <path d="M 57.6 307.584 
L 414.72 307.584 
" style="fill:none;stroke:#000000;stroke-linecap:square;stroke-linejoin:miter;stroke-width:0.8;"/>
   </g>
   <g id="patch_6">
    <path d="M 57.6 41.472 
L 414.72 41.472 
" style="fill:none;stroke:#000000;stroke-linecap:square;stroke-linejoin:miter;stroke-width:0.8;"/>
   </g>
   <g id="text_11">
    <!-- KMedoidsWrapper Number of clusters: 28 -->
    <defs>
     <path d="M 9.8125 72.90625 
L 19.671875 72.90625 
L 19.671875 42.09375 
L 52.390625 72.90625 
L 65.09375 72.90625 
L 28.90625 38.921875 
L 67.671875 0 
L 54.6875 0 
L 19.671875 35.109375 
L 19.671875 0 
L 9.8125 0 
z
" id="DejaVuSans-75"/>
     <path d="M 9.8125 72.90625 
L 24.515625 72.90625 
L 43.109375 23.296875 
L 61.8125 72.90625 
L 76.515625 72.90625 
L 76.515625 0 
L 66.890625 0 
L 66.890625 64.015625 
L 48.09375 14.015625 
L 38.1875 14.015625 
L 19.390625 64.015625 
L 19.390625 0 
L 9.8125 0 
z
" id="DejaVuSans-77"/>
     <path d="M 56.203125 29.59375 
L 56.203125 25.203125 
L 14.890625 25.203125 
Q 15.484375 15.921875 20.484375 11.0625 
Q 25.484375 6.203125 34.421875 6.203125 
Q 39.59375 6.203125 44.453125 7.46875 
Q 49.3125 8.734375 54.109375 11.28125 
L 54.109375 2.78125 
Q 49.265625 0.734375 44.1875 -0.34375 
Q 39.109375 -1.421875 33.890625 -1.421875 
Q 20.796875 -1.421875 13.15625 6.1875 
Q 5.515625 13.8125 5.515625 26.8125 
Q 5.515625 40.234375 12.765625 48.109375 
Q 20.015625 56 32.328125 56 
Q 43.359375 56 49.78125 48.890625 
Q 56.203125 41.796875 56.203125 29.59375 
z
M 47.21875 32.234375 
Q 47.125 39.59375 43.09375 43.984375 
Q 39.0625 48.390625 32.421875 48.390625 
Q 24.90625 48.390625 20.390625 44.140625 
Q 15.875 39.890625 15.1875 32.171875 
z
" id="DejaVuSans-101"/>
     <path d="M 45.40625 46.390625 
L 45.40625 75.984375 
L 54.390625 75.984375 
L 54.390625 0 
L 45.40625 0 
L 45.40625 8.203125 
Q 42.578125 3.328125 38.25 0.953125 
Q 33.9375 -1.421875 27.875 -1.421875 
Q 17.96875 -1.421875 11.734375 6.484375 
Q 5.515625 14.40625 5.515625 27.296875 
Q 5.515625 40.1875 11.734375 48.09375 
Q 17.96875 56 27.875 56 
Q 33.9375 56 38.25 53.625 
Q 42.578125 51.265625 45.40625 46.390625 
z
M 14.796875 27.296875 
Q 14.796875 17.390625 18.875 11.75 
Q 22.953125 6.109375 30.078125 6.109375 
Q 37.203125 6.109375 41.296875 11.75 
Q 45.40625 17.390625 45.40625 27.296875 
Q 45.40625 37.203125 41.296875 42.84375 
Q 37.203125 48.484375 30.078125 48.484375 
Q 22.953125 48.484375 18.875 42.84375 
Q 14.796875 37.203125 14.796875 27.296875 
z
" id="DejaVuSans-100"/>
     <path d="M 30.609375 48.390625 
Q 23.390625 48.390625 19.1875 42.75 
Q 14.984375 37.109375 14.984375 27.296875 
Q 14.984375 17.484375 19.15625 11.84375 
Q 23.34375 6.203125 30.609375 6.203125 
Q 37.796875 6.203125 41.984375 11.859375 
Q 46.1875 17.53125 46.1875 27.296875 
Q 46.1875 37.015625 41.984375 42.703125 
Q 37.796875 48.390625 30.609375 48.390625 
z
M 30.609375 56 
Q 42.328125 56 49.015625 48.375 
Q 55.71875 40.765625 55.71875 27.296875 
Q 55.71875 13.875 49.015625 6.21875 
Q 42.328125 -1.421875 30.609375 -1.421875 
Q 18.84375 -1.421875 12.171875 6.21875 
Q 5.515625 13.875 5.515625 27.296875 
Q 5.515625 40.765625 12.171875 48.375 
Q 18.84375 56 30.609375 56 
z
" id="DejaVuSans-111"/>
     <path d="M 9.421875 54.6875 
L 18.40625 54.6875 
L 18.40625 0 
L 9.421875 0 
z
M 9.421875 75.984375 
L 18.40625 75.984375 
L 18.40625 64.59375 
L 9.421875 64.59375 
z
" id="DejaVuSans-105"/>
     <path d="M 44.28125 53.078125 
L 44.28125 44.578125 
Q 40.484375 46.53125 36.375 47.5 
Q 32.28125 48.484375 27.875 48.484375 
Q 21.1875 48.484375 17.84375 46.4375 
Q 14.5 44.390625 14.5 40.28125 
Q 14.5 37.15625 16.890625 35.375 
Q 19.28125 33.59375 26.515625 31.984375 
L 29.59375 31.296875 
Q 39.15625 29.25 43.1875 25.515625 
Q 47.21875 21.78125 47.21875 15.09375 
Q 47.21875 7.46875 41.1875 3.015625 
Q 35.15625 -1.421875 24.609375 -1.421875 
Q 20.21875 -1.421875 15.453125 -0.5625 
Q 10.6875 0.296875 5.421875 2 
L 5.421875 11.28125 
Q 10.40625 8.6875 15.234375 7.390625 
Q 20.0625 6.109375 24.8125 6.109375 
Q 31.15625 6.109375 34.5625 8.28125 
Q 37.984375 10.453125 37.984375 14.40625 
Q 37.984375 18.0625 35.515625 20.015625 
Q 33.0625 21.96875 24.703125 23.78125 
L 21.578125 24.515625 
Q 13.234375 26.265625 9.515625 29.90625 
Q 5.8125 33.546875 5.8125 39.890625 
Q 5.8125 47.609375 11.28125 51.796875 
Q 16.75 56 26.8125 56 
Q 31.78125 56 36.171875 55.265625 
Q 40.578125 54.546875 44.28125 53.078125 
z
" id="DejaVuSans-115"/>
     <path d="M 3.328125 72.90625 
L 13.28125 72.90625 
L 28.609375 11.28125 
L 43.890625 72.90625 
L 54.984375 72.90625 
L 70.3125 11.28125 
L 85.59375 72.90625 
L 95.609375 72.90625 
L 77.296875 0 
L 64.890625 0 
L 49.515625 63.28125 
L 33.984375 0 
L 21.578125 0 
z
" id="DejaVuSans-87"/>
     <path d="M 41.109375 46.296875 
Q 39.59375 47.171875 37.8125 47.578125 
Q 36.03125 48 33.890625 48 
Q 26.265625 48 22.1875 43.046875 
Q 18.109375 38.09375 18.109375 28.8125 
L 18.109375 0 
L 9.078125 0 
L 9.078125 54.6875 
L 18.109375 54.6875 
L 18.109375 46.1875 
Q 20.953125 51.171875 25.484375 53.578125 
Q 30.03125 56 36.53125 56 
Q 37.453125 56 38.578125 55.875 
Q 39.703125 55.765625 41.0625 55.515625 
z
" id="DejaVuSans-114"/>
     <path d="M 34.28125 27.484375 
Q 23.390625 27.484375 19.1875 25 
Q 14.984375 22.515625 14.984375 16.5 
Q 14.984375 11.71875 18.140625 8.90625 
Q 21.296875 6.109375 26.703125 6.109375 
Q 34.1875 6.109375 38.703125 11.40625 
Q 43.21875 16.703125 43.21875 25.484375 
L 43.21875 27.484375 
z
M 52.203125 31.203125 
L 52.203125 0 
L 43.21875 0 
L 43.21875 8.296875 
Q 40.140625 3.328125 35.546875 0.953125 
Q 30.953125 -1.421875 24.3125 -1.421875 
Q 15.921875 -1.421875 10.953125 3.296875 
Q 6 8.015625 6 15.921875 
Q 6 25.140625 12.171875 29.828125 
Q 18.359375 34.515625 30.609375 34.515625 
L 43.21875 34.515625 
L 43.21875 35.40625 
Q 43.21875 41.609375 39.140625 45 
Q 35.0625 48.390625 27.6875 48.390625 
Q 23 48.390625 18.546875 47.265625 
Q 14.109375 46.140625 10.015625 43.890625 
L 10.015625 52.203125 
Q 14.9375 54.109375 19.578125 55.046875 
Q 24.21875 56 28.609375 56 
Q 40.484375 56 46.34375 49.84375 
Q 52.203125 43.703125 52.203125 31.203125 
z
" id="DejaVuSans-97"/>
     <path d="M 18.109375 8.203125 
L 18.109375 -20.796875 
L 9.078125 -20.796875 
L 9.078125 54.6875 
L 18.109375 54.6875 
L 18.109375 46.390625 
Q 20.953125 51.265625 25.265625 53.625 
Q 29.59375 56 35.59375 56 
Q 45.5625 56 51.78125 48.09375 
Q 58.015625 40.1875 58.015625 27.296875 
Q 58.015625 14.40625 51.78125 6.484375 
Q 45.5625 -1.421875 35.59375 -1.421875 
Q 29.59375 -1.421875 25.265625 0.953125 
Q 20.953125 3.328125 18.109375 8.203125 
z
M 48.6875 27.296875 
Q 48.6875 37.203125 44.609375 42.84375 
Q 40.53125 48.484375 33.40625 48.484375 
Q 26.265625 48.484375 22.1875 42.84375 
Q 18.109375 37.203125 18.109375 27.296875 
Q 18.109375 17.390625 22.1875 11.75 
Q 26.265625 6.109375 33.40625 6.109375 
Q 40.53125 6.109375 44.609375 11.75 
Q 48.6875 17.390625 48.6875 27.296875 
z
" id="DejaVuSans-112"/>
     <path id="DejaVuSans-32"/>
     <path d="M 9.8125 72.90625 
L 23.09375 72.90625 
L 55.421875 11.921875 
L 55.421875 72.90625 
L 64.984375 72.90625 
L 64.984375 0 
L 51.703125 0 
L 19.390625 60.984375 
L 19.390625 0 
L 9.8125 0 
z
" id="DejaVuSans-78"/>
     <path d="M 8.5 21.578125 
L 8.5 54.6875 
L 17.484375 54.6875 
L 17.484375 21.921875 
Q 17.484375 14.15625 20.5 10.265625 
Q 23.53125 6.390625 29.59375 6.390625 
Q 36.859375 6.390625 41.078125 11.03125 
Q 45.3125 15.671875 45.3125 23.6875 
L 45.3125 54.6875 
L 54.296875 54.6875 
L 54.296875 0 
L 45.3125 0 
L 45.3125 8.40625 
Q 42.046875 3.421875 37.71875 1 
Q 33.40625 -1.421875 27.6875 -1.421875 
Q 18.265625 -1.421875 13.375 4.4375 
Q 8.5 10.296875 8.5 21.578125 
z
M 31.109375 56 
z
" id="DejaVuSans-117"/>
     <path d="M 52 44.1875 
Q 55.375 50.25 60.0625 53.125 
Q 64.75 56 71.09375 56 
Q 79.640625 56 84.28125 50.015625 
Q 88.921875 44.046875 88.921875 33.015625 
L 88.921875 0 
L 79.890625 0 
L 79.890625 32.71875 
Q 79.890625 40.578125 77.09375 44.375 
Q 74.3125 48.1875 68.609375 48.1875 
Q 61.625 48.1875 57.5625 43.546875 
Q 53.515625 38.921875 53.515625 30.90625 
L 53.515625 0 
L 44.484375 0 
L 44.484375 32.71875 
Q 44.484375 40.625 41.703125 44.40625 
Q 38.921875 48.1875 33.109375 48.1875 
Q 26.21875 48.1875 22.15625 43.53125 
Q 18.109375 38.875 18.109375 30.90625 
L 18.109375 0 
L 9.078125 0 
L 9.078125 54.6875 
L 18.109375 54.6875 
L 18.109375 46.1875 
Q 21.1875 51.21875 25.484375 53.609375 
Q 29.78125 56 35.6875 56 
Q 41.65625 56 45.828125 52.96875 
Q 50 49.953125 52 44.1875 
z
" id="DejaVuSans-109"/>
     <path d="M 48.6875 27.296875 
Q 48.6875 37.203125 44.609375 42.84375 
Q 40.53125 48.484375 33.40625 48.484375 
Q 26.265625 48.484375 22.1875 42.84375 
Q 18.109375 37.203125 18.109375 27.296875 
Q 18.109375 17.390625 22.1875 11.75 
Q 26.265625 6.109375 33.40625 6.109375 
Q 40.53125 6.109375 44.609375 11.75 
Q 48.6875 17.390625 48.6875 27.296875 
z
M 18.109375 46.390625 
Q 20.953125 51.265625 25.265625 53.625 
Q 29.59375 56 35.59375 56 
Q 45.5625 56 51.78125 48.09375 
Q 58.015625 40.1875 58.015625 27.296875 
Q 58.015625 14.40625 51.78125 6.484375 
Q 45.5625 -1.421875 35.59375 -1.421875 
Q 29.59375 -1.421875 25.265625 0.953125 
Q 20.953125 3.328125 18.109375 8.203125 
L 18.109375 0 
L 9.078125 0 
L 9.078125 75.984375 
L 18.109375 75.984375 
z
" id="DejaVuSans-98"/>
     <path d="M 37.109375 75.984375 
L 37.109375 68.5 
L 28.515625 68.5 
Q 23.6875 68.5 21.796875 66.546875 
Q 19.921875 64.59375 19.921875 59.515625 
L 19.921875 54.6875 
L 34.71875 54.6875 
L 34.71875 47.703125 
L 19.921875 47.703125 
L 19.921875 0 
L 10.890625 0 
L 10.890625 47.703125 
L 2.296875 47.703125 
L 2.296875 54.6875 
L 10.890625 54.6875 
L 10.890625 58.5 
Q 10.890625 67.625 15.140625 71.796875 
Q 19.390625 75.984375 28.609375 75.984375 
z
" id="DejaVuSans-102"/>
     <path d="M 48.78125 52.59375 
L 48.78125 44.1875 
Q 44.96875 46.296875 41.140625 47.34375 
Q 37.3125 48.390625 33.40625 48.390625 
Q 24.65625 48.390625 19.8125 42.84375 
Q 14.984375 37.3125 14.984375 27.296875 
Q 14.984375 17.28125 19.8125 11.734375 
Q 24.65625 6.203125 33.40625 6.203125 
Q 37.3125 6.203125 41.140625 7.25 
Q 44.96875 8.296875 48.78125 10.40625 
L 48.78125 2.09375 
Q 45.015625 0.34375 40.984375 -0.53125 
Q 36.96875 -1.421875 32.421875 -1.421875 
Q 20.0625 -1.421875 12.78125 6.34375 
Q 5.515625 14.109375 5.515625 27.296875 
Q 5.515625 40.671875 12.859375 48.328125 
Q 20.21875 56 33.015625 56 
Q 37.15625 56 41.109375 55.140625 
Q 45.0625 54.296875 48.78125 52.59375 
z
" id="DejaVuSans-99"/>
     <path d="M 9.421875 75.984375 
L 18.40625 75.984375 
L 18.40625 0 
L 9.421875 0 
z
" id="DejaVuSans-108"/>
     <path d="M 18.3125 70.21875 
L 18.3125 54.6875 
L 36.8125 54.6875 
L 36.8125 47.703125 
L 18.3125 47.703125 
L 18.3125 18.015625 
Q 18.3125 11.328125 20.140625 9.421875 
Q 21.96875 7.515625 27.59375 7.515625 
L 36.8125 7.515625 
L 36.8125 0 
L 27.59375 0 
Q 17.1875 0 13.234375 3.875 
Q 9.28125 7.765625 9.28125 18.015625 
L 9.28125 47.703125 
L 2.6875 47.703125 
L 2.6875 54.6875 
L 9.28125 54.6875 
L 9.28125 70.21875 
z
" id="DejaVuSans-116"/>
     <path d="M 11.71875 12.40625 
L 22.015625 12.40625 
L 22.015625 0 
L 11.71875 0 
z
M 11.71875 51.703125 
L 22.015625 51.703125 
L 22.015625 39.3125 
L 11.71875 39.3125 
z
" id="DejaVuSans-58"/>
     <path d="M 31.78125 34.625 
Q 24.75 34.625 20.71875 30.859375 
Q 16.703125 27.09375 16.703125 20.515625 
Q 16.703125 13.921875 20.71875 10.15625 
Q 24.75 6.390625 31.78125 6.390625 
Q 38.8125 6.390625 42.859375 10.171875 
Q 46.921875 13.96875 46.921875 20.515625 
Q 46.921875 27.09375 42.890625 30.859375 
Q 38.875 34.625 31.78125 34.625 
z
M 21.921875 38.8125 
Q 15.578125 40.375 12.03125 44.71875 
Q 8.5 49.078125 8.5 55.328125 
Q 8.5 64.0625 14.71875 69.140625 
Q 20.953125 74.21875 31.78125 74.21875 
Q 42.671875 74.21875 48.875 69.140625 
Q 55.078125 64.0625 55.078125 55.328125 
Q 55.078125 49.078125 51.53125 44.71875 
Q 48 40.375 41.703125 38.8125 
Q 48.828125 37.15625 52.796875 32.3125 
Q 56.78125 27.484375 56.78125 20.515625 
Q 56.78125 9.90625 50.3125 4.234375 
Q 43.84375 -1.421875 31.78125 -1.421875 
Q 19.734375 -1.421875 13.25 4.234375 
Q 6.78125 9.90625 6.78125 20.515625 
Q 6.78125 27.484375 10.78125 32.3125 
Q 14.796875 37.15625 21.921875 38.8125 
z
M 18.3125 54.390625 
Q 18.3125 48.734375 21.84375 45.5625 
Q 25.390625 42.390625 31.78125 42.390625 
Q 38.140625 42.390625 41.71875 45.5625 
Q 45.3125 48.734375 45.3125 54.390625 
Q 45.3125 60.0625 41.71875 63.234375 
Q 38.140625 66.40625 31.78125 66.40625 
Q 25.390625 66.40625 21.84375 63.234375 
Q 18.3125 60.0625 18.3125 54.390625 
z
" id="DejaVuSans-56"/>
    </defs>
    <g transform="translate(110.725313 35.472)scale(0.12 -0.12)">
     <use xlink:href="#DejaVuSans-75"/>
     <use x="65.576172" xlink:href="#DejaVuSans-77"/>
     <use x="151.855469" xlink:href="#DejaVuSans-101"/>
     <use x="213.378906" xlink:href="#DejaVuSans-100"/>
     <use x="276.855469" xlink:href="#DejaVuSans-111"/>
     <use x="338.037109" xlink:href="#DejaVuSans-105"/>
     <use x="365.820312" xlink:href="#DejaVuSans-100"/>
     <use x="429.296875" xlink:href="#DejaVuSans-115"/>
     <use x="481.396484" xlink:href="#DejaVuSans-87"/>
     <use x="580.210938" xlink:href="#DejaVuSans-114"/>
     <use x="621.324219" xlink:href="#DejaVuSans-97"/>
     <use x="682.603516" xlink:href="#DejaVuSans-112"/>
     <use x="746.080078" xlink:href="#DejaVuSans-112"/>
     <use x="809.556641" xlink:href="#DejaVuSans-101"/>
     <use x="871.080078" xlink:href="#DejaVuSans-114"/>
     <use x="912.193359" xlink:href="#DejaVuSans-32"/>
     <use x="943.980469" xlink:href="#DejaVuSans-78"/>
     <use x="1018.785156" xlink:href="#DejaVuSans-117"/>
     <use x="1082.164062" xlink:href="#DejaVuSans-109"/>
     <use x="1179.576172" xlink:href="#DejaVuSans-98"/>
     <use x="1243.052734" xlink:href="#DejaVuSans-101"/>
     <use x="1304.576172" xlink:href="#DejaVuSans-114"/>
     <use x="1345.689453" xlink:href="#DejaVuSans-32"/>
     <use x="1377.476562" xlink:href="#DejaVuSans-111"/>
     <use x="1438.658203" xlink:href="#DejaVuSans-102"/>
     <use x="1473.863281" xlink:href="#DejaVuSans-32"/>
     <use x="1505.650391" xlink:href="#DejaVuSans-99"/>
     <use x="1560.630859" xlink:href="#DejaVuSans-108"/>
     <use x="1588.414062" xlink:href="#DejaVuSans-117"/>
     <use x="1651.792969" xlink:href="#DejaVuSans-115"/>
     <use x="1703.892578" xlink:href="#DejaVuSans-116"/>
     <use x="1743.101562" xlink:href="#DejaVuSans-101"/>
     <use x="1804.625" xlink:href="#DejaVuSans-114"/>
     <use x="1845.738281" xlink:href="#DejaVuSans-115"/>
     <use x="1897.837891" xlink:href="#DejaVuSans-58"/>
     <use x="1931.529297" xlink:href="#DejaVuSans-32"/>
     <use x="1963.316406" xlink:href="#DejaVuSans-50"/>
     <use x="2026.939453" xlink:href="#DejaVuSans-56"/>
    </g>
   </g>
  </g>
 </g>
 <defs>
  <clipPath id="p63a4e8e587">
   <rect height="266.112" width="357.12" x="57.6" y="41.472"/>
  </clipPath>
 </defs>
</svg>
