<?xml version="1.0" encoding="utf-8" standalone="no"?>
<!DOCTYPE svg PUBLIC "-//W3C//DTD SVG 1.1//EN"
  "http://www.w3.org/Graphics/SVG/1.1/DTD/svg11.dtd">
<!-- Created with matplotlib (https://matplotlib.org/) -->
<svg height="345.6pt" version="1.1" viewBox="0 0 460.8 345.6" width="460.8pt" xmlns="http://www.w3.org/2000/svg" xmlns:xlink="http://www.w3.org/1999/xlink">
 <defs>
  <style type="text/css">
*{stroke-linecap:butt;stroke-linejoin:round;white-space:pre;}
  </style>
 </defs>
 <g id="figure_1">
  <g id="patch_1">
   <path d="M 0 345.6 
L 460.8 345.6 
L 460.8 0 
L 0 0 
z
" style="fill:#ffffff;"/>
  </g>
  <g id="axes_1">
   <g id="patch_2">
    <path d="M 57.6 307.584 
L 414.72 307.584 
L 414.72 41.472 
L 57.6 41.472 
z
" style="fill:#ffffff;"/>
   </g>
   <g id="matplotlib.axis_1">
    <g id="xtick_1">
     <g id="line2d_1">
      <defs>
       <path d="M 0 0 
L 0 3.5 
" id="ma7469aec0c" style="stroke:#000000;stroke-width:0.8;"/>
      </defs>
      <g>
       <use style="stroke:#000000;stroke-width:0.8;" x="94.785789" xlink:href="#ma7469aec0c" y="307.584"/>
      </g>
     </g>
     <g id="text_1">
      <!-- −15 -->
      <defs>
       <path d="M 10.59375 35.5 
L 73.1875 35.5 
L 73.1875 27.203125 
L 10.59375 27.203125 
z
" id="DejaVuSans-8722"/>
       <path d="M 12.40625 8.296875 
L 28.515625 8.296875 
L 28.515625 63.921875 
L 10.984375 60.40625 
L 10.984375 69.390625 
L 28.421875 72.90625 
L 38.28125 72.90625 
L 38.28125 8.296875 
L 54.390625 8.296875 
L 54.390625 0 
L 12.40625 0 
z
" id="DejaVuSans-49"/>
       <path d="M 10.796875 72.90625 
L 49.515625 72.90625 
L 49.515625 64.59375 
L 19.828125 64.59375 
L 19.828125 46.734375 
Q 21.96875 47.46875 24.109375 47.828125 
Q 26.265625 48.1875 28.421875 48.1875 
Q 40.625 48.1875 47.75 41.5 
Q 54.890625 34.8125 54.890625 23.390625 
Q 54.890625 11.625 47.5625 5.09375 
Q 40.234375 -1.421875 26.90625 -1.421875 
Q 22.3125 -1.421875 17.546875 -0.640625 
Q 12.796875 0.140625 7.71875 1.703125 
L 7.71875 11.625 
Q 12.109375 9.234375 16.796875 8.0625 
Q 21.484375 6.890625 26.703125 6.890625 
Q 35.15625 6.890625 40.078125 11.328125 
Q 45.015625 15.765625 45.015625 23.390625 
Q 45.015625 31 40.078125 35.4375 
Q 35.15625 39.890625 26.703125 39.890625 
Q 22.75 39.890625 18.8125 39.015625 
Q 14.890625 38.140625 10.796875 36.28125 
z
" id="DejaVuSans-53"/>
      </defs>
      <g transform="translate(84.233445 322.182437)scale(0.1 -0.1)">
       <use xlink:href="#DejaVuSans-8722"/>
       <use x="83.789062" xlink:href="#DejaVuSans-49"/>
       <use x="147.412109" xlink:href="#DejaVuSans-53"/>
      </g>
     </g>
    </g>
    <g id="xtick_2">
     <g id="line2d_2">
      <g>
       <use style="stroke:#000000;stroke-width:0.8;" x="138.527139" xlink:href="#ma7469aec0c" y="307.584"/>
      </g>
     </g>
     <g id="text_2">
      <!-- −10 -->
      <defs>
       <path d="M 31.78125 66.40625 
Q 24.171875 66.40625 20.328125 58.90625 
Q 16.5 51.421875 16.5 36.375 
Q 16.5 21.390625 20.328125 13.890625 
Q 24.171875 6.390625 31.78125 6.390625 
Q 39.453125 6.390625 43.28125 13.890625 
Q 47.125 21.390625 47.125 36.375 
Q 47.125 51.421875 43.28125 58.90625 
Q 39.453125 66.40625 31.78125 66.40625 
z
M 31.78125 74.21875 
Q 44.046875 74.21875 50.515625 64.515625 
Q 56.984375 54.828125 56.984375 36.375 
Q 56.984375 17.96875 50.515625 8.265625 
Q 44.046875 -1.421875 31.78125 -1.421875 
Q 19.53125 -1.421875 13.0625 8.265625 
Q 6.59375 17.96875 6.59375 36.375 
Q 6.59375 54.828125 13.0625 64.515625 
Q 19.53125 74.21875 31.78125 74.21875 
z
" id="DejaVuSans-48"/>
      </defs>
      <g transform="translate(127.974795 322.182437)scale(0.1 -0.1)">
       <use xlink:href="#DejaVuSans-8722"/>
       <use x="83.789062" xlink:href="#DejaVuSans-49"/>
       <use x="147.412109" xlink:href="#DejaVuSans-48"/>
      </g>
     </g>
    </g>
    <g id="xtick_3">
     <g id="line2d_3">
      <g>
       <use style="stroke:#000000;stroke-width:0.8;" x="182.268489" xlink:href="#ma7469aec0c" y="307.584"/>
      </g>
     </g>
     <g id="text_3">
      <!-- −5 -->
      <g transform="translate(174.897395 322.182437)scale(0.1 -0.1)">
       <use xlink:href="#DejaVuSans-8722"/>
       <use x="83.789062" xlink:href="#DejaVuSans-53"/>
      </g>
     </g>
    </g>
    <g id="xtick_4">
     <g id="line2d_4">
      <g>
       <use style="stroke:#000000;stroke-width:0.8;" x="226.009839" xlink:href="#ma7469aec0c" y="307.584"/>
      </g>
     </g>
     <g id="text_4">
      <!-- 0 -->
      <g transform="translate(222.828589 322.182437)scale(0.1 -0.1)">
       <use xlink:href="#DejaVuSans-48"/>
      </g>
     </g>
    </g>
    <g id="xtick_5">
     <g id="line2d_5">
      <g>
       <use style="stroke:#000000;stroke-width:0.8;" x="269.751189" xlink:href="#ma7469aec0c" y="307.584"/>
      </g>
     </g>
     <g id="text_5">
      <!-- 5 -->
      <g transform="translate(266.569939 322.182437)scale(0.1 -0.1)">
       <use xlink:href="#DejaVuSans-53"/>
      </g>
     </g>
    </g>
    <g id="xtick_6">
     <g id="line2d_6">
      <g>
       <use style="stroke:#000000;stroke-width:0.8;" x="313.492539" xlink:href="#ma7469aec0c" y="307.584"/>
      </g>
     </g>
     <g id="text_6">
      <!-- 10 -->
      <g transform="translate(307.130039 322.182437)scale(0.1 -0.1)">
       <use xlink:href="#DejaVuSans-49"/>
       <use x="63.623047" xlink:href="#DejaVuSans-48"/>
      </g>
     </g>
    </g>
    <g id="xtick_7">
     <g id="line2d_7">
      <g>
       <use style="stroke:#000000;stroke-width:0.8;" x="357.233889" xlink:href="#ma7469aec0c" y="307.584"/>
      </g>
     </g>
     <g id="text_7">
      <!-- 15 -->
      <g transform="translate(350.871389 322.182437)scale(0.1 -0.1)">
       <use xlink:href="#DejaVuSans-49"/>
       <use x="63.623047" xlink:href="#DejaVuSans-53"/>
      </g>
     </g>
    </g>
    <g id="xtick_8">
     <g id="line2d_8">
      <g>
       <use style="stroke:#000000;stroke-width:0.8;" x="400.975239" xlink:href="#ma7469aec0c" y="307.584"/>
      </g>
     </g>
     <g id="text_8">
      <!-- 20 -->
      <defs>
       <path d="M 19.1875 8.296875 
L 53.609375 8.296875 
L 53.609375 0 
L 7.328125 0 
L 7.328125 8.296875 
Q 12.9375 14.109375 22.625 23.890625 
Q 32.328125 33.6875 34.8125 36.53125 
Q 39.546875 41.84375 41.421875 45.53125 
Q 43.3125 49.21875 43.3125 52.78125 
Q 43.3125 58.59375 39.234375 62.25 
Q 35.15625 65.921875 28.609375 65.921875 
Q 23.96875 65.921875 18.8125 64.3125 
Q 13.671875 62.703125 7.8125 59.421875 
L 7.8125 69.390625 
Q 13.765625 71.78125 18.9375 73 
Q 24.125 74.21875 28.421875 74.21875 
Q 39.75 74.21875 46.484375 68.546875 
Q 53.21875 62.890625 53.21875 53.421875 
Q 53.21875 48.921875 51.53125 44.890625 
Q 49.859375 40.875 45.40625 35.40625 
Q 44.1875 33.984375 37.640625 27.21875 
Q 31.109375 20.453125 19.1875 8.296875 
z
" id="DejaVuSans-50"/>
      </defs>
      <g transform="translate(394.612739 322.182437)scale(0.1 -0.1)">
       <use xlink:href="#DejaVuSans-50"/>
       <use x="63.623047" xlink:href="#DejaVuSans-48"/>
      </g>
     </g>
    </g>
   </g>
   <g id="matplotlib.axis_2">
    <g id="ytick_1">
     <g id="line2d_9">
      <defs>
       <path d="M 0 0 
L -3.5 0 
" id="md761a1d3a7" style="stroke:#000000;stroke-width:0.8;"/>
      </defs>
      <g>
       <use style="stroke:#000000;stroke-width:0.8;" x="57.6" xlink:href="#md761a1d3a7" y="273.874271"/>
      </g>
     </g>
     <g id="text_9">
      <!-- −20 -->
      <g transform="translate(29.495313 277.67349)scale(0.1 -0.1)">
       <use xlink:href="#DejaVuSans-8722"/>
       <use x="83.789062" xlink:href="#DejaVuSans-50"/>
       <use x="147.412109" xlink:href="#DejaVuSans-48"/>
      </g>
     </g>
    </g>
    <g id="ytick_2">
     <g id="line2d_10">
      <g>
       <use style="stroke:#000000;stroke-width:0.8;" x="57.6" xlink:href="#md761a1d3a7" y="219.942788"/>
      </g>
     </g>
     <g id="text_10">
      <!-- −10 -->
      <g transform="translate(29.495313 223.742007)scale(0.1 -0.1)">
       <use xlink:href="#DejaVuSans-8722"/>
       <use x="83.789062" xlink:href="#DejaVuSans-49"/>
       <use x="147.412109" xlink:href="#DejaVuSans-48"/>
      </g>
     </g>
    </g>
    <g id="ytick_3">
     <g id="line2d_11">
      <g>
       <use style="stroke:#000000;stroke-width:0.8;" x="57.6" xlink:href="#md761a1d3a7" y="166.011306"/>
      </g>
     </g>
     <g id="text_11">
      <!-- 0 -->
      <g transform="translate(44.2375 169.810525)scale(0.1 -0.1)">
       <use xlink:href="#DejaVuSans-48"/>
      </g>
     </g>
    </g>
    <g id="ytick_4">
     <g id="line2d_12">
      <g>
       <use style="stroke:#000000;stroke-width:0.8;" x="57.6" xlink:href="#md761a1d3a7" y="112.079824"/>
      </g>
     </g>
     <g id="text_12">
      <!-- 10 -->
      <g transform="translate(37.875 115.879042)scale(0.1 -0.1)">
       <use xlink:href="#DejaVuSans-49"/>
       <use x="63.623047" xlink:href="#DejaVuSans-48"/>
      </g>
     </g>
    </g>
    <g id="ytick_5">
     <g id="line2d_13">
      <g>
       <use style="stroke:#000000;stroke-width:0.8;" x="57.6" xlink:href="#md761a1d3a7" y="58.148341"/>
      </g>
     </g>
     <g id="text_13">
      <!-- 20 -->
      <g transform="translate(37.875 61.94756)scale(0.1 -0.1)">
       <use xlink:href="#DejaVuSans-50"/>
       <use x="63.623047" xlink:href="#DejaVuSans-48"/>
      </g>
     </g>
    </g>
   </g>
   <g id="line2d_14">
    <defs>
     <path d="M 0 5 
C 1.326016 5 2.597899 4.473168 3.535534 3.535534 
C 4.473168 2.597899 5 1.326016 5 0 
C 5 -1.326016 4.473168 -2.597899 3.535534 -3.535534 
C 2.597899 -4.473168 1.326016 -5 0 -5 
C -1.326016 -5 -2.597899 -4.473168 -3.535534 -3.535534 
C -4.473168 -2.597899 -5 -1.326016 -5 0 
C -5 1.326016 -4.473168 2.597899 -3.535534 3.535534 
C -2.597899 4.473168 -1.326016 5 0 5 
z
" id="mb901538862" style="stroke:#000000;"/>
    </defs>
    <g clip-path="url(#p4e419bd102)">
     <use style="fill:#9e0142;stroke:#000000;" x="190.507702" xlink:href="#mb901538862" y="214.560451"/>
     <use style="fill:#9e0142;stroke:#000000;" x="209.161742" xlink:href="#mb901538862" y="176.733504"/>
     <use style="fill:#9e0142;stroke:#000000;" x="138.163718" xlink:href="#mb901538862" y="157.341115"/>
     <use style="fill:#9e0142;stroke:#000000;" x="167.88947" xlink:href="#mb901538862" y="199.249428"/>
     <use style="fill:#9e0142;stroke:#000000;" x="196.637384" xlink:href="#mb901538862" y="234.043324"/>
     <use style="fill:#9e0142;stroke:#000000;" x="153.514613" xlink:href="#mb901538862" y="175.962886"/>
     <use style="fill:#9e0142;stroke:#000000;" x="199.659298" xlink:href="#mb901538862" y="197.087136"/>
     <use style="fill:#9e0142;stroke:#000000;" x="183.476747" xlink:href="#mb901538862" y="183.725823"/>
     <use style="fill:#9e0142;stroke:#000000;" x="208.145237" xlink:href="#mb901538862" y="234.468958"/>
     <use style="fill:#9e0142;stroke:#000000;" x="171.430802" xlink:href="#mb901538862" y="164.008561"/>
     <use style="fill:#9e0142;stroke:#000000;" x="174.575617" xlink:href="#mb901538862" y="182.329191"/>
     <use style="fill:#9e0142;stroke:#000000;" x="179.095262" xlink:href="#mb901538862" y="189.404169"/>
     <use style="fill:#9e0142;stroke:#000000;" x="129.895004" xlink:href="#mb901538862" y="156.900154"/>
     <use style="fill:#9e0142;stroke:#000000;" x="177.148169" xlink:href="#mb901538862" y="197.132222"/>
     <use style="fill:#9e0142;stroke:#000000;" x="129.569451" xlink:href="#mb901538862" y="182.675777"/>
     <use style="fill:#9e0142;stroke:#000000;" x="155.948917" xlink:href="#mb901538862" y="191.532236"/>
     <use style="fill:#9e0142;stroke:#000000;" x="176.761462" xlink:href="#mb901538862" y="232.233888"/>
     <use style="fill:#9e0142;stroke:#000000;" x="204.163486" xlink:href="#mb901538862" y="192.946779"/>
     <use style="fill:#9e0142;stroke:#000000;" x="190.946427" xlink:href="#mb901538862" y="208.517369"/>
     <use style="fill:#9e0142;stroke:#000000;" x="138.958864" xlink:href="#mb901538862" y="194.975659"/>
     <use style="fill:#9e0142;stroke:#000000;" x="158.784712" xlink:href="#mb901538862" y="152.393877"/>
     <use style="fill:#9e0142;stroke:#000000;" x="160.263454" xlink:href="#mb901538862" y="155.682341"/>
     <use style="fill:#9e0142;stroke:#000000;" x="196.494756" xlink:href="#mb901538862" y="180.82336"/>
     <use style="fill:#9e0142;stroke:#000000;" x="118.917234" xlink:href="#mb901538862" y="205.667056"/>
     <use style="fill:#9e0142;stroke:#000000;" x="164.136175" xlink:href="#mb901538862" y="171.905205"/>
     <use style="fill:#9e0142;stroke:#000000;" x="158.134116" xlink:href="#mb901538862" y="203.10201"/>
     <use style="fill:#9e0142;stroke:#000000;" x="129.906609" xlink:href="#mb901538862" y="156.891744"/>
     <use style="fill:#9e0142;stroke:#000000;" x="73.832727" xlink:href="#mb901538862" y="141.440343"/>
     <use style="fill:#9e0142;stroke:#000000;" x="186.566181" xlink:href="#mb901538862" y="178.656642"/>
     <use style="fill:#9e0142;stroke:#000000;" x="191.108534" xlink:href="#mb901538862" y="187.903316"/>
     <use style="fill:#9e0142;stroke:#000000;" x="169.973301" xlink:href="#mb901538862" y="162.788081"/>
     <use style="fill:#9e0142;stroke:#000000;" x="181.055483" xlink:href="#mb901538862" y="173.274751"/>
     <use style="fill:#9e0142;stroke:#000000;" x="168.182697" xlink:href="#mb901538862" y="172.860753"/>
     <use style="fill:#9e0142;stroke:#000000;" x="92.122395" xlink:href="#mb901538862" y="147.565932"/>
     <use style="fill:#9e0142;stroke:#000000;" x="180.156233" xlink:href="#mb901538862" y="167.621787"/>
     <use style="fill:#9e0142;stroke:#000000;" x="143.176785" xlink:href="#mb901538862" y="179.653503"/>
     <use style="fill:#9e0142;stroke:#000000;" x="104.290252" xlink:href="#mb901538862" y="166.273906"/>
     <use style="fill:#9e0142;stroke:#000000;" x="123.113271" xlink:href="#mb901538862" y="152.220734"/>
     <use style="fill:#9e0142;stroke:#000000;" x="100.962321" xlink:href="#mb901538862" y="166.976924"/>
     <use style="fill:#9e0142;stroke:#000000;" x="160.757956" xlink:href="#mb901538862" y="186.408486"/>
     <use style="fill:#9e0142;stroke:#000000;" x="140.192435" xlink:href="#mb901538862" y="148.140148"/>
     <use style="fill:#9e0142;stroke:#000000;" x="170.542202" xlink:href="#mb901538862" y="221.59739"/>
     <use style="fill:#9e0142;stroke:#000000;" x="162.252713" xlink:href="#mb901538862" y="173.684792"/>
     <use style="fill:#9e0142;stroke:#000000;" x="197.126603" xlink:href="#mb901538862" y="224.26762"/>
     <use style="fill:#9e0142;stroke:#000000;" x="175.546479" xlink:href="#mb901538862" y="201.406637"/>
     <use style="fill:#9e0142;stroke:#000000;" x="153.627035" xlink:href="#mb901538862" y="166.510816"/>
     <use style="fill:#9e0142;stroke:#000000;" x="200.253726" xlink:href="#mb901538862" y="206.370597"/>
     <use style="fill:#9e0142;stroke:#000000;" x="189.672681" xlink:href="#mb901538862" y="164.760968"/>
     <use style="fill:#9e0142;stroke:#000000;" x="102.844727" xlink:href="#mb901538862" y="193.398855"/>
     <use style="fill:#9e0142;stroke:#000000;" x="121.796244" xlink:href="#mb901538862" y="158.473522"/>
     <use style="fill:#9e0142;stroke:#000000;" x="124.695287" xlink:href="#mb901538862" y="137.297877"/>
     <use style="fill:#9e0142;stroke:#000000;" x="130.709172" xlink:href="#mb901538862" y="196.518515"/>
     <use style="fill:#9e0142;stroke:#000000;" x="203.832273" xlink:href="#mb901538862" y="167.887124"/>
     <use style="fill:#9e0142;stroke:#000000;" x="103.00855" xlink:href="#mb901538862" y="177.93547"/>
     <use style="fill:#9e0142;stroke:#000000;" x="155.890383" xlink:href="#mb901538862" y="191.54263"/>
     <use style="fill:#9e0142;stroke:#000000;" x="142.163144" xlink:href="#mb901538862" y="170.095862"/>
     <use style="fill:#9e0142;stroke:#000000;" x="189.672681" xlink:href="#mb901538862" y="164.760969"/>
     <use style="fill:#9e0142;stroke:#000000;" x="172.182748" xlink:href="#mb901538862" y="154.086015"/>
     <use style="fill:#9e0142;stroke:#000000;" x="178.623061" xlink:href="#mb901538862" y="217.735734"/>
     <use style="fill:#9e0142;stroke:#000000;" x="187.587844" xlink:href="#mb901538862" y="219.944455"/>
     <use style="fill:#9e0142;stroke:#000000;" x="192.530494" xlink:href="#mb901538862" y="172.909903"/>
     <use style="fill:#9e0142;stroke:#000000;" x="124.143623" xlink:href="#mb901538862" y="177.223696"/>
     <use style="fill:#9e0142;stroke:#000000;" x="164.17056" xlink:href="#mb901538862" y="176.240296"/>
     <use style="fill:#9e0142;stroke:#000000;" x="220.821882" xlink:href="#mb901538862" y="189.084299"/>
     <use style="fill:#9e0142;stroke:#000000;" x="102.016709" xlink:href="#mb901538862" y="193.647644"/>
     <use style="fill:#9e0142;stroke:#000000;" x="136.915522" xlink:href="#mb901538862" y="195.465528"/>
     <use style="fill:#9e0142;stroke:#000000;" x="127.065024" xlink:href="#mb901538862" y="164.461912"/>
     <use style="fill:#9e0142;stroke:#000000;" x="174.574791" xlink:href="#mb901538862" y="182.334426"/>
     <use style="fill:#9e0142;stroke:#000000;" x="111.835186" xlink:href="#mb901538862" y="161.467092"/>
     <use style="fill:#9e0142;stroke:#000000;" x="147.658203" xlink:href="#mb901538862" y="210.52923"/>
     <use style="fill:#9e0142;stroke:#000000;" x="146.076578" xlink:href="#mb901538862" y="166.866434"/>
     <use style="fill:#9e0142;stroke:#000000;" x="196.494408" xlink:href="#mb901538862" y="180.822895"/>
     <use style="fill:#9e0142;stroke:#000000;" x="196.930555" xlink:href="#mb901538862" y="233.971045"/>
     <use style="fill:#9e0142;stroke:#000000;" x="214.498202" xlink:href="#mb901538862" y="202.290874"/>
     <use style="fill:#9e0142;stroke:#000000;" x="148.850084" xlink:href="#mb901538862" y="186.64469"/>
     <use style="fill:#9e0142;stroke:#000000;" x="192.528844" xlink:href="#mb901538862" y="172.902754"/>
     <use style="fill:#9e0142;stroke:#000000;" x="170.553744" xlink:href="#mb901538862" y="212.408214"/>
     <use style="fill:#9e0142;stroke:#000000;" x="180.87779" xlink:href="#mb901538862" y="177.033036"/>
     <use style="fill:#9e0142;stroke:#000000;" x="167.6319" xlink:href="#mb901538862" y="175.193199"/>
     <use style="fill:#9e0142;stroke:#000000;" x="308.339852" xlink:href="#mb901538862" y="138.009803"/>
     <use style="fill:#9e0142;stroke:#000000;" x="186.109573" xlink:href="#mb901538862" y="156.375585"/>
     <use style="fill:#9e0142;stroke:#000000;" x="162.690963" xlink:href="#mb901538862" y="187.732479"/>
    </g>
   </g>
   <g id="line2d_15">
    <defs>
     <path d="M 0 5 
C 1.326016 5 2.597899 4.473168 3.535534 3.535534 
C 4.473168 2.597899 5 1.326016 5 0 
C 5 -1.326016 4.473168 -2.597899 3.535534 -3.535534 
C 2.597899 -4.473168 1.326016 -5 0 -5 
C -1.326016 -5 -2.597899 -4.473168 -3.535534 -3.535534 
C -4.473168 -2.597899 -5 -1.326016 -5 0 
C -5 1.326016 -4.473168 2.597899 -3.535534 3.535534 
C -2.597899 4.473168 -1.326016 5 0 5 
z
" id="m3650a11dee" style="stroke:#000000;"/>
    </defs>
    <g clip-path="url(#p4e419bd102)">
     <use style="fill:#dd4a4c;stroke:#000000;" x="100.69874" xlink:href="#m3650a11dee" y="103.151578"/>
     <use style="fill:#dd4a4c;stroke:#000000;" x="159.041926" xlink:href="#m3650a11dee" y="135.53507"/>
     <use style="fill:#dd4a4c;stroke:#000000;" x="89.612787" xlink:href="#m3650a11dee" y="106.717124"/>
     <use style="fill:#dd4a4c;stroke:#000000;" x="156.747071" xlink:href="#m3650a11dee" y="116.955864"/>
     <use style="fill:#dd4a4c;stroke:#000000;" x="156.293346" xlink:href="#m3650a11dee" y="118.129073"/>
     <use style="fill:#dd4a4c;stroke:#000000;" x="214.39918" xlink:href="#m3650a11dee" y="219.35067"/>
     <use style="fill:#dd4a4c;stroke:#000000;" x="144.590198" xlink:href="#m3650a11dee" y="137.828784"/>
     <use style="fill:#dd4a4c;stroke:#000000;" x="159.037555" xlink:href="#m3650a11dee" y="135.542379"/>
     <use style="fill:#dd4a4c;stroke:#000000;" x="79.986207" xlink:href="#m3650a11dee" y="104.495843"/>
     <use style="fill:#dd4a4c;stroke:#000000;" x="218.706838" xlink:href="#m3650a11dee" y="212.556424"/>
     <use style="fill:#dd4a4c;stroke:#000000;" x="88.927418" xlink:href="#m3650a11dee" y="138.251068"/>
     <use style="fill:#dd4a4c;stroke:#000000;" x="208.744613" xlink:href="#m3650a11dee" y="216.900589"/>
     <use style="fill:#dd4a4c;stroke:#000000;" x="253.96418" xlink:href="#m3650a11dee" y="197.205486"/>
     <use style="fill:#dd4a4c;stroke:#000000;" x="88.173753" xlink:href="#m3650a11dee" y="136.40685"/>
     <use style="fill:#dd4a4c;stroke:#000000;" x="84.831188" xlink:href="#m3650a11dee" y="136.799315"/>
     <use style="fill:#dd4a4c;stroke:#000000;" x="210.171859" xlink:href="#m3650a11dee" y="216.429442"/>
     <use style="fill:#dd4a4c;stroke:#000000;" x="85.840658" xlink:href="#m3650a11dee" y="138.824665"/>
     <use style="fill:#dd4a4c;stroke:#000000;" x="220.459419" xlink:href="#m3650a11dee" y="221.80984"/>
     <use style="fill:#dd4a4c;stroke:#000000;" x="79.485244" xlink:href="#m3650a11dee" y="109.621421"/>
     <use style="fill:#dd4a4c;stroke:#000000;" x="89.590736" xlink:href="#m3650a11dee" y="106.705901"/>
     <use style="fill:#dd4a4c;stroke:#000000;" x="132.269905" xlink:href="#m3650a11dee" y="124.843107"/>
     <use style="fill:#dd4a4c;stroke:#000000;" x="146.984422" xlink:href="#m3650a11dee" y="133.176674"/>
     <use style="fill:#dd4a4c;stroke:#000000;" x="85.243566" xlink:href="#m3650a11dee" y="102.0913"/>
     <use style="fill:#dd4a4c;stroke:#000000;" x="141.02329" xlink:href="#m3650a11dee" y="143.074186"/>
     <use style="fill:#dd4a4c;stroke:#000000;" x="153.324718" xlink:href="#m3650a11dee" y="124.824542"/>
     <use style="fill:#dd4a4c;stroke:#000000;" x="92.728689" xlink:href="#m3650a11dee" y="110.773799"/>
     <use style="fill:#dd4a4c;stroke:#000000;" x="144.006396" xlink:href="#m3650a11dee" y="130.883342"/>
     <use style="fill:#dd4a4c;stroke:#000000;" x="214.901011" xlink:href="#m3650a11dee" y="213.315658"/>
    </g>
   </g>
   <g id="line2d_16">
    <defs>
     <path d="M 0 5 
C 1.326016 5 2.597899 4.473168 3.535534 3.535534 
C 4.473168 2.597899 5 1.326016 5 0 
C 5 -1.326016 4.473168 -2.597899 3.535534 -3.535534 
C 2.597899 -4.473168 1.326016 -5 0 -5 
C -1.326016 -5 -2.597899 -4.473168 -3.535534 -3.535534 
C -4.473168 -2.597899 -5 -1.326016 -5 0 
C -5 1.326016 -4.473168 2.597899 -3.535534 3.535534 
C -2.597899 4.473168 -1.326016 5 0 5 
z
" id="me66d4d0680" style="stroke:#000000;"/>
    </defs>
    <g clip-path="url(#p4e419bd102)">
     <use style="fill:#f98e52;stroke:#000000;" x="276.351871" xlink:href="#me66d4d0680" y="174.766629"/>
     <use style="fill:#f98e52;stroke:#000000;" x="278.872387" xlink:href="#me66d4d0680" y="155.230875"/>
     <use style="fill:#f98e52;stroke:#000000;" x="269.763653" xlink:href="#me66d4d0680" y="167.315621"/>
     <use style="fill:#f98e52;stroke:#000000;" x="276.352071" xlink:href="#me66d4d0680" y="174.761112"/>
     <use style="fill:#f98e52;stroke:#000000;" x="251.189135" xlink:href="#me66d4d0680" y="143.241801"/>
     <use style="fill:#f98e52;stroke:#000000;" x="305.590616" xlink:href="#me66d4d0680" y="180.907638"/>
     <use style="fill:#f98e52;stroke:#000000;" x="309.407714" xlink:href="#me66d4d0680" y="183.450694"/>
     <use style="fill:#f98e52;stroke:#000000;" x="239.920546" xlink:href="#me66d4d0680" y="170.644041"/>
     <use style="fill:#f98e52;stroke:#000000;" x="274.516281" xlink:href="#me66d4d0680" y="154.430757"/>
     <use style="fill:#f98e52;stroke:#000000;" x="285.679645" xlink:href="#me66d4d0680" y="152.732325"/>
     <use style="fill:#f98e52;stroke:#000000;" x="272.422009" xlink:href="#me66d4d0680" y="150.026404"/>
     <use style="fill:#f98e52;stroke:#000000;" x="183.669892" xlink:href="#me66d4d0680" y="140.514239"/>
     <use style="fill:#f98e52;stroke:#000000;" x="270.773161" xlink:href="#me66d4d0680" y="158.035176"/>
     <use style="fill:#f98e52;stroke:#000000;" x="127.969531" xlink:href="#me66d4d0680" y="119.271093"/>
     <use style="fill:#f98e52;stroke:#000000;" x="301.010067" xlink:href="#me66d4d0680" y="187.445547"/>
     <use style="fill:#f98e52;stroke:#000000;" x="271.843084" xlink:href="#me66d4d0680" y="147.978554"/>
     <use style="fill:#f98e52;stroke:#000000;" x="283.004158" xlink:href="#me66d4d0680" y="140.747573"/>
     <use style="fill:#f98e52;stroke:#000000;" x="300.469683" xlink:href="#me66d4d0680" y="165.2358"/>
     <use style="fill:#f98e52;stroke:#000000;" x="233.314343" xlink:href="#me66d4d0680" y="166.219849"/>
     <use style="fill:#f98e52;stroke:#000000;" x="255.654334" xlink:href="#me66d4d0680" y="165.181937"/>
     <use style="fill:#f98e52;stroke:#000000;" x="270.774333" xlink:href="#me66d4d0680" y="158.034797"/>
     <use style="fill:#f98e52;stroke:#000000;" x="295.552306" xlink:href="#me66d4d0680" y="164.353572"/>
     <use style="fill:#f98e52;stroke:#000000;" x="251.630711" xlink:href="#me66d4d0680" y="146.60107"/>
     <use style="fill:#f98e52;stroke:#000000;" x="259.253953" xlink:href="#me66d4d0680" y="173.739727"/>
     <use style="fill:#f98e52;stroke:#000000;" x="231.367467" xlink:href="#me66d4d0680" y="119.861102"/>
     <use style="fill:#f98e52;stroke:#000000;" x="264.362654" xlink:href="#me66d4d0680" y="168.488889"/>
     <use style="fill:#f98e52;stroke:#000000;" x="306.251474" xlink:href="#me66d4d0680" y="182.777915"/>
     <use style="fill:#f98e52;stroke:#000000;" x="78.248193" xlink:href="#me66d4d0680" y="162.932362"/>
     <use style="fill:#f98e52;stroke:#000000;" x="259.123602" xlink:href="#me66d4d0680" y="160.260348"/>
     <use style="fill:#f98e52;stroke:#000000;" x="233.310409" xlink:href="#me66d4d0680" y="166.216703"/>
     <use style="fill:#f98e52;stroke:#000000;" x="262.548431" xlink:href="#me66d4d0680" y="153.494647"/>
     <use style="fill:#f98e52;stroke:#000000;" x="280.891952" xlink:href="#me66d4d0680" y="161.008459"/>
     <use style="fill:#f98e52;stroke:#000000;" x="266.13784" xlink:href="#me66d4d0680" y="188.962606"/>
    </g>
   </g>
   <g id="line2d_17">
    <defs>
     <path d="M 0 5 
C 1.326016 5 2.597899 4.473168 3.535534 3.535534 
C 4.473168 2.597899 5 1.326016 5 0 
C 5 -1.326016 4.473168 -2.597899 3.535534 -3.535534 
C 2.597899 -4.473168 1.326016 -5 0 -5 
C -1.326016 -5 -2.597899 -4.473168 -3.535534 -3.535534 
C -4.473168 -2.597899 -5 -1.326016 -5 0 
C -5 1.326016 -4.473168 2.597899 -3.535534 3.535534 
C -2.597899 4.473168 -1.326016 5 0 5 
z
" id="mf49b993a93" style="stroke:#000000;"/>
    </defs>
    <g clip-path="url(#p4e419bd102)">
     <use style="fill:#fed481;stroke:#000000;" x="215.827699" xlink:href="#mf49b993a93" y="148.186973"/>
     <use style="fill:#fed481;stroke:#000000;" x="293.078518" xlink:href="#mf49b993a93" y="233.916505"/>
     <use style="fill:#fed481;stroke:#000000;" x="294.704653" xlink:href="#mf49b993a93" y="226.630204"/>
     <use style="fill:#fed481;stroke:#000000;" x="278.532948" xlink:href="#mf49b993a93" y="197.960678"/>
     <use style="fill:#fed481;stroke:#000000;" x="195.001397" xlink:href="#mf49b993a93" y="115.53824"/>
     <use style="fill:#fed481;stroke:#000000;" x="271.712695" xlink:href="#mf49b993a93" y="226.241061"/>
     <use style="fill:#fed481;stroke:#000000;" x="322.36532" xlink:href="#mf49b993a93" y="158.131112"/>
     <use style="fill:#fed481;stroke:#000000;" x="309.529972" xlink:href="#mf49b993a93" y="240.08475"/>
     <use style="fill:#fed481;stroke:#000000;" x="293.062804" xlink:href="#mf49b993a93" y="233.909819"/>
     <use style="fill:#fed481;stroke:#000000;" x="224.022194" xlink:href="#mf49b993a93" y="142.791847"/>
     <use style="fill:#fed481;stroke:#000000;" x="246.964838" xlink:href="#mf49b993a93" y="201.404793"/>
     <use style="fill:#fed481;stroke:#000000;" x="288.317164" xlink:href="#mf49b993a93" y="229.154456"/>
     <use style="fill:#fed481;stroke:#000000;" x="298.505315" xlink:href="#mf49b993a93" y="215.644666"/>
     <use style="fill:#fed481;stroke:#000000;" x="261.860216" xlink:href="#mf49b993a93" y="197.18474"/>
     <use style="fill:#fed481;stroke:#000000;" x="192.082248" xlink:href="#mf49b993a93" y="107.793721"/>
     <use style="fill:#fed481;stroke:#000000;" x="271.712695" xlink:href="#mf49b993a93" y="226.241061"/>
     <use style="fill:#fed481;stroke:#000000;" x="297.097984" xlink:href="#mf49b993a93" y="229.329632"/>
     <use style="fill:#fed481;stroke:#000000;" x="316.09513" xlink:href="#mf49b993a93" y="236.966471"/>
     <use style="fill:#fed481;stroke:#000000;" x="298.503479" xlink:href="#mf49b993a93" y="215.643827"/>
     <use style="fill:#fed481;stroke:#000000;" x="307.757344" xlink:href="#mf49b993a93" y="231.72036"/>
     <use style="fill:#fed481;stroke:#000000;" x="192.243835" xlink:href="#mf49b993a93" y="108.152214"/>
     <use style="fill:#fed481;stroke:#000000;" x="200.970837" xlink:href="#mf49b993a93" y="125.112341"/>
     <use style="fill:#fed481;stroke:#000000;" x="200.975824" xlink:href="#mf49b993a93" y="125.100203"/>
     <use style="fill:#fed481;stroke:#000000;" x="235.388317" xlink:href="#mf49b993a93" y="143.854824"/>
     <use style="fill:#fed481;stroke:#000000;" x="314.733752" xlink:href="#mf49b993a93" y="239.618422"/>
     <use style="fill:#fed481;stroke:#000000;" x="217.02595" xlink:href="#mf49b993a93" y="147.566001"/>
     <use style="fill:#fed481;stroke:#000000;" x="297.576664" xlink:href="#mf49b993a93" y="242.296305"/>
     <use style="fill:#fed481;stroke:#000000;" x="195.619697" xlink:href="#mf49b993a93" y="125.422938"/>
     <use style="fill:#fed481;stroke:#000000;" x="193.561685" xlink:href="#mf49b993a93" y="111.525817"/>
    </g>
   </g>
   <g id="line2d_18">
    <defs>
     <path d="M 0 5 
C 1.326016 5 2.597899 4.473168 3.535534 3.535534 
C 4.473168 2.597899 5 1.326016 5 0 
C 5 -1.326016 4.473168 -2.597899 3.535534 -3.535534 
C 2.597899 -4.473168 1.326016 -5 0 -5 
C -1.326016 -5 -2.597899 -4.473168 -3.535534 -3.535534 
C -4.473168 -2.597899 -5 -1.326016 -5 0 
C -5 1.326016 -4.473168 2.597899 -3.535534 3.535534 
C -2.597899 4.473168 -1.326016 5 0 5 
z
" id="ma92b2ec32d" style="stroke:#000000;"/>
    </defs>
    <g clip-path="url(#p4e419bd102)">
     <use style="fill:#ffffbe;stroke:#000000;" x="265.21001" xlink:href="#ma92b2ec32d" y="267.617201"/>
     <use style="fill:#ffffbe;stroke:#000000;" x="232.553367" xlink:href="#ma92b2ec32d" y="268.843973"/>
     <use style="fill:#ffffbe;stroke:#000000;" x="255.8981" xlink:href="#ma92b2ec32d" y="273.903125"/>
     <use style="fill:#ffffbe;stroke:#000000;" x="249.1324" xlink:href="#ma92b2ec32d" y="288.349635"/>
     <use style="fill:#ffffbe;stroke:#000000;" x="257.247503" xlink:href="#ma92b2ec32d" y="269.094925"/>
     <use style="fill:#ffffbe;stroke:#000000;" x="263.103211" xlink:href="#ma92b2ec32d" y="258.434115"/>
     <use style="fill:#ffffbe;stroke:#000000;" x="245.840004" xlink:href="#ma92b2ec32d" y="278.757141"/>
     <use style="fill:#ffffbe;stroke:#000000;" x="234.451891" xlink:href="#ma92b2ec32d" y="281.093293"/>
     <use style="fill:#ffffbe;stroke:#000000;" x="265.34019" xlink:href="#ma92b2ec32d" y="250.495338"/>
     <use style="fill:#ffffbe;stroke:#000000;" x="283.277937" xlink:href="#ma92b2ec32d" y="267.388149"/>
     <use style="fill:#ffffbe;stroke:#000000;" x="268.898881" xlink:href="#ma92b2ec32d" y="253.560873"/>
     <use style="fill:#ffffbe;stroke:#000000;" x="238.885011" xlink:href="#ma92b2ec32d" y="272.839551"/>
     <use style="fill:#ffffbe;stroke:#000000;" x="236.666621" xlink:href="#ma92b2ec32d" y="269.856422"/>
     <use style="fill:#ffffbe;stroke:#000000;" x="144.68852" xlink:href="#ma92b2ec32d" y="98.901941"/>
     <use style="fill:#ffffbe;stroke:#000000;" x="228.839423" xlink:href="#ma92b2ec32d" y="295.488"/>
     <use style="fill:#ffffbe;stroke:#000000;" x="251.53276" xlink:href="#ma92b2ec32d" y="265.340074"/>
     <use style="fill:#ffffbe;stroke:#000000;" x="248.516217" xlink:href="#ma92b2ec32d" y="282.849609"/>
     <use style="fill:#ffffbe;stroke:#000000;" x="256.496105" xlink:href="#ma92b2ec32d" y="283.18487"/>
     <use style="fill:#ffffbe;stroke:#000000;" x="257.84215" xlink:href="#ma92b2ec32d" y="264.958215"/>
     <use style="fill:#ffffbe;stroke:#000000;" x="227.223789" xlink:href="#ma92b2ec32d" y="291.765398"/>
     <use style="fill:#ffffbe;stroke:#000000;" x="283.27878" xlink:href="#ma92b2ec32d" y="267.380959"/>
     <use style="fill:#ffffbe;stroke:#000000;" x="275.902579" xlink:href="#ma92b2ec32d" y="251.907634"/>
     <use style="fill:#ffffbe;stroke:#000000;" x="242.376747" xlink:href="#ma92b2ec32d" y="262.160214"/>
     <use style="fill:#ffffbe;stroke:#000000;" x="221.289071" xlink:href="#ma92b2ec32d" y="287.912289"/>
     <use style="fill:#ffffbe;stroke:#000000;" x="230.450664" xlink:href="#ma92b2ec32d" y="276.684996"/>
     <use style="fill:#ffffbe;stroke:#000000;" x="245.834341" xlink:href="#ma92b2ec32d" y="278.756843"/>
     <use style="fill:#ffffbe;stroke:#000000;" x="245.800506" xlink:href="#ma92b2ec32d" y="245.999913"/>
    </g>
   </g>
   <g id="line2d_19">
    <defs>
     <path d="M 0 5 
C 1.326016 5 2.597899 4.473168 3.535534 3.535534 
C 4.473168 2.597899 5 1.326016 5 0 
C 5 -1.326016 4.473168 -2.597899 3.535534 -3.535534 
C 2.597899 -4.473168 1.326016 -5 0 -5 
C -1.326016 -5 -2.597899 -4.473168 -3.535534 -3.535534 
C -4.473168 -2.597899 -5 -1.326016 -5 0 
C -5 1.326016 -4.473168 2.597899 -3.535534 3.535534 
C -2.597899 4.473168 -1.326016 5 0 5 
z
" id="m679d203414" style="stroke:#000000;"/>
    </defs>
    <g clip-path="url(#p4e419bd102)">
     <use style="fill:#d6ee9b;stroke:#000000;" x="354.325961" xlink:href="#m679d203414" y="146.118506"/>
     <use style="fill:#d6ee9b;stroke:#000000;" x="387.992562" xlink:href="#m679d203414" y="153.975601"/>
     <use style="fill:#d6ee9b;stroke:#000000;" x="358.68769" xlink:href="#m679d203414" y="140.470845"/>
     <use style="fill:#d6ee9b;stroke:#000000;" x="352.003787" xlink:href="#m679d203414" y="154.481075"/>
     <use style="fill:#d6ee9b;stroke:#000000;" x="342.76328" xlink:href="#m679d203414" y="162.066247"/>
     <use style="fill:#d6ee9b;stroke:#000000;" x="344.952642" xlink:href="#m679d203414" y="167.96623"/>
     <use style="fill:#d6ee9b;stroke:#000000;" x="367.74108" xlink:href="#m679d203414" y="152.405483"/>
     <use style="fill:#d6ee9b;stroke:#000000;" x="362.746268" xlink:href="#m679d203414" y="157.257675"/>
     <use style="fill:#d6ee9b;stroke:#000000;" x="388.361607" xlink:href="#m679d203414" y="159.698025"/>
     <use style="fill:#d6ee9b;stroke:#000000;" x="398.487273" xlink:href="#m679d203414" y="151.305096"/>
     <use style="fill:#d6ee9b;stroke:#000000;" x="337.075965" xlink:href="#m679d203414" y="154.991246"/>
     <use style="fill:#d6ee9b;stroke:#000000;" x="387.991545" xlink:href="#m679d203414" y="153.973203"/>
     <use style="fill:#d6ee9b;stroke:#000000;" x="385.954418" xlink:href="#m679d203414" y="148.122221"/>
     <use style="fill:#d6ee9b;stroke:#000000;" x="359.053497" xlink:href="#m679d203414" y="157.783477"/>
     <use style="fill:#d6ee9b;stroke:#000000;" x="352.036375" xlink:href="#m679d203414" y="154.421235"/>
     <use style="fill:#d6ee9b;stroke:#000000;" x="364.533313" xlink:href="#m679d203414" y="166.620212"/>
     <use style="fill:#d6ee9b;stroke:#000000;" x="341.811269" xlink:href="#m679d203414" y="146.28452"/>
     <use style="fill:#d6ee9b;stroke:#000000;" x="346.47126" xlink:href="#m679d203414" y="154.704644"/>
     <use style="fill:#d6ee9b;stroke:#000000;" x="371.787319" xlink:href="#m679d203414" y="162.804146"/>
     <use style="fill:#d6ee9b;stroke:#000000;" x="388.416871" xlink:href="#m679d203414" y="159.707323"/>
     <use style="fill:#d6ee9b;stroke:#000000;" x="324.819163" xlink:href="#m679d203414" y="158.849969"/>
    </g>
   </g>
   <g id="line2d_20">
    <defs>
     <path d="M 0 5 
C 1.326016 5 2.597899 4.473168 3.535534 3.535534 
C 4.473168 2.597899 5 1.326016 5 0 
C 5 -1.326016 4.473168 -2.597899 3.535534 -3.535534 
C 2.597899 -4.473168 1.326016 -5 0 -5 
C -1.326016 -5 -2.597899 -4.473168 -3.535534 -3.535534 
C -4.473168 -2.597899 -5 -1.326016 -5 0 
C -5 1.326016 -4.473168 2.597899 -3.535534 3.535534 
C -2.597899 4.473168 -1.326016 5 0 5 
z
" id="mcf4d777da8" style="stroke:#000000;"/>
    </defs>
    <g clip-path="url(#p4e419bd102)">
     <use style="fill:#86cfa5;stroke:#000000;" x="283.760734" xlink:href="#mcf4d777da8" y="118.832214"/>
     <use style="fill:#86cfa5;stroke:#000000;" x="335.746967" xlink:href="#mcf4d777da8" y="218.028285"/>
     <use style="fill:#86cfa5;stroke:#000000;" x="126.861731" xlink:href="#mcf4d777da8" y="240.573873"/>
     <use style="fill:#86cfa5;stroke:#000000;" x="218.632718" xlink:href="#mcf4d777da8" y="78.641364"/>
     <use style="fill:#86cfa5;stroke:#000000;" x="260.376672" xlink:href="#mcf4d777da8" y="115.784594"/>
     <use style="fill:#86cfa5;stroke:#000000;" x="168.33529" xlink:href="#mcf4d777da8" y="76.731891"/>
     <use style="fill:#86cfa5;stroke:#000000;" x="118.271777" xlink:href="#mcf4d777da8" y="231.151577"/>
     <use style="fill:#86cfa5;stroke:#000000;" x="127.133746" xlink:href="#mcf4d777da8" y="245.243749"/>
     <use style="fill:#86cfa5;stroke:#000000;" x="127.427862" xlink:href="#mcf4d777da8" y="238.344466"/>
     <use style="fill:#86cfa5;stroke:#000000;" x="241.792304" xlink:href="#mcf4d777da8" y="102.753475"/>
     <use style="fill:#86cfa5;stroke:#000000;" x="133.991242" xlink:href="#mcf4d777da8" y="230.42564"/>
     <use style="fill:#86cfa5;stroke:#000000;" x="392.462525" xlink:href="#mcf4d777da8" y="194.004785"/>
     <use style="fill:#86cfa5;stroke:#000000;" x="109.822028" xlink:href="#mcf4d777da8" y="231.502643"/>
     <use style="fill:#86cfa5;stroke:#000000;" x="275.910063" xlink:href="#mcf4d777da8" y="115.421214"/>
     <use style="fill:#86cfa5;stroke:#000000;" x="254.173771" xlink:href="#mcf4d777da8" y="197.186106"/>
     <use style="fill:#86cfa5;stroke:#000000;" x="255.021497" xlink:href="#mcf4d777da8" y="112.279595"/>
     <use style="fill:#86cfa5;stroke:#000000;" x="261.997254" xlink:href="#mcf4d777da8" y="121.924921"/>
     <use style="fill:#86cfa5;stroke:#000000;" x="351.774955" xlink:href="#mcf4d777da8" y="211.915202"/>
     <use style="fill:#86cfa5;stroke:#000000;" x="292.351697" xlink:href="#mcf4d777da8" y="71.124154"/>
     <use style="fill:#86cfa5;stroke:#000000;" x="123.005871" xlink:href="#mcf4d777da8" y="232.10313"/>
     <use style="fill:#86cfa5;stroke:#000000;" x="345.684924" xlink:href="#mcf4d777da8" y="211.987713"/>
     <use style="fill:#86cfa5;stroke:#000000;" x="357.300883" xlink:href="#mcf4d777da8" y="210.112201"/>
     <use style="fill:#86cfa5;stroke:#000000;" x="218.66815" xlink:href="#mcf4d777da8" y="78.636787"/>
     <use style="fill:#86cfa5;stroke:#000000;" x="260.383249" xlink:href="#mcf4d777da8" y="115.756799"/>
     <use style="fill:#86cfa5;stroke:#000000;" x="172.81715" xlink:href="#mcf4d777da8" y="81.027231"/>
     <use style="fill:#86cfa5;stroke:#000000;" x="347.747522" xlink:href="#mcf4d777da8" y="211.473449"/>
     <use style="fill:#86cfa5;stroke:#000000;" x="240.098318" xlink:href="#mcf4d777da8" y="114.180103"/>
     <use style="fill:#86cfa5;stroke:#000000;" x="112.915237" xlink:href="#mcf4d777da8" y="224.613143"/>
     <use style="fill:#86cfa5;stroke:#000000;" x="265.371731" xlink:href="#mcf4d777da8" y="107.146775"/>
     <use style="fill:#86cfa5;stroke:#000000;" x="265.808938" xlink:href="#mcf4d777da8" y="130.46118"/>
     <use style="fill:#86cfa5;stroke:#000000;" x="230.077901" xlink:href="#mcf4d777da8" y="135.365621"/>
     <use style="fill:#86cfa5;stroke:#000000;" x="173.254157" xlink:href="#mcf4d777da8" y="81.403557"/>
     <use style="fill:#86cfa5;stroke:#000000;" x="278.824878" xlink:href="#mcf4d777da8" y="112.480436"/>
    </g>
   </g>
   <g id="line2d_21">
    <defs>
     <path d="M 0 5 
C 1.326016 5 2.597899 4.473168 3.535534 3.535534 
C 4.473168 2.597899 5 1.326016 5 0 
C 5 -1.326016 4.473168 -2.597899 3.535534 -3.535534 
C 2.597899 -4.473168 1.326016 -5 0 -5 
C -1.326016 -5 -2.597899 -4.473168 -3.535534 -3.535534 
C -4.473168 -2.597899 -5 -1.326016 -5 0 
C -5 1.326016 -4.473168 2.597899 -3.535534 3.535534 
C -2.597899 4.473168 -1.326016 5 0 5 
z
" id="m75dc0ef83a" style="stroke:#000000;"/>
    </defs>
    <g clip-path="url(#p4e419bd102)">
     <use style="fill:#3d95b8;stroke:#000000;" x="285.365923" xlink:href="#m75dc0ef83a" y="92.231015"/>
     <use style="fill:#3d95b8;stroke:#000000;" x="329.564069" xlink:href="#m75dc0ef83a" y="67.69544"/>
     <use style="fill:#3d95b8;stroke:#000000;" x="285.020135" xlink:href="#m75dc0ef83a" y="103.546542"/>
     <use style="fill:#3d95b8;stroke:#000000;" x="287.168329" xlink:href="#m75dc0ef83a" y="105.879788"/>
     <use style="fill:#3d95b8;stroke:#000000;" x="329.776299" xlink:href="#m75dc0ef83a" y="59.969535"/>
     <use style="fill:#3d95b8;stroke:#000000;" x="291.937663" xlink:href="#m75dc0ef83a" y="84.464226"/>
     <use style="fill:#3d95b8;stroke:#000000;" x="324.430888" xlink:href="#m75dc0ef83a" y="63.524877"/>
     <use style="fill:#3d95b8;stroke:#000000;" x="278.412988" xlink:href="#m75dc0ef83a" y="94.439181"/>
     <use style="fill:#3d95b8;stroke:#000000;" x="300.935781" xlink:href="#m75dc0ef83a" y="106.120541"/>
     <use style="fill:#3d95b8;stroke:#000000;" x="278.415049" xlink:href="#m75dc0ef83a" y="94.435714"/>
     <use style="fill:#3d95b8;stroke:#000000;" x="326.728217" xlink:href="#m75dc0ef83a" y="68.382174"/>
     <use style="fill:#3d95b8;stroke:#000000;" x="264.357018" xlink:href="#m75dc0ef83a" y="92.521483"/>
     <use style="fill:#3d95b8;stroke:#000000;" x="294.95803" xlink:href="#m75dc0ef83a" y="89.38761"/>
     <use style="fill:#3d95b8;stroke:#000000;" x="321.38606" xlink:href="#m75dc0ef83a" y="67.292699"/>
     <use style="fill:#3d95b8;stroke:#000000;" x="269.936908" xlink:href="#m75dc0ef83a" y="99.285487"/>
     <use style="fill:#3d95b8;stroke:#000000;" x="274.945232" xlink:href="#m75dc0ef83a" y="86.938563"/>
     <use style="fill:#3d95b8;stroke:#000000;" x="297.215762" xlink:href="#m75dc0ef83a" y="98.054653"/>
     <use style="fill:#3d95b8;stroke:#000000;" x="319.736949" xlink:href="#m75dc0ef83a" y="93.025301"/>
     <use style="fill:#3d95b8;stroke:#000000;" x="281.861208" xlink:href="#m75dc0ef83a" y="99.34192"/>
    </g>
   </g>
   <g id="line2d_22">
    <defs>
     <path d="M 0 5 
C 1.326016 5 2.597899 4.473168 3.535534 3.535534 
C 4.473168 2.597899 5 1.326016 5 0 
C 5 -1.326016 4.473168 -2.597899 3.535534 -3.535534 
C 2.597899 -4.473168 1.326016 -5 0 -5 
C -1.326016 -5 -2.597899 -4.473168 -3.535534 -3.535534 
C -4.473168 -2.597899 -5 -1.326016 -5 0 
C -5 1.326016 -4.473168 2.597899 -3.535534 3.535534 
C -2.597899 4.473168 -1.326016 5 0 5 
z
" id="m7ffde5bd50" style="stroke:#000000;"/>
    </defs>
    <g clip-path="url(#p4e419bd102)">
     <use style="fill:#5e4fa2;stroke:#000000;" x="319.711678" xlink:href="#m7ffde5bd50" y="183.491789"/>
     <use style="fill:#5e4fa2;stroke:#000000;" x="289.5636" xlink:href="#m7ffde5bd50" y="134.138513"/>
     <use style="fill:#5e4fa2;stroke:#000000;" x="333.906768" xlink:href="#m7ffde5bd50" y="117.990599"/>
     <use style="fill:#5e4fa2;stroke:#000000;" x="276.629104" xlink:href="#m7ffde5bd50" y="68.613448"/>
     <use style="fill:#5e4fa2;stroke:#000000;" x="265.151" xlink:href="#m7ffde5bd50" y="73.847545"/>
     <use style="fill:#5e4fa2;stroke:#000000;" x="235.271839" xlink:href="#m7ffde5bd50" y="70.125416"/>
     <use style="fill:#5e4fa2;stroke:#000000;" x="350.277904" xlink:href="#m7ffde5bd50" y="107.903968"/>
     <use style="fill:#5e4fa2;stroke:#000000;" x="392.568848" xlink:href="#m7ffde5bd50" y="193.965961"/>
     <use style="fill:#5e4fa2;stroke:#000000;" x="254.189299" xlink:href="#m7ffde5bd50" y="70.714294"/>
     <use style="fill:#5e4fa2;stroke:#000000;" x="351.517006" xlink:href="#m7ffde5bd50" y="99.875301"/>
     <use style="fill:#5e4fa2;stroke:#000000;" x="323.720832" xlink:href="#m7ffde5bd50" y="117.884246"/>
     <use style="fill:#5e4fa2;stroke:#000000;" x="266.524972" xlink:href="#m7ffde5bd50" y="74.628566"/>
     <use style="fill:#5e4fa2;stroke:#000000;" x="263.091468" xlink:href="#m7ffde5bd50" y="60.65952"/>
     <use style="fill:#5e4fa2;stroke:#000000;" x="322.606349" xlink:href="#m7ffde5bd50" y="94.708572"/>
     <use style="fill:#5e4fa2;stroke:#000000;" x="306.099656" xlink:href="#m7ffde5bd50" y="150.535198"/>
     <use style="fill:#5e4fa2;stroke:#000000;" x="273.659326" xlink:href="#m7ffde5bd50" y="67.496538"/>
     <use style="fill:#5e4fa2;stroke:#000000;" x="323.508578" xlink:href="#m7ffde5bd50" y="184.06608"/>
     <use style="fill:#5e4fa2;stroke:#000000;" x="341.861302" xlink:href="#m7ffde5bd50" y="118.285013"/>
     <use style="fill:#5e4fa2;stroke:#000000;" x="262.813746" xlink:href="#m7ffde5bd50" y="65.162073"/>
     <use style="fill:#5e4fa2;stroke:#000000;" x="234.981782" xlink:href="#m7ffde5bd50" y="69.969286"/>
     <use style="fill:#5e4fa2;stroke:#000000;" x="274.456416" xlink:href="#m7ffde5bd50" y="66.937286"/>
     <use style="fill:#5e4fa2;stroke:#000000;" x="325.627258" xlink:href="#m7ffde5bd50" y="106.231518"/>
     <use style="fill:#5e4fa2;stroke:#000000;" x="265.117528" xlink:href="#m7ffde5bd50" y="72.381723"/>
     <use style="fill:#5e4fa2;stroke:#000000;" x="336.121426" xlink:href="#m7ffde5bd50" y="117.600017"/>
     <use style="fill:#5e4fa2;stroke:#000000;" x="279.842907" xlink:href="#m7ffde5bd50" y="53.568"/>
     <use style="fill:#5e4fa2;stroke:#000000;" x="274.317054" xlink:href="#m7ffde5bd50" y="73.760181"/>
     <use style="fill:#5e4fa2;stroke:#000000;" x="324.039727" xlink:href="#m7ffde5bd50" y="125.263703"/>
     <use style="fill:#5e4fa2;stroke:#000000;" x="352.352983" xlink:href="#m7ffde5bd50" y="98.835309"/>
    </g>
   </g>
   <g id="patch_3">
    <path d="M 57.6 307.584 
L 57.6 41.472 
" style="fill:none;stroke:#000000;stroke-linecap:square;stroke-linejoin:miter;stroke-width:0.8;"/>
   </g>
   <g id="patch_4">
    <path d="M 414.72 307.584 
L 414.72 41.472 
" style="fill:none;stroke:#000000;stroke-linecap:square;stroke-linejoin:miter;stroke-width:0.8;"/>
   </g>
   <g id="patch_5">
    <path d="M 57.6 307.584 
L 414.72 307.584 
" style="fill:none;stroke:#000000;stroke-linecap:square;stroke-linejoin:miter;stroke-width:0.8;"/>
   </g>
   <g id="patch_6">
    <path d="M 57.6 41.472 
L 414.72 41.472 
" style="fill:none;stroke:#000000;stroke-linecap:square;stroke-linejoin:miter;stroke-width:0.8;"/>
   </g>
   <g id="text_14">
    <!-- SOMSCWrapper Number of clusters: 9 -->
    <defs>
     <path d="M 53.515625 70.515625 
L 53.515625 60.890625 
Q 47.90625 63.578125 42.921875 64.890625 
Q 37.9375 66.21875 33.296875 66.21875 
Q 25.25 66.21875 20.875 63.09375 
Q 16.5 59.96875 16.5 54.203125 
Q 16.5 49.359375 19.40625 46.890625 
Q 22.3125 44.4375 30.421875 42.921875 
L 36.375 41.703125 
Q 47.40625 39.59375 52.65625 34.296875 
Q 57.90625 29 57.90625 20.125 
Q 57.90625 9.515625 50.796875 4.046875 
Q 43.703125 -1.421875 29.984375 -1.421875 
Q 24.8125 -1.421875 18.96875 -0.25 
Q 13.140625 0.921875 6.890625 3.21875 
L 6.890625 13.375 
Q 12.890625 10.015625 18.65625 8.296875 
Q 24.421875 6.59375 29.984375 6.59375 
Q 38.421875 6.59375 43.015625 9.90625 
Q 47.609375 13.234375 47.609375 19.390625 
Q 47.609375 24.75 44.3125 27.78125 
Q 41.015625 30.8125 33.5 32.328125 
L 27.484375 33.5 
Q 16.453125 35.6875 11.515625 40.375 
Q 6.59375 45.0625 6.59375 53.421875 
Q 6.59375 63.09375 13.40625 68.65625 
Q 20.21875 74.21875 32.171875 74.21875 
Q 37.3125 74.21875 42.625 73.28125 
Q 47.953125 72.359375 53.515625 70.515625 
z
" id="DejaVuSans-83"/>
     <path d="M 39.40625 66.21875 
Q 28.65625 66.21875 22.328125 58.203125 
Q 16.015625 50.203125 16.015625 36.375 
Q 16.015625 22.609375 22.328125 14.59375 
Q 28.65625 6.59375 39.40625 6.59375 
Q 50.140625 6.59375 56.421875 14.59375 
Q 62.703125 22.609375 62.703125 36.375 
Q 62.703125 50.203125 56.421875 58.203125 
Q 50.140625 66.21875 39.40625 66.21875 
z
M 39.40625 74.21875 
Q 54.734375 74.21875 63.90625 63.9375 
Q 73.09375 53.65625 73.09375 36.375 
Q 73.09375 19.140625 63.90625 8.859375 
Q 54.734375 -1.421875 39.40625 -1.421875 
Q 24.03125 -1.421875 14.8125 8.828125 
Q 5.609375 19.09375 5.609375 36.375 
Q 5.609375 53.65625 14.8125 63.9375 
Q 24.03125 74.21875 39.40625 74.21875 
z
" id="DejaVuSans-79"/>
     <path d="M 9.8125 72.90625 
L 24.515625 72.90625 
L 43.109375 23.296875 
L 61.8125 72.90625 
L 76.515625 72.90625 
L 76.515625 0 
L 66.890625 0 
L 66.890625 64.015625 
L 48.09375 14.015625 
L 38.1875 14.015625 
L 19.390625 64.015625 
L 19.390625 0 
L 9.8125 0 
z
" id="DejaVuSans-77"/>
     <path d="M 64.40625 67.28125 
L 64.40625 56.890625 
Q 59.421875 61.53125 53.78125 63.8125 
Q 48.140625 66.109375 41.796875 66.109375 
Q 29.296875 66.109375 22.65625 58.46875 
Q 16.015625 50.828125 16.015625 36.375 
Q 16.015625 21.96875 22.65625 14.328125 
Q 29.296875 6.6875 41.796875 6.6875 
Q 48.140625 6.6875 53.78125 8.984375 
Q 59.421875 11.28125 64.40625 15.921875 
L 64.40625 5.609375 
Q 59.234375 2.09375 53.4375 0.328125 
Q 47.65625 -1.421875 41.21875 -1.421875 
Q 24.65625 -1.421875 15.125 8.703125 
Q 5.609375 18.84375 5.609375 36.375 
Q 5.609375 53.953125 15.125 64.078125 
Q 24.65625 74.21875 41.21875 74.21875 
Q 47.75 74.21875 53.53125 72.484375 
Q 59.328125 70.75 64.40625 67.28125 
z
" id="DejaVuSans-67"/>
     <path d="M 3.328125 72.90625 
L 13.28125 72.90625 
L 28.609375 11.28125 
L 43.890625 72.90625 
L 54.984375 72.90625 
L 70.3125 11.28125 
L 85.59375 72.90625 
L 95.609375 72.90625 
L 77.296875 0 
L 64.890625 0 
L 49.515625 63.28125 
L 33.984375 0 
L 21.578125 0 
z
" id="DejaVuSans-87"/>
     <path d="M 41.109375 46.296875 
Q 39.59375 47.171875 37.8125 47.578125 
Q 36.03125 48 33.890625 48 
Q 26.265625 48 22.1875 43.046875 
Q 18.109375 38.09375 18.109375 28.8125 
L 18.109375 0 
L 9.078125 0 
L 9.078125 54.6875 
L 18.109375 54.6875 
L 18.109375 46.1875 
Q 20.953125 51.171875 25.484375 53.578125 
Q 30.03125 56 36.53125 56 
Q 37.453125 56 38.578125 55.875 
Q 39.703125 55.765625 41.0625 55.515625 
z
" id="DejaVuSans-114"/>
     <path d="M 34.28125 27.484375 
Q 23.390625 27.484375 19.1875 25 
Q 14.984375 22.515625 14.984375 16.5 
Q 14.984375 11.71875 18.140625 8.90625 
Q 21.296875 6.109375 26.703125 6.109375 
Q 34.1875 6.109375 38.703125 11.40625 
Q 43.21875 16.703125 43.21875 25.484375 
L 43.21875 27.484375 
z
M 52.203125 31.203125 
L 52.203125 0 
L 43.21875 0 
L 43.21875 8.296875 
Q 40.140625 3.328125 35.546875 0.953125 
Q 30.953125 -1.421875 24.3125 -1.421875 
Q 15.921875 -1.421875 10.953125 3.296875 
Q 6 8.015625 6 15.921875 
Q 6 25.140625 12.171875 29.828125 
Q 18.359375 34.515625 30.609375 34.515625 
L 43.21875 34.515625 
L 43.21875 35.40625 
Q 43.21875 41.609375 39.140625 45 
Q 35.0625 48.390625 27.6875 48.390625 
Q 23 48.390625 18.546875 47.265625 
Q 14.109375 46.140625 10.015625 43.890625 
L 10.015625 52.203125 
Q 14.9375 54.109375 19.578125 55.046875 
Q 24.21875 56 28.609375 56 
Q 40.484375 56 46.34375 49.84375 
Q 52.203125 43.703125 52.203125 31.203125 
z
" id="DejaVuSans-97"/>
     <path d="M 18.109375 8.203125 
L 18.109375 -20.796875 
L 9.078125 -20.796875 
L 9.078125 54.6875 
L 18.109375 54.6875 
L 18.109375 46.390625 
Q 20.953125 51.265625 25.265625 53.625 
Q 29.59375 56 35.59375 56 
Q 45.5625 56 51.78125 48.09375 
Q 58.015625 40.1875 58.015625 27.296875 
Q 58.015625 14.40625 51.78125 6.484375 
Q 45.5625 -1.421875 35.59375 -1.421875 
Q 29.59375 -1.421875 25.265625 0.953125 
Q 20.953125 3.328125 18.109375 8.203125 
z
M 48.6875 27.296875 
Q 48.6875 37.203125 44.609375 42.84375 
Q 40.53125 48.484375 33.40625 48.484375 
Q 26.265625 48.484375 22.1875 42.84375 
Q 18.109375 37.203125 18.109375 27.296875 
Q 18.109375 17.390625 22.1875 11.75 
Q 26.265625 6.109375 33.40625 6.109375 
Q 40.53125 6.109375 44.609375 11.75 
Q 48.6875 17.390625 48.6875 27.296875 
z
" id="DejaVuSans-112"/>
     <path d="M 56.203125 29.59375 
L 56.203125 25.203125 
L 14.890625 25.203125 
Q 15.484375 15.921875 20.484375 11.0625 
Q 25.484375 6.203125 34.421875 6.203125 
Q 39.59375 6.203125 44.453125 7.46875 
Q 49.3125 8.734375 54.109375 11.28125 
L 54.109375 2.78125 
Q 49.265625 0.734375 44.1875 -0.34375 
Q 39.109375 -1.421875 33.890625 -1.421875 
Q 20.796875 -1.421875 13.15625 6.1875 
Q 5.515625 13.8125 5.515625 26.8125 
Q 5.515625 40.234375 12.765625 48.109375 
Q 20.015625 56 32.328125 56 
Q 43.359375 56 49.78125 48.890625 
Q 56.203125 41.796875 56.203125 29.59375 
z
M 47.21875 32.234375 
Q 47.125 39.59375 43.09375 43.984375 
Q 39.0625 48.390625 32.421875 48.390625 
Q 24.90625 48.390625 20.390625 44.140625 
Q 15.875 39.890625 15.1875 32.171875 
z
" id="DejaVuSans-101"/>
     <path id="DejaVuSans-32"/>
     <path d="M 9.8125 72.90625 
L 23.09375 72.90625 
L 55.421875 11.921875 
L 55.421875 72.90625 
L 64.984375 72.90625 
L 64.984375 0 
L 51.703125 0 
L 19.390625 60.984375 
L 19.390625 0 
L 9.8125 0 
z
" id="DejaVuSans-78"/>
     <path d="M 8.5 21.578125 
L 8.5 54.6875 
L 17.484375 54.6875 
L 17.484375 21.921875 
Q 17.484375 14.15625 20.5 10.265625 
Q 23.53125 6.390625 29.59375 6.390625 
Q 36.859375 6.390625 41.078125 11.03125 
Q 45.3125 15.671875 45.3125 23.6875 
L 45.3125 54.6875 
L 54.296875 54.6875 
L 54.296875 0 
L 45.3125 0 
L 45.3125 8.40625 
Q 42.046875 3.421875 37.71875 1 
Q 33.40625 -1.421875 27.6875 -1.421875 
Q 18.265625 -1.421875 13.375 4.4375 
Q 8.5 10.296875 8.5 21.578125 
z
M 31.109375 56 
z
" id="DejaVuSans-117"/>
     <path d="M 52 44.1875 
Q 55.375 50.25 60.0625 53.125 
Q 64.75 56 71.09375 56 
Q 79.640625 56 84.28125 50.015625 
Q 88.921875 44.046875 88.921875 33.015625 
L 88.921875 0 
L 79.890625 0 
L 79.890625 32.71875 
Q 79.890625 40.578125 77.09375 44.375 
Q 74.3125 48.1875 68.609375 48.1875 
Q 61.625 48.1875 57.5625 43.546875 
Q 53.515625 38.921875 53.515625 30.90625 
L 53.515625 0 
L 44.484375 0 
L 44.484375 32.71875 
Q 44.484375 40.625 41.703125 44.40625 
Q 38.921875 48.1875 33.109375 48.1875 
Q 26.21875 48.1875 22.15625 43.53125 
Q 18.109375 38.875 18.109375 30.90625 
L 18.109375 0 
L 9.078125 0 
L 9.078125 54.6875 
L 18.109375 54.6875 
L 18.109375 46.1875 
Q 21.1875 51.21875 25.484375 53.609375 
Q 29.78125 56 35.6875 56 
Q 41.65625 56 45.828125 52.96875 
Q 50 49.953125 52 44.1875 
z
" id="DejaVuSans-109"/>
     <path d="M 48.6875 27.296875 
Q 48.6875 37.203125 44.609375 42.84375 
Q 40.53125 48.484375 33.40625 48.484375 
Q 26.265625 48.484375 22.1875 42.84375 
Q 18.109375 37.203125 18.109375 27.296875 
Q 18.109375 17.390625 22.1875 11.75 
Q 26.265625 6.109375 33.40625 6.109375 
Q 40.53125 6.109375 44.609375 11.75 
Q 48.6875 17.390625 48.6875 27.296875 
z
M 18.109375 46.390625 
Q 20.953125 51.265625 25.265625 53.625 
Q 29.59375 56 35.59375 56 
Q 45.5625 56 51.78125 48.09375 
Q 58.015625 40.1875 58.015625 27.296875 
Q 58.015625 14.40625 51.78125 6.484375 
Q 45.5625 -1.421875 35.59375 -1.421875 
Q 29.59375 -1.421875 25.265625 0.953125 
Q 20.953125 3.328125 18.109375 8.203125 
L 18.109375 0 
L 9.078125 0 
L 9.078125 75.984375 
L 18.109375 75.984375 
z
" id="DejaVuSans-98"/>
     <path d="M 30.609375 48.390625 
Q 23.390625 48.390625 19.1875 42.75 
Q 14.984375 37.109375 14.984375 27.296875 
Q 14.984375 17.484375 19.15625 11.84375 
Q 23.34375 6.203125 30.609375 6.203125 
Q 37.796875 6.203125 41.984375 11.859375 
Q 46.1875 17.53125 46.1875 27.296875 
Q 46.1875 37.015625 41.984375 42.703125 
Q 37.796875 48.390625 30.609375 48.390625 
z
M 30.609375 56 
Q 42.328125 56 49.015625 48.375 
Q 55.71875 40.765625 55.71875 27.296875 
Q 55.71875 13.875 49.015625 6.21875 
Q 42.328125 -1.421875 30.609375 -1.421875 
Q 18.84375 -1.421875 12.171875 6.21875 
Q 5.515625 13.875 5.515625 27.296875 
Q 5.515625 40.765625 12.171875 48.375 
Q 18.84375 56 30.609375 56 
z
" id="DejaVuSans-111"/>
     <path d="M 37.109375 75.984375 
L 37.109375 68.5 
L 28.515625 68.5 
Q 23.6875 68.5 21.796875 66.546875 
Q 19.921875 64.59375 19.921875 59.515625 
L 19.921875 54.6875 
L 34.71875 54.6875 
L 34.71875 47.703125 
L 19.921875 47.703125 
L 19.921875 0 
L 10.890625 0 
L 10.890625 47.703125 
L 2.296875 47.703125 
L 2.296875 54.6875 
L 10.890625 54.6875 
L 10.890625 58.5 
Q 10.890625 67.625 15.140625 71.796875 
Q 19.390625 75.984375 28.609375 75.984375 
z
" id="DejaVuSans-102"/>
     <path d="M 48.78125 52.59375 
L 48.78125 44.1875 
Q 44.96875 46.296875 41.140625 47.34375 
Q 37.3125 48.390625 33.40625 48.390625 
Q 24.65625 48.390625 19.8125 42.84375 
Q 14.984375 37.3125 14.984375 27.296875 
Q 14.984375 17.28125 19.8125 11.734375 
Q 24.65625 6.203125 33.40625 6.203125 
Q 37.3125 6.203125 41.140625 7.25 
Q 44.96875 8.296875 48.78125 10.40625 
L 48.78125 2.09375 
Q 45.015625 0.34375 40.984375 -0.53125 
Q 36.96875 -1.421875 32.421875 -1.421875 
Q 20.0625 -1.421875 12.78125 6.34375 
Q 5.515625 14.109375 5.515625 27.296875 
Q 5.515625 40.671875 12.859375 48.328125 
Q 20.21875 56 33.015625 56 
Q 37.15625 56 41.109375 55.140625 
Q 45.0625 54.296875 48.78125 52.59375 
z
" id="DejaVuSans-99"/>
     <path d="M 9.421875 75.984375 
L 18.40625 75.984375 
L 18.40625 0 
L 9.421875 0 
z
" id="DejaVuSans-108"/>
     <path d="M 44.28125 53.078125 
L 44.28125 44.578125 
Q 40.484375 46.53125 36.375 47.5 
Q 32.28125 48.484375 27.875 48.484375 
Q 21.1875 48.484375 17.84375 46.4375 
Q 14.5 44.390625 14.5 40.28125 
Q 14.5 37.15625 16.890625 35.375 
Q 19.28125 33.59375 26.515625 31.984375 
L 29.59375 31.296875 
Q 39.15625 29.25 43.1875 25.515625 
Q 47.21875 21.78125 47.21875 15.09375 
Q 47.21875 7.46875 41.1875 3.015625 
Q 35.15625 -1.421875 24.609375 -1.421875 
Q 20.21875 -1.421875 15.453125 -0.5625 
Q 10.6875 0.296875 5.421875 2 
L 5.421875 11.28125 
Q 10.40625 8.6875 15.234375 7.390625 
Q 20.0625 6.109375 24.8125 6.109375 
Q 31.15625 6.109375 34.5625 8.28125 
Q 37.984375 10.453125 37.984375 14.40625 
Q 37.984375 18.0625 35.515625 20.015625 
Q 33.0625 21.96875 24.703125 23.78125 
L 21.578125 24.515625 
Q 13.234375 26.265625 9.515625 29.90625 
Q 5.8125 33.546875 5.8125 39.890625 
Q 5.8125 47.609375 11.28125 51.796875 
Q 16.75 56 26.8125 56 
Q 31.78125 56 36.171875 55.265625 
Q 40.578125 54.546875 44.28125 53.078125 
z
" id="DejaVuSans-115"/>
     <path d="M 18.3125 70.21875 
L 18.3125 54.6875 
L 36.8125 54.6875 
L 36.8125 47.703125 
L 18.3125 47.703125 
L 18.3125 18.015625 
Q 18.3125 11.328125 20.140625 9.421875 
Q 21.96875 7.515625 27.59375 7.515625 
L 36.8125 7.515625 
L 36.8125 0 
L 27.59375 0 
Q 17.1875 0 13.234375 3.875 
Q 9.28125 7.765625 9.28125 18.015625 
L 9.28125 47.703125 
L 2.6875 47.703125 
L 2.6875 54.6875 
L 9.28125 54.6875 
L 9.28125 70.21875 
z
" id="DejaVuSans-116"/>
     <path d="M 11.71875 12.40625 
L 22.015625 12.40625 
L 22.015625 0 
L 11.71875 0 
z
M 11.71875 51.703125 
L 22.015625 51.703125 
L 22.015625 39.3125 
L 11.71875 39.3125 
z
" id="DejaVuSans-58"/>
     <path d="M 10.984375 1.515625 
L 10.984375 10.5 
Q 14.703125 8.734375 18.5 7.8125 
Q 22.3125 6.890625 25.984375 6.890625 
Q 35.75 6.890625 40.890625 13.453125 
Q 46.046875 20.015625 46.78125 33.40625 
Q 43.953125 29.203125 39.59375 26.953125 
Q 35.25 24.703125 29.984375 24.703125 
Q 19.046875 24.703125 12.671875 31.3125 
Q 6.296875 37.9375 6.296875 49.421875 
Q 6.296875 60.640625 12.9375 67.421875 
Q 19.578125 74.21875 30.609375 74.21875 
Q 43.265625 74.21875 49.921875 64.515625 
Q 56.59375 54.828125 56.59375 36.375 
Q 56.59375 19.140625 48.40625 8.859375 
Q 40.234375 -1.421875 26.421875 -1.421875 
Q 22.703125 -1.421875 18.890625 -0.6875 
Q 15.09375 0.046875 10.984375 1.515625 
z
M 30.609375 32.421875 
Q 37.25 32.421875 41.125 36.953125 
Q 45.015625 41.5 45.015625 49.421875 
Q 45.015625 57.28125 41.125 61.84375 
Q 37.25 66.40625 30.609375 66.40625 
Q 23.96875 66.40625 20.09375 61.84375 
Q 16.21875 57.28125 16.21875 49.421875 
Q 16.21875 41.5 20.09375 36.953125 
Q 23.96875 32.421875 30.609375 32.421875 
z
" id="DejaVuSans-57"/>
    </defs>
    <g transform="translate(121.720313 35.472)scale(0.12 -0.12)">
     <use xlink:href="#DejaVuSans-83"/>
     <use x="63.476562" xlink:href="#DejaVuSans-79"/>
     <use x="142.1875" xlink:href="#DejaVuSans-77"/>
     <use x="228.466797" xlink:href="#DejaVuSans-83"/>
     <use x="291.943359" xlink:href="#DejaVuSans-67"/>
     <use x="361.767578" xlink:href="#DejaVuSans-87"/>
     <use x="460.582031" xlink:href="#DejaVuSans-114"/>
     <use x="501.695312" xlink:href="#DejaVuSans-97"/>
     <use x="562.974609" xlink:href="#DejaVuSans-112"/>
     <use x="626.451172" xlink:href="#DejaVuSans-112"/>
     <use x="689.927734" xlink:href="#DejaVuSans-101"/>
     <use x="751.451172" xlink:href="#DejaVuSans-114"/>
     <use x="792.564453" xlink:href="#DejaVuSans-32"/>
     <use x="824.351562" xlink:href="#DejaVuSans-78"/>
     <use x="899.15625" xlink:href="#DejaVuSans-117"/>
     <use x="962.535156" xlink:href="#DejaVuSans-109"/>
     <use x="1059.947266" xlink:href="#DejaVuSans-98"/>
     <use x="1123.423828" xlink:href="#DejaVuSans-101"/>
     <use x="1184.947266" xlink:href="#DejaVuSans-114"/>
     <use x="1226.060547" xlink:href="#DejaVuSans-32"/>
     <use x="1257.847656" xlink:href="#DejaVuSans-111"/>
     <use x="1319.029297" xlink:href="#DejaVuSans-102"/>
     <use x="1354.234375" xlink:href="#DejaVuSans-32"/>
     <use x="1386.021484" xlink:href="#DejaVuSans-99"/>
     <use x="1441.001953" xlink:href="#DejaVuSans-108"/>
     <use x="1468.785156" xlink:href="#DejaVuSans-117"/>
     <use x="1532.164062" xlink:href="#DejaVuSans-115"/>
     <use x="1584.263672" xlink:href="#DejaVuSans-116"/>
     <use x="1623.472656" xlink:href="#DejaVuSans-101"/>
     <use x="1684.996094" xlink:href="#DejaVuSans-114"/>
     <use x="1726.109375" xlink:href="#DejaVuSans-115"/>
     <use x="1778.208984" xlink:href="#DejaVuSans-58"/>
     <use x="1811.900391" xlink:href="#DejaVuSans-32"/>
     <use x="1843.6875" xlink:href="#DejaVuSans-57"/>
    </g>
   </g>
  </g>
 </g>
 <defs>
  <clipPath id="p4e419bd102">
   <rect height="266.112" width="357.12" x="57.6" y="41.472"/>
  </clipPath>
 </defs>
</svg>
