<?xml version="1.0" encoding="utf-8" standalone="no"?>
<!DOCTYPE svg PUBLIC "-//W3C//DTD SVG 1.1//EN"
  "http://www.w3.org/Graphics/SVG/1.1/DTD/svg11.dtd">
<!-- Created with matplotlib (https://matplotlib.org/) -->
<svg height="345.6pt" version="1.1" viewBox="0 0 460.8 345.6" width="460.8pt" xmlns="http://www.w3.org/2000/svg" xmlns:xlink="http://www.w3.org/1999/xlink">
 <defs>
  <style type="text/css">
*{stroke-linecap:butt;stroke-linejoin:round;white-space:pre;}
  </style>
 </defs>
 <g id="figure_1">
  <g id="patch_1">
   <path d="M 0 345.6 
L 460.8 345.6 
L 460.8 0 
L 0 0 
z
" style="fill:#ffffff;"/>
  </g>
  <g id="axes_1">
   <g id="patch_2">
    <path d="M 57.6 307.584 
L 414.72 307.584 
L 414.72 41.472 
L 57.6 41.472 
z
" style="fill:#ffffff;"/>
   </g>
   <g id="matplotlib.axis_1">
    <g id="xtick_1">
     <g id="line2d_1">
      <defs>
       <path d="M 0 0 
L 0 3.5 
" id="m732988b8cb" style="stroke:#000000;stroke-width:0.8;"/>
      </defs>
      <g>
       <use style="stroke:#000000;stroke-width:0.8;" x="92.769001" xlink:href="#m732988b8cb" y="307.584"/>
      </g>
     </g>
     <g id="text_1">
      <!-- −20 -->
      <defs>
       <path d="M 10.59375 35.5 
L 73.1875 35.5 
L 73.1875 27.203125 
L 10.59375 27.203125 
z
" id="DejaVuSans-8722"/>
       <path d="M 19.1875 8.296875 
L 53.609375 8.296875 
L 53.609375 0 
L 7.328125 0 
L 7.328125 8.296875 
Q 12.9375 14.109375 22.625 23.890625 
Q 32.328125 33.6875 34.8125 36.53125 
Q 39.546875 41.84375 41.421875 45.53125 
Q 43.3125 49.21875 43.3125 52.78125 
Q 43.3125 58.59375 39.234375 62.25 
Q 35.15625 65.921875 28.609375 65.921875 
Q 23.96875 65.921875 18.8125 64.3125 
Q 13.671875 62.703125 7.8125 59.421875 
L 7.8125 69.390625 
Q 13.765625 71.78125 18.9375 73 
Q 24.125 74.21875 28.421875 74.21875 
Q 39.75 74.21875 46.484375 68.546875 
Q 53.21875 62.890625 53.21875 53.421875 
Q 53.21875 48.921875 51.53125 44.890625 
Q 49.859375 40.875 45.40625 35.40625 
Q 44.1875 33.984375 37.640625 27.21875 
Q 31.109375 20.453125 19.1875 8.296875 
z
" id="DejaVuSans-50"/>
       <path d="M 31.78125 66.40625 
Q 24.171875 66.40625 20.328125 58.90625 
Q 16.5 51.421875 16.5 36.375 
Q 16.5 21.390625 20.328125 13.890625 
Q 24.171875 6.390625 31.78125 6.390625 
Q 39.453125 6.390625 43.28125 13.890625 
Q 47.125 21.390625 47.125 36.375 
Q 47.125 51.421875 43.28125 58.90625 
Q 39.453125 66.40625 31.78125 66.40625 
z
M 31.78125 74.21875 
Q 44.046875 74.21875 50.515625 64.515625 
Q 56.984375 54.828125 56.984375 36.375 
Q 56.984375 17.96875 50.515625 8.265625 
Q 44.046875 -1.421875 31.78125 -1.421875 
Q 19.53125 -1.421875 13.0625 8.265625 
Q 6.59375 17.96875 6.59375 36.375 
Q 6.59375 54.828125 13.0625 64.515625 
Q 19.53125 74.21875 31.78125 74.21875 
z
" id="DejaVuSans-48"/>
      </defs>
      <g transform="translate(82.216657 322.182437)scale(0.1 -0.1)">
       <use xlink:href="#DejaVuSans-8722"/>
       <use x="83.789062" xlink:href="#DejaVuSans-50"/>
       <use x="147.412109" xlink:href="#DejaVuSans-48"/>
      </g>
     </g>
    </g>
    <g id="xtick_2">
     <g id="line2d_2">
      <g>
       <use style="stroke:#000000;stroke-width:0.8;" x="160.160815" xlink:href="#m732988b8cb" y="307.584"/>
      </g>
     </g>
     <g id="text_2">
      <!-- −10 -->
      <defs>
       <path d="M 12.40625 8.296875 
L 28.515625 8.296875 
L 28.515625 63.921875 
L 10.984375 60.40625 
L 10.984375 69.390625 
L 28.421875 72.90625 
L 38.28125 72.90625 
L 38.28125 8.296875 
L 54.390625 8.296875 
L 54.390625 0 
L 12.40625 0 
z
" id="DejaVuSans-49"/>
      </defs>
      <g transform="translate(149.608471 322.182437)scale(0.1 -0.1)">
       <use xlink:href="#DejaVuSans-8722"/>
       <use x="83.789062" xlink:href="#DejaVuSans-49"/>
       <use x="147.412109" xlink:href="#DejaVuSans-48"/>
      </g>
     </g>
    </g>
    <g id="xtick_3">
     <g id="line2d_3">
      <g>
       <use style="stroke:#000000;stroke-width:0.8;" x="227.552629" xlink:href="#m732988b8cb" y="307.584"/>
      </g>
     </g>
     <g id="text_3">
      <!-- 0 -->
      <g transform="translate(224.371379 322.182437)scale(0.1 -0.1)">
       <use xlink:href="#DejaVuSans-48"/>
      </g>
     </g>
    </g>
    <g id="xtick_4">
     <g id="line2d_4">
      <g>
       <use style="stroke:#000000;stroke-width:0.8;" x="294.944443" xlink:href="#m732988b8cb" y="307.584"/>
      </g>
     </g>
     <g id="text_4">
      <!-- 10 -->
      <g transform="translate(288.581943 322.182437)scale(0.1 -0.1)">
       <use xlink:href="#DejaVuSans-49"/>
       <use x="63.623047" xlink:href="#DejaVuSans-48"/>
      </g>
     </g>
    </g>
    <g id="xtick_5">
     <g id="line2d_5">
      <g>
       <use style="stroke:#000000;stroke-width:0.8;" x="362.336258" xlink:href="#m732988b8cb" y="307.584"/>
      </g>
     </g>
     <g id="text_5">
      <!-- 20 -->
      <g transform="translate(355.973758 322.182437)scale(0.1 -0.1)">
       <use xlink:href="#DejaVuSans-50"/>
       <use x="63.623047" xlink:href="#DejaVuSans-48"/>
      </g>
     </g>
    </g>
   </g>
   <g id="matplotlib.axis_2">
    <g id="ytick_1">
     <g id="line2d_6">
      <defs>
       <path d="M 0 0 
L -3.5 0 
" id="m4658bbd847" style="stroke:#000000;stroke-width:0.8;"/>
      </defs>
      <g>
       <use style="stroke:#000000;stroke-width:0.8;" x="57.6" xlink:href="#m4658bbd847" y="301.068837"/>
      </g>
     </g>
     <g id="text_6">
      <!-- −20 -->
      <g transform="translate(29.495313 304.868056)scale(0.1 -0.1)">
       <use xlink:href="#DejaVuSans-8722"/>
       <use x="83.789062" xlink:href="#DejaVuSans-50"/>
       <use x="147.412109" xlink:href="#DejaVuSans-48"/>
      </g>
     </g>
    </g>
    <g id="ytick_2">
     <g id="line2d_7">
      <g>
       <use style="stroke:#000000;stroke-width:0.8;" x="57.6" xlink:href="#m4658bbd847" y="268.126339"/>
      </g>
     </g>
     <g id="text_7">
      <!-- −15 -->
      <defs>
       <path d="M 10.796875 72.90625 
L 49.515625 72.90625 
L 49.515625 64.59375 
L 19.828125 64.59375 
L 19.828125 46.734375 
Q 21.96875 47.46875 24.109375 47.828125 
Q 26.265625 48.1875 28.421875 48.1875 
Q 40.625 48.1875 47.75 41.5 
Q 54.890625 34.8125 54.890625 23.390625 
Q 54.890625 11.625 47.5625 5.09375 
Q 40.234375 -1.421875 26.90625 -1.421875 
Q 22.3125 -1.421875 17.546875 -0.640625 
Q 12.796875 0.140625 7.71875 1.703125 
L 7.71875 11.625 
Q 12.109375 9.234375 16.796875 8.0625 
Q 21.484375 6.890625 26.703125 6.890625 
Q 35.15625 6.890625 40.078125 11.328125 
Q 45.015625 15.765625 45.015625 23.390625 
Q 45.015625 31 40.078125 35.4375 
Q 35.15625 39.890625 26.703125 39.890625 
Q 22.75 39.890625 18.8125 39.015625 
Q 14.890625 38.140625 10.796875 36.28125 
z
" id="DejaVuSans-53"/>
      </defs>
      <g transform="translate(29.495313 271.925558)scale(0.1 -0.1)">
       <use xlink:href="#DejaVuSans-8722"/>
       <use x="83.789062" xlink:href="#DejaVuSans-49"/>
       <use x="147.412109" xlink:href="#DejaVuSans-53"/>
      </g>
     </g>
    </g>
    <g id="ytick_3">
     <g id="line2d_8">
      <g>
       <use style="stroke:#000000;stroke-width:0.8;" x="57.6" xlink:href="#m4658bbd847" y="235.183841"/>
      </g>
     </g>
     <g id="text_8">
      <!-- −10 -->
      <g transform="translate(29.495313 238.98306)scale(0.1 -0.1)">
       <use xlink:href="#DejaVuSans-8722"/>
       <use x="83.789062" xlink:href="#DejaVuSans-49"/>
       <use x="147.412109" xlink:href="#DejaVuSans-48"/>
      </g>
     </g>
    </g>
    <g id="ytick_4">
     <g id="line2d_9">
      <g>
       <use style="stroke:#000000;stroke-width:0.8;" x="57.6" xlink:href="#m4658bbd847" y="202.241343"/>
      </g>
     </g>
     <g id="text_9">
      <!-- −5 -->
      <g transform="translate(35.857813 206.040561)scale(0.1 -0.1)">
       <use xlink:href="#DejaVuSans-8722"/>
       <use x="83.789062" xlink:href="#DejaVuSans-53"/>
      </g>
     </g>
    </g>
    <g id="ytick_5">
     <g id="line2d_10">
      <g>
       <use style="stroke:#000000;stroke-width:0.8;" x="57.6" xlink:href="#m4658bbd847" y="169.298845"/>
      </g>
     </g>
     <g id="text_10">
      <!-- 0 -->
      <g transform="translate(44.2375 173.098063)scale(0.1 -0.1)">
       <use xlink:href="#DejaVuSans-48"/>
      </g>
     </g>
    </g>
    <g id="ytick_6">
     <g id="line2d_11">
      <g>
       <use style="stroke:#000000;stroke-width:0.8;" x="57.6" xlink:href="#m4658bbd847" y="136.356347"/>
      </g>
     </g>
     <g id="text_11">
      <!-- 5 -->
      <g transform="translate(44.2375 140.155565)scale(0.1 -0.1)">
       <use xlink:href="#DejaVuSans-53"/>
      </g>
     </g>
    </g>
    <g id="ytick_7">
     <g id="line2d_12">
      <g>
       <use style="stroke:#000000;stroke-width:0.8;" x="57.6" xlink:href="#m4658bbd847" y="103.413848"/>
      </g>
     </g>
     <g id="text_12">
      <!-- 10 -->
      <g transform="translate(37.875 107.213067)scale(0.1 -0.1)">
       <use xlink:href="#DejaVuSans-49"/>
       <use x="63.623047" xlink:href="#DejaVuSans-48"/>
      </g>
     </g>
    </g>
    <g id="ytick_8">
     <g id="line2d_13">
      <g>
       <use style="stroke:#000000;stroke-width:0.8;" x="57.6" xlink:href="#m4658bbd847" y="70.47135"/>
      </g>
     </g>
     <g id="text_13">
      <!-- 15 -->
      <g transform="translate(37.875 74.270569)scale(0.1 -0.1)">
       <use xlink:href="#DejaVuSans-49"/>
       <use x="63.623047" xlink:href="#DejaVuSans-53"/>
      </g>
     </g>
    </g>
   </g>
   <g id="line2d_14">
    <defs>
     <path d="M 0 5 
C 1.326016 5 2.597899 4.473168 3.535534 3.535534 
C 4.473168 2.597899 5 1.326016 5 0 
C 5 -1.326016 4.473168 -2.597899 3.535534 -3.535534 
C 2.597899 -4.473168 1.326016 -5 0 -5 
C -1.326016 -5 -2.597899 -4.473168 -3.535534 -3.535534 
C -4.473168 -2.597899 -5 -1.326016 -5 0 
C -5 1.326016 -4.473168 2.597899 -3.535534 3.535534 
C -2.597899 4.473168 -1.326016 5 0 5 
z
" id="m9e345ee9dc" style="stroke:#000000;"/>
    </defs>
    <g clip-path="url(#p21a26c1ba1)">
     <use style="fill:#9e0142;stroke:#000000;" x="216.546218" xlink:href="#m9e345ee9dc" y="201.185428"/>
     <use style="fill:#9e0142;stroke:#000000;" x="274.082446" xlink:href="#m9e345ee9dc" y="93.112651"/>
     <use style="fill:#9e0142;stroke:#000000;" x="231.588135" xlink:href="#m9e345ee9dc" y="77.887088"/>
     <use style="fill:#9e0142;stroke:#000000;" x="232.909395" xlink:href="#m9e345ee9dc" y="202.217846"/>
     <use style="fill:#9e0142;stroke:#000000;" x="245.43767" xlink:href="#m9e345ee9dc" y="206.138709"/>
     <use style="fill:#9e0142;stroke:#000000;" x="230.245581" xlink:href="#m9e345ee9dc" y="100.790019"/>
     <use style="fill:#9e0142;stroke:#000000;" x="204.96346" xlink:href="#m9e345ee9dc" y="108.89382"/>
     <use style="fill:#9e0142;stroke:#000000;" x="218.451566" xlink:href="#m9e345ee9dc" y="128.456711"/>
     <use style="fill:#9e0142;stroke:#000000;" x="247.999498" xlink:href="#m9e345ee9dc" y="116.764411"/>
     <use style="fill:#9e0142;stroke:#000000;" x="219.616405" xlink:href="#m9e345ee9dc" y="120.00988"/>
     <use style="fill:#9e0142;stroke:#000000;" x="235.484072" xlink:href="#m9e345ee9dc" y="120.832934"/>
     <use style="fill:#9e0142;stroke:#000000;" x="266.382787" xlink:href="#m9e345ee9dc" y="92.30065"/>
     <use style="fill:#9e0142;stroke:#000000;" x="223.973391" xlink:href="#m9e345ee9dc" y="77.099403"/>
     <use style="fill:#9e0142;stroke:#000000;" x="211.246742" xlink:href="#m9e345ee9dc" y="130.805355"/>
     <use style="fill:#9e0142;stroke:#000000;" x="213.373124" xlink:href="#m9e345ee9dc" y="258.878226"/>
     <use style="fill:#9e0142;stroke:#000000;" x="211.10701" xlink:href="#m9e345ee9dc" y="235.009605"/>
     <use style="fill:#9e0142;stroke:#000000;" x="236.097316" xlink:href="#m9e345ee9dc" y="152.735202"/>
     <use style="fill:#9e0142;stroke:#000000;" x="253.966627" xlink:href="#m9e345ee9dc" y="145.836374"/>
     <use style="fill:#9e0142;stroke:#000000;" x="256.284205" xlink:href="#m9e345ee9dc" y="107.562066"/>
     <use style="fill:#9e0142;stroke:#000000;" x="235.537372" xlink:href="#m9e345ee9dc" y="133.726818"/>
     <use style="fill:#9e0142;stroke:#000000;" x="236.629085" xlink:href="#m9e345ee9dc" y="110.190633"/>
     <use style="fill:#9e0142;stroke:#000000;" x="266.36681" xlink:href="#m9e345ee9dc" y="92.305004"/>
     <use style="fill:#9e0142;stroke:#000000;" x="217.427186" xlink:href="#m9e345ee9dc" y="246.970293"/>
     <use style="fill:#9e0142;stroke:#000000;" x="221.342377" xlink:href="#m9e345ee9dc" y="201.805258"/>
     <use style="fill:#9e0142;stroke:#000000;" x="233.155268" xlink:href="#m9e345ee9dc" y="126.435272"/>
     <use style="fill:#9e0142;stroke:#000000;" x="252.868133" xlink:href="#m9e345ee9dc" y="131.241996"/>
     <use style="fill:#9e0142;stroke:#000000;" x="251.070497" xlink:href="#m9e345ee9dc" y="117.770694"/>
     <use style="fill:#9e0142;stroke:#000000;" x="228.796848" xlink:href="#m9e345ee9dc" y="121.69987"/>
     <use style="fill:#9e0142;stroke:#000000;" x="216.856669" xlink:href="#m9e345ee9dc" y="207.419421"/>
     <use style="fill:#9e0142;stroke:#000000;" x="229.881627" xlink:href="#m9e345ee9dc" y="109.248549"/>
     <use style="fill:#9e0142;stroke:#000000;" x="218.401639" xlink:href="#m9e345ee9dc" y="195.522647"/>
     <use style="fill:#9e0142;stroke:#000000;" x="234.214513" xlink:href="#m9e345ee9dc" y="145.06434"/>
     <use style="fill:#9e0142;stroke:#000000;" x="234.572144" xlink:href="#m9e345ee9dc" y="112.510383"/>
     <use style="fill:#9e0142;stroke:#000000;" x="243.694167" xlink:href="#m9e345ee9dc" y="102.454944"/>
     <use style="fill:#9e0142;stroke:#000000;" x="242.745334" xlink:href="#m9e345ee9dc" y="126.138698"/>
     <use style="fill:#9e0142;stroke:#000000;" x="219.426934" xlink:href="#m9e345ee9dc" y="95.84642"/>
     <use style="fill:#9e0142;stroke:#000000;" x="207.026681" xlink:href="#m9e345ee9dc" y="247.551201"/>
     <use style="fill:#9e0142;stroke:#000000;" x="263.082888" xlink:href="#m9e345ee9dc" y="85.935182"/>
     <use style="fill:#9e0142;stroke:#000000;" x="245.061375" xlink:href="#m9e345ee9dc" y="136.20611"/>
     <use style="fill:#9e0142;stroke:#000000;" x="218.402682" xlink:href="#m9e345ee9dc" y="195.525534"/>
     <use style="fill:#9e0142;stroke:#000000;" x="236.13197" xlink:href="#m9e345ee9dc" y="152.712359"/>
     <use style="fill:#9e0142;stroke:#000000;" x="178.010848" xlink:href="#m9e345ee9dc" y="94.647048"/>
     <use style="fill:#9e0142;stroke:#000000;" x="242.762372" xlink:href="#m9e345ee9dc" y="126.143213"/>
     <use style="fill:#9e0142;stroke:#000000;" x="264.823932" xlink:href="#m9e345ee9dc" y="113.402861"/>
     <use style="fill:#9e0142;stroke:#000000;" x="216.093143" xlink:href="#m9e345ee9dc" y="265.455334"/>
     <use style="fill:#9e0142;stroke:#000000;" x="213.24684" xlink:href="#m9e345ee9dc" y="258.946343"/>
     <use style="fill:#9e0142;stroke:#000000;" x="225.686711" xlink:href="#m9e345ee9dc" y="135.29493"/>
     <use style="fill:#9e0142;stroke:#000000;" x="230.600762" xlink:href="#m9e345ee9dc" y="112.077233"/>
     <use style="fill:#9e0142;stroke:#000000;" x="210.657868" xlink:href="#m9e345ee9dc" y="255.112579"/>
     <use style="fill:#9e0142;stroke:#000000;" x="289.167587" xlink:href="#m9e345ee9dc" y="121.484671"/>
     <use style="fill:#9e0142;stroke:#000000;" x="253.176824" xlink:href="#m9e345ee9dc" y="173.979482"/>
     <use style="fill:#9e0142;stroke:#000000;" x="254.135385" xlink:href="#m9e345ee9dc" y="148.53899"/>
     <use style="fill:#9e0142;stroke:#000000;" x="208.26479" xlink:href="#m9e345ee9dc" y="236.624792"/>
     <use style="fill:#9e0142;stroke:#000000;" x="219.616405" xlink:href="#m9e345ee9dc" y="120.00988"/>
     <use style="fill:#9e0142;stroke:#000000;" x="240.25175" xlink:href="#m9e345ee9dc" y="96.169424"/>
     <use style="fill:#9e0142;stroke:#000000;" x="235.537369" xlink:href="#m9e345ee9dc" y="133.726818"/>
     <use style="fill:#9e0142;stroke:#000000;" x="226.365209" xlink:href="#m9e345ee9dc" y="149.718134"/>
     <use style="fill:#9e0142;stroke:#000000;" x="225.686711" xlink:href="#m9e345ee9dc" y="135.29493"/>
     <use style="fill:#9e0142;stroke:#000000;" x="226.996284" xlink:href="#m9e345ee9dc" y="127.145695"/>
     <use style="fill:#9e0142;stroke:#000000;" x="233.856611" xlink:href="#m9e345ee9dc" y="107.856965"/>
     <use style="fill:#9e0142;stroke:#000000;" x="270.038646" xlink:href="#m9e345ee9dc" y="124.845809"/>
     <use style="fill:#9e0142;stroke:#000000;" x="238.80038" xlink:href="#m9e345ee9dc" y="145.771464"/>
    </g>
   </g>
   <g id="line2d_15">
    <defs>
     <path d="M 0 5 
C 1.326016 5 2.597899 4.473168 3.535534 3.535534 
C 4.473168 2.597899 5 1.326016 5 0 
C 5 -1.326016 4.473168 -2.597899 3.535534 -3.535534 
C 2.597899 -4.473168 1.326016 -5 0 -5 
C -1.326016 -5 -2.597899 -4.473168 -3.535534 -3.535534 
C -4.473168 -2.597899 -5 -1.326016 -5 0 
C -5 1.326016 -4.473168 2.597899 -3.535534 3.535534 
C -2.597899 4.473168 -1.326016 5 0 5 
z
" id="m07c86af0ec" style="stroke:#000000;"/>
    </defs>
    <g clip-path="url(#p21a26c1ba1)">
     <use style="stroke:#000000;" x="245.415873" xlink:href="#m07c86af0ec" y="206.148492"/>
     <use style="stroke:#000000;" x="347.202792" xlink:href="#m07c86af0ec" y="201.967979"/>
     <use style="stroke:#000000;" x="202.911237" xlink:href="#m07c86af0ec" y="265.266842"/>
     <use style="stroke:#000000;" x="189.08906" xlink:href="#m07c86af0ec" y="69.483254"/>
     <use style="stroke:#000000;" x="251.353638" xlink:href="#m07c86af0ec" y="239.209264"/>
     <use style="stroke:#000000;" x="361.719113" xlink:href="#m07c86af0ec" y="220.567021"/>
     <use style="stroke:#000000;" x="217.815742" xlink:href="#m07c86af0ec" y="110.206756"/>
     <use style="stroke:#000000;" x="337.580093" xlink:href="#m07c86af0ec" y="80.759931"/>
     <use style="stroke:#000000;" x="362.184607" xlink:href="#m07c86af0ec" y="199.37402"/>
     <use style="stroke:#000000;" x="202.769688" xlink:href="#m07c86af0ec" y="89.585549"/>
     <use style="stroke:#000000;" x="300.42587" xlink:href="#m07c86af0ec" y="110.389329"/>
     <use style="stroke:#000000;" x="115.917854" xlink:href="#m07c86af0ec" y="204.009886"/>
     <use style="stroke:#000000;" x="217.690367" xlink:href="#m07c86af0ec" y="177.014089"/>
     <use style="stroke:#000000;" x="115.51316" xlink:href="#m07c86af0ec" y="173.742798"/>
     <use style="stroke:#000000;" x="382.598341" xlink:href="#m07c86af0ec" y="200.303054"/>
     <use style="stroke:#000000;" x="254.605474" xlink:href="#m07c86af0ec" y="173.880064"/>
     <use style="stroke:#000000;" x="334.699602" xlink:href="#m07c86af0ec" y="90.387579"/>
     <use style="stroke:#000000;" x="133.523813" xlink:href="#m07c86af0ec" y="225.679295"/>
     <use style="stroke:#000000;" x="203.805583" xlink:href="#m07c86af0ec" y="80.959714"/>
     <use style="stroke:#000000;" x="215.713874" xlink:href="#m07c86af0ec" y="286.446281"/>
     <use style="stroke:#000000;" x="194.960537" xlink:href="#m07c86af0ec" y="267.279949"/>
     <use style="stroke:#000000;" x="114.494033" xlink:href="#m07c86af0ec" y="279.292285"/>
     <use style="stroke:#000000;" x="167.768295" xlink:href="#m07c86af0ec" y="237.250387"/>
     <use style="stroke:#000000;" x="310.782666" xlink:href="#m07c86af0ec" y="133.042238"/>
     <use style="stroke:#000000;" x="103.570062" xlink:href="#m07c86af0ec" y="225.5422"/>
     <use style="stroke:#000000;" x="309.260191" xlink:href="#m07c86af0ec" y="132.339689"/>
     <use style="stroke:#000000;" x="300.256378" xlink:href="#m07c86af0ec" y="223.404859"/>
     <use style="stroke:#000000;" x="287.334463" xlink:href="#m07c86af0ec" y="260.315081"/>
     <use style="stroke:#000000;" x="145.200602" xlink:href="#m07c86af0ec" y="231.674596"/>
     <use style="stroke:#000000;" x="170.111631" xlink:href="#m07c86af0ec" y="157.86565"/>
     <use style="stroke:#000000;" x="73.832727" xlink:href="#m07c86af0ec" y="199.802"/>
     <use style="stroke:#000000;" x="249.819072" xlink:href="#m07c86af0ec" y="228.07435"/>
     <use style="stroke:#000000;" x="310.475996" xlink:href="#m07c86af0ec" y="226.691444"/>
     <use style="stroke:#000000;" x="252.857271" xlink:href="#m07c86af0ec" y="231.506304"/>
     <use style="stroke:#000000;" x="102.696892" xlink:href="#m07c86af0ec" y="238.023904"/>
     <use style="stroke:#000000;" x="189.873457" xlink:href="#m07c86af0ec" y="149.517711"/>
     <use style="stroke:#000000;" x="176.767757" xlink:href="#m07c86af0ec" y="99.272323"/>
     <use style="stroke:#000000;" x="293.858675" xlink:href="#m07c86af0ec" y="169.727913"/>
     <use style="stroke:#000000;" x="306.17189" xlink:href="#m07c86af0ec" y="206.521625"/>
     <use style="stroke:#000000;" x="286.520242" xlink:href="#m07c86af0ec" y="115.85025"/>
     <use style="stroke:#000000;" x="191.883648" xlink:href="#m07c86af0ec" y="100.774254"/>
     <use style="stroke:#000000;" x="293.79179" xlink:href="#m07c86af0ec" y="236.133722"/>
     <use style="stroke:#000000;" x="201.871814" xlink:href="#m07c86af0ec" y="113.662788"/>
     <use style="stroke:#000000;" x="355.250289" xlink:href="#m07c86af0ec" y="203.035078"/>
     <use style="stroke:#000000;" x="186.471044" xlink:href="#m07c86af0ec" y="59.564325"/>
     <use style="stroke:#000000;" x="300.239649" xlink:href="#m07c86af0ec" y="223.388781"/>
     <use style="stroke:#000000;" x="259.919581" xlink:href="#m07c86af0ec" y="106.572291"/>
     <use style="stroke:#000000;" x="257.159011" xlink:href="#m07c86af0ec" y="121.562332"/>
     <use style="stroke:#000000;" x="168.519282" xlink:href="#m07c86af0ec" y="219.713663"/>
     <use style="stroke:#000000;" x="137.011563" xlink:href="#m07c86af0ec" y="143.460504"/>
     <use style="stroke:#000000;" x="81.447624" xlink:href="#m07c86af0ec" y="214.631986"/>
     <use style="stroke:#000000;" x="235.630999" xlink:href="#m07c86af0ec" y="65.705625"/>
     <use style="stroke:#000000;" x="296.868014" xlink:href="#m07c86af0ec" y="59.116076"/>
     <use style="stroke:#000000;" x="261.622237" xlink:href="#m07c86af0ec" y="200.780957"/>
     <use style="stroke:#000000;" x="345.803419" xlink:href="#m07c86af0ec" y="216.257886"/>
     <use style="stroke:#000000;" x="146.644507" xlink:href="#m07c86af0ec" y="235.842379"/>
     <use style="stroke:#000000;" x="122.307086" xlink:href="#m07c86af0ec" y="285.597384"/>
     <use style="stroke:#000000;" x="102.219817" xlink:href="#m07c86af0ec" y="183.670071"/>
     <use style="stroke:#000000;" x="123.34293" xlink:href="#m07c86af0ec" y="223.446876"/>
     <use style="stroke:#000000;" x="300.425639" xlink:href="#m07c86af0ec" y="110.386181"/>
     <use style="stroke:#000000;" x="172.472789" xlink:href="#m07c86af0ec" y="188.328089"/>
     <use style="stroke:#000000;" x="158.310043" xlink:href="#m07c86af0ec" y="154.078897"/>
     <use style="stroke:#000000;" x="94.486767" xlink:href="#m07c86af0ec" y="222.73126"/>
     <use style="stroke:#000000;" x="210.739921" xlink:href="#m07c86af0ec" y="192.290775"/>
     <use style="stroke:#000000;" x="341.793881" xlink:href="#m07c86af0ec" y="92.98894"/>
     <use style="stroke:#000000;" x="222.982459" xlink:href="#m07c86af0ec" y="243.302131"/>
     <use style="stroke:#000000;" x="339.072734" xlink:href="#m07c86af0ec" y="146.635142"/>
     <use style="stroke:#000000;" x="244.993792" xlink:href="#m07c86af0ec" y="174.385324"/>
     <use style="stroke:#000000;" x="170.726552" xlink:href="#m07c86af0ec" y="162.885046"/>
     <use style="stroke:#000000;" x="201.191089" xlink:href="#m07c86af0ec" y="254.439816"/>
     <use style="stroke:#000000;" x="121.607625" xlink:href="#m07c86af0ec" y="279.228648"/>
     <use style="stroke:#000000;" x="286.516154" xlink:href="#m07c86af0ec" y="69.441382"/>
     <use style="stroke:#000000;" x="214.612517" xlink:href="#m07c86af0ec" y="141.983928"/>
     <use style="stroke:#000000;" x="136.191679" xlink:href="#m07c86af0ec" y="218.852137"/>
     <use style="stroke:#000000;" x="236.966031" xlink:href="#m07c86af0ec" y="55.897615"/>
     <use style="stroke:#000000;" x="168.51227" xlink:href="#m07c86af0ec" y="154.387884"/>
     <use style="stroke:#000000;" x="284.652657" xlink:href="#m07c86af0ec" y="142.094885"/>
     <use style="stroke:#000000;" x="151.564878" xlink:href="#m07c86af0ec" y="207.113363"/>
     <use style="stroke:#000000;" x="130.539552" xlink:href="#m07c86af0ec" y="121.255397"/>
     <use style="stroke:#000000;" x="249.298682" xlink:href="#m07c86af0ec" y="72.964494"/>
     <use style="stroke:#000000;" x="371.360977" xlink:href="#m07c86af0ec" y="206.638582"/>
     <use style="stroke:#000000;" x="135.182752" xlink:href="#m07c86af0ec" y="251.227946"/>
     <use style="stroke:#000000;" x="164.465795" xlink:href="#m07c86af0ec" y="142.078463"/>
     <use style="stroke:#000000;" x="172.936843" xlink:href="#m07c86af0ec" y="188.218175"/>
     <use style="stroke:#000000;" x="169.242382" xlink:href="#m07c86af0ec" y="90.880446"/>
     <use style="stroke:#000000;" x="271.515117" xlink:href="#m07c86af0ec" y="84.575523"/>
     <use style="stroke:#000000;" x="249.687714" xlink:href="#m07c86af0ec" y="70.638819"/>
     <use style="stroke:#000000;" x="197.42445" xlink:href="#m07c86af0ec" y="160.351799"/>
     <use style="stroke:#000000;" x="278.117876" xlink:href="#m07c86af0ec" y="103.967638"/>
     <use style="stroke:#000000;" x="213.971335" xlink:href="#m07c86af0ec" y="268.261316"/>
     <use style="stroke:#000000;" x="259.705054" xlink:href="#m07c86af0ec" y="265.775819"/>
     <use style="stroke:#000000;" x="376.68914" xlink:href="#m07c86af0ec" y="214.679227"/>
     <use style="stroke:#000000;" x="339.576918" xlink:href="#m07c86af0ec" y="224.950635"/>
     <use style="stroke:#000000;" x="136.188324" xlink:href="#m07c86af0ec" y="218.854462"/>
     <use style="stroke:#000000;" x="115.255181" xlink:href="#m07c86af0ec" y="276.818909"/>
     <use style="stroke:#000000;" x="298.710496" xlink:href="#m07c86af0ec" y="69.061112"/>
     <use style="stroke:#000000;" x="174.378185" xlink:href="#m07c86af0ec" y="66.153981"/>
     <use style="stroke:#000000;" x="339.560864" xlink:href="#m07c86af0ec" y="186.238867"/>
     <use style="stroke:#000000;" x="133.201229" xlink:href="#m07c86af0ec" y="211.333793"/>
     <use style="stroke:#000000;" x="179.51689" xlink:href="#m07c86af0ec" y="93.619411"/>
     <use style="stroke:#000000;" x="190.138156" xlink:href="#m07c86af0ec" y="162.573175"/>
     <use style="stroke:#000000;" x="190.468554" xlink:href="#m07c86af0ec" y="86.316935"/>
     <use style="stroke:#000000;" x="339.023311" xlink:href="#m07c86af0ec" y="219.623473"/>
     <use style="stroke:#000000;" x="258.99263" xlink:href="#m07c86af0ec" y="225.557154"/>
     <use style="stroke:#000000;" x="307.559772" xlink:href="#m07c86af0ec" y="220.185472"/>
     <use style="stroke:#000000;" x="164.080883" xlink:href="#m07c86af0ec" y="230.840685"/>
     <use style="stroke:#000000;" x="123.632137" xlink:href="#m07c86af0ec" y="172.987219"/>
     <use style="stroke:#000000;" x="216.50703" xlink:href="#m07c86af0ec" y="210.578062"/>
     <use style="stroke:#000000;" x="203.794755" xlink:href="#m07c86af0ec" y="211.683845"/>
     <use style="stroke:#000000;" x="301.989916" xlink:href="#m07c86af0ec" y="71.590252"/>
     <use style="stroke:#000000;" x="101.884007" xlink:href="#m07c86af0ec" y="235.991865"/>
     <use style="stroke:#000000;" x="224.084459" xlink:href="#m07c86af0ec" y="70.793777"/>
     <use style="stroke:#000000;" x="188.439976" xlink:href="#m07c86af0ec" y="162.769481"/>
     <use style="stroke:#000000;" x="171.028138" xlink:href="#m07c86af0ec" y="79.11444"/>
     <use style="stroke:#000000;" x="192.587981" xlink:href="#m07c86af0ec" y="200.515272"/>
     <use style="stroke:#000000;" x="365.585741" xlink:href="#m07c86af0ec" y="214.561019"/>
     <use style="stroke:#000000;" x="268.503605" xlink:href="#m07c86af0ec" y="197.379439"/>
     <use style="stroke:#000000;" x="319.460021" xlink:href="#m07c86af0ec" y="241.286498"/>
     <use style="stroke:#000000;" x="90.047546" xlink:href="#m07c86af0ec" y="237.394375"/>
     <use style="stroke:#000000;" x="223.369738" xlink:href="#m07c86af0ec" y="286.41352"/>
     <use style="stroke:#000000;" x="132.32063" xlink:href="#m07c86af0ec" y="192.392267"/>
     <use style="stroke:#000000;" x="213.544468" xlink:href="#m07c86af0ec" y="295.488"/>
     <use style="stroke:#000000;" x="362.209762" xlink:href="#m07c86af0ec" y="217.018892"/>
     <use style="stroke:#000000;" x="168.202515" xlink:href="#m07c86af0ec" y="212.849321"/>
     <use style="stroke:#000000;" x="188.313329" xlink:href="#m07c86af0ec" y="168.605846"/>
     <use style="stroke:#000000;" x="176.835304" xlink:href="#m07c86af0ec" y="221.628198"/>
     <use style="stroke:#000000;" x="154.973686" xlink:href="#m07c86af0ec" y="183.491755"/>
     <use style="stroke:#000000;" x="303.908203" xlink:href="#m07c86af0ec" y="166.964272"/>
     <use style="stroke:#000000;" x="394.735366" xlink:href="#m07c86af0ec" y="208.101767"/>
     <use style="stroke:#000000;" x="298.954393" xlink:href="#m07c86af0ec" y="72.004672"/>
     <use style="stroke:#000000;" x="306.17189" xlink:href="#m07c86af0ec" y="206.521631"/>
     <use style="stroke:#000000;" x="124.949039" xlink:href="#m07c86af0ec" y="217.157193"/>
     <use style="stroke:#000000;" x="105.794416" xlink:href="#m07c86af0ec" y="226.199406"/>
     <use style="stroke:#000000;" x="398.487273" xlink:href="#m07c86af0ec" y="208.524167"/>
     <use style="stroke:#000000;" x="301.501677" xlink:href="#m07c86af0ec" y="101.443084"/>
     <use style="stroke:#000000;" x="258.65751" xlink:href="#m07c86af0ec" y="151.418961"/>
     <use style="stroke:#000000;" x="233.233399" xlink:href="#m07c86af0ec" y="212.889657"/>
     <use style="stroke:#000000;" x="306.39634" xlink:href="#m07c86af0ec" y="225.802095"/>
     <use style="stroke:#000000;" x="298.277028" xlink:href="#m07c86af0ec" y="241.492207"/>
     <use style="stroke:#000000;" x="319.458009" xlink:href="#m07c86af0ec" y="241.281603"/>
     <use style="stroke:#000000;" x="188.313207" xlink:href="#m07c86af0ec" y="124.502867"/>
     <use style="stroke:#000000;" x="198.014949" xlink:href="#m07c86af0ec" y="200.109233"/>
     <use style="stroke:#000000;" x="165.226223" xlink:href="#m07c86af0ec" y="273.104006"/>
     <use style="stroke:#000000;" x="97.763873" xlink:href="#m07c86af0ec" y="252.899613"/>
     <use style="stroke:#000000;" x="354.555416" xlink:href="#m07c86af0ec" y="208.988838"/>
     <use style="stroke:#000000;" x="376.364809" xlink:href="#m07c86af0ec" y="203.55901"/>
     <use style="stroke:#000000;" x="252.359064" xlink:href="#m07c86af0ec" y="242.362749"/>
     <use style="stroke:#000000;" x="108.898096" xlink:href="#m07c86af0ec" y="172.484204"/>
     <use style="stroke:#000000;" x="242.823655" xlink:href="#m07c86af0ec" y="91.327118"/>
     <use style="stroke:#000000;" x="119.162029" xlink:href="#m07c86af0ec" y="274.274481"/>
     <use style="stroke:#000000;" x="301.805442" xlink:href="#m07c86af0ec" y="68.525437"/>
     <use style="stroke:#000000;" x="304.157628" xlink:href="#m07c86af0ec" y="234.521891"/>
     <use style="stroke:#000000;" x="160.813507" xlink:href="#m07c86af0ec" y="151.088498"/>
     <use style="stroke:#000000;" x="215.71405" xlink:href="#m07c86af0ec" y="286.444936"/>
     <use style="stroke:#000000;" x="164.255665" xlink:href="#m07c86af0ec" y="268.113515"/>
     <use style="stroke:#000000;" x="375.508966" xlink:href="#m07c86af0ec" y="197.505956"/>
     <use style="stroke:#000000;" x="172.402864" xlink:href="#m07c86af0ec" y="102.942514"/>
     <use style="stroke:#000000;" x="146.199991" xlink:href="#m07c86af0ec" y="218.838989"/>
     <use style="stroke:#000000;" x="207.910125" xlink:href="#m07c86af0ec" y="286.065664"/>
     <use style="stroke:#000000;" x="303.393723" xlink:href="#m07c86af0ec" y="167.224681"/>
     <use style="stroke:#000000;" x="332.214795" xlink:href="#m07c86af0ec" y="98.888729"/>
     <use style="stroke:#000000;" x="162.625808" xlink:href="#m07c86af0ec" y="277.453432"/>
     <use style="stroke:#000000;" x="73.853641" xlink:href="#m07c86af0ec" y="199.825499"/>
     <use style="stroke:#000000;" x="350.624094" xlink:href="#m07c86af0ec" y="206.903752"/>
     <use style="stroke:#000000;" x="93.916706" xlink:href="#m07c86af0ec" y="232.635555"/>
     <use style="stroke:#000000;" x="334.718292" xlink:href="#m07c86af0ec" y="90.371406"/>
     <use style="stroke:#000000;" x="281.235037" xlink:href="#m07c86af0ec" y="170.560989"/>
     <use style="stroke:#000000;" x="281.224837" xlink:href="#m07c86af0ec" y="170.568537"/>
     <use style="stroke:#000000;" x="81.128511" xlink:href="#m07c86af0ec" y="214.768795"/>
     <use style="stroke:#000000;" x="181.58991" xlink:href="#m07c86af0ec" y="71.43557"/>
     <use style="stroke:#000000;" x="231.278401" xlink:href="#m07c86af0ec" y="173.597209"/>
     <use style="stroke:#000000;" x="282.782828" xlink:href="#m07c86af0ec" y="132.064201"/>
     <use style="stroke:#000000;" x="102.22294" xlink:href="#m07c86af0ec" y="227.632617"/>
     <use style="stroke:#000000;" x="228.164455" xlink:href="#m07c86af0ec" y="268.106421"/>
     <use style="stroke:#000000;" x="120.416788" xlink:href="#m07c86af0ec" y="187.483861"/>
     <use style="stroke:#000000;" x="185.0463" xlink:href="#m07c86af0ec" y="78.307258"/>
     <use style="stroke:#000000;" x="221.07849" xlink:href="#m07c86af0ec" y="181.150388"/>
     <use style="stroke:#000000;" x="393.833506" xlink:href="#m07c86af0ec" y="210.907834"/>
     <use style="stroke:#000000;" x="168.477166" xlink:href="#m07c86af0ec" y="219.730251"/>
     <use style="stroke:#000000;" x="205.452125" xlink:href="#m07c86af0ec" y="125.997095"/>
     <use style="stroke:#000000;" x="239.634269" xlink:href="#m07c86af0ec" y="194.646974"/>
     <use style="stroke:#000000;" x="294.573934" xlink:href="#m07c86af0ec" y="240.331923"/>
     <use style="stroke:#000000;" x="265.489298" xlink:href="#m07c86af0ec" y="53.568"/>
     <use style="stroke:#000000;" x="130.371589" xlink:href="#m07c86af0ec" y="234.668455"/>
     <use style="stroke:#000000;" x="224.459125" xlink:href="#m07c86af0ec" y="256.806307"/>
     <use style="stroke:#000000;" x="149.387647" xlink:href="#m07c86af0ec" y="107.215467"/>
     <use style="stroke:#000000;" x="235.523239" xlink:href="#m07c86af0ec" y="202.131536"/>
     <use style="stroke:#000000;" x="339.551197" xlink:href="#m07c86af0ec" y="186.242088"/>
     <use style="stroke:#000000;" x="252.316702" xlink:href="#m07c86af0ec" y="228.81437"/>
     <use style="stroke:#000000;" x="143.867574" xlink:href="#m07c86af0ec" y="143.627101"/>
     <use style="stroke:#000000;" x="338.512957" xlink:href="#m07c86af0ec" y="97.11967"/>
     <use style="stroke:#000000;" x="218.927015" xlink:href="#m07c86af0ec" y="95.082008"/>
     <use style="stroke:#000000;" x="105.486794" xlink:href="#m07c86af0ec" y="236.952089"/>
     <use style="stroke:#000000;" x="339.088635" xlink:href="#m07c86af0ec" y="146.642425"/>
     <use style="stroke:#000000;" x="223.646164" xlink:href="#m07c86af0ec" y="273.22614"/>
     <use style="stroke:#000000;" x="164.129915" xlink:href="#m07c86af0ec" y="269.415555"/>
     <use style="stroke:#000000;" x="143.141396" xlink:href="#m07c86af0ec" y="209.556432"/>
     <use style="stroke:#000000;" x="223.386856" xlink:href="#m07c86af0ec" y="286.496911"/>
     <use style="stroke:#000000;" x="140.796903" xlink:href="#m07c86af0ec" y="114.295627"/>
     <use style="stroke:#000000;" x="333.16773" xlink:href="#m07c86af0ec" y="216.871621"/>
     <use style="stroke:#000000;" x="113.68976" xlink:href="#m07c86af0ec" y="174.19284"/>
     <use style="stroke:#000000;" x="134.25404" xlink:href="#m07c86af0ec" y="195.103819"/>
     <use style="stroke:#000000;" x="141.725956" xlink:href="#m07c86af0ec" y="225.193006"/>
     <use style="stroke:#000000;" x="289.659624" xlink:href="#m07c86af0ec" y="226.087011"/>
     <use style="stroke:#000000;" x="226.645441" xlink:href="#m07c86af0ec" y="211.322493"/>
     <use style="stroke:#000000;" x="283.619332" xlink:href="#m07c86af0ec" y="108.015524"/>
     <use style="stroke:#000000;" x="152.730714" xlink:href="#m07c86af0ec" y="158.444649"/>
     <use style="stroke:#000000;" x="268.506832" xlink:href="#m07c86af0ec" y="197.381739"/>
     <use style="stroke:#000000;" x="258.271467" xlink:href="#m07c86af0ec" y="94.022464"/>
     <use style="stroke:#000000;" x="113.617058" xlink:href="#m07c86af0ec" y="246.551826"/>
     <use style="stroke:#000000;" x="108.877658" xlink:href="#m07c86af0ec" y="231.61285"/>
     <use style="stroke:#000000;" x="301.362501" xlink:href="#m07c86af0ec" y="128.373436"/>
     <use style="stroke:#000000;" x="257.548952" xlink:href="#m07c86af0ec" y="78.712592"/>
     <use style="stroke:#000000;" x="264.966524" xlink:href="#m07c86af0ec" y="56.677283"/>
     <use style="stroke:#000000;" x="363.255972" xlink:href="#m07c86af0ec" y="192.489584"/>
     <use style="stroke:#000000;" x="389.860795" xlink:href="#m07c86af0ec" y="217.513572"/>
     <use style="stroke:#000000;" x="283.121145" xlink:href="#m07c86af0ec" y="174.83399"/>
     <use style="stroke:#000000;" x="371.987801" xlink:href="#m07c86af0ec" y="220.770951"/>
     <use style="stroke:#000000;" x="226.048731" xlink:href="#m07c86af0ec" y="193.754318"/>
     <use style="stroke:#000000;" x="328.971456" xlink:href="#m07c86af0ec" y="88.538302"/>
     <use style="stroke:#000000;" x="157.429173" xlink:href="#m07c86af0ec" y="220.492718"/>
     <use style="stroke:#000000;" x="187.563159" xlink:href="#m07c86af0ec" y="218.411022"/>
     <use style="stroke:#000000;" x="239.684697" xlink:href="#m07c86af0ec" y="177.291389"/>
     <use style="stroke:#000000;" x="201.693088" xlink:href="#m07c86af0ec" y="89.290323"/>
     <use style="stroke:#000000;" x="298.98361" xlink:href="#m07c86af0ec" y="168.569406"/>
     <use style="stroke:#000000;" x="184.273452" xlink:href="#m07c86af0ec" y="109.591541"/>
     <use style="stroke:#000000;" x="292.907507" xlink:href="#m07c86af0ec" y="122.902255"/>
     <use style="stroke:#000000;" x="144.248881" xlink:href="#m07c86af0ec" y="143.417871"/>
     <use style="stroke:#000000;" x="210.177684" xlink:href="#m07c86af0ec" y="201.44411"/>
     <use style="stroke:#000000;" x="121.970441" xlink:href="#m07c86af0ec" y="163.984892"/>
     <use style="stroke:#000000;" x="202.371888" xlink:href="#m07c86af0ec" y="64.080353"/>
     <use style="stroke:#000000;" x="371.380053" xlink:href="#m07c86af0ec" y="206.647313"/>
     <use style="stroke:#000000;" x="194.614059" xlink:href="#m07c86af0ec" y="178.441302"/>
     <use style="stroke:#000000;" x="336.354056" xlink:href="#m07c86af0ec" y="178.330242"/>
     <use style="stroke:#000000;" x="172.544714" xlink:href="#m07c86af0ec" y="91.292636"/>
     <use style="stroke:#000000;" x="219.586901" xlink:href="#m07c86af0ec" y="63.846496"/>
     <use style="stroke:#000000;" x="135.379064" xlink:href="#m07c86af0ec" y="252.100462"/>
     <use style="stroke:#000000;" x="159.354396" xlink:href="#m07c86af0ec" y="231.938663"/>
    </g>
   </g>
   <g id="patch_3">
    <path d="M 57.6 307.584 
L 57.6 41.472 
" style="fill:none;stroke:#000000;stroke-linecap:square;stroke-linejoin:miter;stroke-width:0.8;"/>
   </g>
   <g id="patch_4">
    <path d="M 414.72 307.584 
L 414.72 41.472 
" style="fill:none;stroke:#000000;stroke-linecap:square;stroke-linejoin:miter;stroke-width:0.8;"/>
   </g>
   <g id="patch_5">
    <path d="M 57.6 307.584 
L 414.72 307.584 
" style="fill:none;stroke:#000000;stroke-linecap:square;stroke-linejoin:miter;stroke-width:0.8;"/>
   </g>
   <g id="patch_6">
    <path d="M 57.6 41.472 
L 414.72 41.472 
" style="fill:none;stroke:#000000;stroke-linecap:square;stroke-linejoin:miter;stroke-width:0.8;"/>
   </g>
   <g id="text_14">
    <!-- OPTICS Number of clusters: 1 -->
    <defs>
     <path d="M 39.40625 66.21875 
Q 28.65625 66.21875 22.328125 58.203125 
Q 16.015625 50.203125 16.015625 36.375 
Q 16.015625 22.609375 22.328125 14.59375 
Q 28.65625 6.59375 39.40625 6.59375 
Q 50.140625 6.59375 56.421875 14.59375 
Q 62.703125 22.609375 62.703125 36.375 
Q 62.703125 50.203125 56.421875 58.203125 
Q 50.140625 66.21875 39.40625 66.21875 
z
M 39.40625 74.21875 
Q 54.734375 74.21875 63.90625 63.9375 
Q 73.09375 53.65625 73.09375 36.375 
Q 73.09375 19.140625 63.90625 8.859375 
Q 54.734375 -1.421875 39.40625 -1.421875 
Q 24.03125 -1.421875 14.8125 8.828125 
Q 5.609375 19.09375 5.609375 36.375 
Q 5.609375 53.65625 14.8125 63.9375 
Q 24.03125 74.21875 39.40625 74.21875 
z
" id="DejaVuSans-79"/>
     <path d="M 19.671875 64.796875 
L 19.671875 37.40625 
L 32.078125 37.40625 
Q 38.96875 37.40625 42.71875 40.96875 
Q 46.484375 44.53125 46.484375 51.125 
Q 46.484375 57.671875 42.71875 61.234375 
Q 38.96875 64.796875 32.078125 64.796875 
z
M 9.8125 72.90625 
L 32.078125 72.90625 
Q 44.34375 72.90625 50.609375 67.359375 
Q 56.890625 61.8125 56.890625 51.125 
Q 56.890625 40.328125 50.609375 34.8125 
Q 44.34375 29.296875 32.078125 29.296875 
L 19.671875 29.296875 
L 19.671875 0 
L 9.8125 0 
z
" id="DejaVuSans-80"/>
     <path d="M -0.296875 72.90625 
L 61.375 72.90625 
L 61.375 64.59375 
L 35.5 64.59375 
L 35.5 0 
L 25.59375 0 
L 25.59375 64.59375 
L -0.296875 64.59375 
z
" id="DejaVuSans-84"/>
     <path d="M 9.8125 72.90625 
L 19.671875 72.90625 
L 19.671875 0 
L 9.8125 0 
z
" id="DejaVuSans-73"/>
     <path d="M 64.40625 67.28125 
L 64.40625 56.890625 
Q 59.421875 61.53125 53.78125 63.8125 
Q 48.140625 66.109375 41.796875 66.109375 
Q 29.296875 66.109375 22.65625 58.46875 
Q 16.015625 50.828125 16.015625 36.375 
Q 16.015625 21.96875 22.65625 14.328125 
Q 29.296875 6.6875 41.796875 6.6875 
Q 48.140625 6.6875 53.78125 8.984375 
Q 59.421875 11.28125 64.40625 15.921875 
L 64.40625 5.609375 
Q 59.234375 2.09375 53.4375 0.328125 
Q 47.65625 -1.421875 41.21875 -1.421875 
Q 24.65625 -1.421875 15.125 8.703125 
Q 5.609375 18.84375 5.609375 36.375 
Q 5.609375 53.953125 15.125 64.078125 
Q 24.65625 74.21875 41.21875 74.21875 
Q 47.75 74.21875 53.53125 72.484375 
Q 59.328125 70.75 64.40625 67.28125 
z
" id="DejaVuSans-67"/>
     <path d="M 53.515625 70.515625 
L 53.515625 60.890625 
Q 47.90625 63.578125 42.921875 64.890625 
Q 37.9375 66.21875 33.296875 66.21875 
Q 25.25 66.21875 20.875 63.09375 
Q 16.5 59.96875 16.5 54.203125 
Q 16.5 49.359375 19.40625 46.890625 
Q 22.3125 44.4375 30.421875 42.921875 
L 36.375 41.703125 
Q 47.40625 39.59375 52.65625 34.296875 
Q 57.90625 29 57.90625 20.125 
Q 57.90625 9.515625 50.796875 4.046875 
Q 43.703125 -1.421875 29.984375 -1.421875 
Q 24.8125 -1.421875 18.96875 -0.25 
Q 13.140625 0.921875 6.890625 3.21875 
L 6.890625 13.375 
Q 12.890625 10.015625 18.65625 8.296875 
Q 24.421875 6.59375 29.984375 6.59375 
Q 38.421875 6.59375 43.015625 9.90625 
Q 47.609375 13.234375 47.609375 19.390625 
Q 47.609375 24.75 44.3125 27.78125 
Q 41.015625 30.8125 33.5 32.328125 
L 27.484375 33.5 
Q 16.453125 35.6875 11.515625 40.375 
Q 6.59375 45.0625 6.59375 53.421875 
Q 6.59375 63.09375 13.40625 68.65625 
Q 20.21875 74.21875 32.171875 74.21875 
Q 37.3125 74.21875 42.625 73.28125 
Q 47.953125 72.359375 53.515625 70.515625 
z
" id="DejaVuSans-83"/>
     <path id="DejaVuSans-32"/>
     <path d="M 9.8125 72.90625 
L 23.09375 72.90625 
L 55.421875 11.921875 
L 55.421875 72.90625 
L 64.984375 72.90625 
L 64.984375 0 
L 51.703125 0 
L 19.390625 60.984375 
L 19.390625 0 
L 9.8125 0 
z
" id="DejaVuSans-78"/>
     <path d="M 8.5 21.578125 
L 8.5 54.6875 
L 17.484375 54.6875 
L 17.484375 21.921875 
Q 17.484375 14.15625 20.5 10.265625 
Q 23.53125 6.390625 29.59375 6.390625 
Q 36.859375 6.390625 41.078125 11.03125 
Q 45.3125 15.671875 45.3125 23.6875 
L 45.3125 54.6875 
L 54.296875 54.6875 
L 54.296875 0 
L 45.3125 0 
L 45.3125 8.40625 
Q 42.046875 3.421875 37.71875 1 
Q 33.40625 -1.421875 27.6875 -1.421875 
Q 18.265625 -1.421875 13.375 4.4375 
Q 8.5 10.296875 8.5 21.578125 
z
M 31.109375 56 
z
" id="DejaVuSans-117"/>
     <path d="M 52 44.1875 
Q 55.375 50.25 60.0625 53.125 
Q 64.75 56 71.09375 56 
Q 79.640625 56 84.28125 50.015625 
Q 88.921875 44.046875 88.921875 33.015625 
L 88.921875 0 
L 79.890625 0 
L 79.890625 32.71875 
Q 79.890625 40.578125 77.09375 44.375 
Q 74.3125 48.1875 68.609375 48.1875 
Q 61.625 48.1875 57.5625 43.546875 
Q 53.515625 38.921875 53.515625 30.90625 
L 53.515625 0 
L 44.484375 0 
L 44.484375 32.71875 
Q 44.484375 40.625 41.703125 44.40625 
Q 38.921875 48.1875 33.109375 48.1875 
Q 26.21875 48.1875 22.15625 43.53125 
Q 18.109375 38.875 18.109375 30.90625 
L 18.109375 0 
L 9.078125 0 
L 9.078125 54.6875 
L 18.109375 54.6875 
L 18.109375 46.1875 
Q 21.1875 51.21875 25.484375 53.609375 
Q 29.78125 56 35.6875 56 
Q 41.65625 56 45.828125 52.96875 
Q 50 49.953125 52 44.1875 
z
" id="DejaVuSans-109"/>
     <path d="M 48.6875 27.296875 
Q 48.6875 37.203125 44.609375 42.84375 
Q 40.53125 48.484375 33.40625 48.484375 
Q 26.265625 48.484375 22.1875 42.84375 
Q 18.109375 37.203125 18.109375 27.296875 
Q 18.109375 17.390625 22.1875 11.75 
Q 26.265625 6.109375 33.40625 6.109375 
Q 40.53125 6.109375 44.609375 11.75 
Q 48.6875 17.390625 48.6875 27.296875 
z
M 18.109375 46.390625 
Q 20.953125 51.265625 25.265625 53.625 
Q 29.59375 56 35.59375 56 
Q 45.5625 56 51.78125 48.09375 
Q 58.015625 40.1875 58.015625 27.296875 
Q 58.015625 14.40625 51.78125 6.484375 
Q 45.5625 -1.421875 35.59375 -1.421875 
Q 29.59375 -1.421875 25.265625 0.953125 
Q 20.953125 3.328125 18.109375 8.203125 
L 18.109375 0 
L 9.078125 0 
L 9.078125 75.984375 
L 18.109375 75.984375 
z
" id="DejaVuSans-98"/>
     <path d="M 56.203125 29.59375 
L 56.203125 25.203125 
L 14.890625 25.203125 
Q 15.484375 15.921875 20.484375 11.0625 
Q 25.484375 6.203125 34.421875 6.203125 
Q 39.59375 6.203125 44.453125 7.46875 
Q 49.3125 8.734375 54.109375 11.28125 
L 54.109375 2.78125 
Q 49.265625 0.734375 44.1875 -0.34375 
Q 39.109375 -1.421875 33.890625 -1.421875 
Q 20.796875 -1.421875 13.15625 6.1875 
Q 5.515625 13.8125 5.515625 26.8125 
Q 5.515625 40.234375 12.765625 48.109375 
Q 20.015625 56 32.328125 56 
Q 43.359375 56 49.78125 48.890625 
Q 56.203125 41.796875 56.203125 29.59375 
z
M 47.21875 32.234375 
Q 47.125 39.59375 43.09375 43.984375 
Q 39.0625 48.390625 32.421875 48.390625 
Q 24.90625 48.390625 20.390625 44.140625 
Q 15.875 39.890625 15.1875 32.171875 
z
" id="DejaVuSans-101"/>
     <path d="M 41.109375 46.296875 
Q 39.59375 47.171875 37.8125 47.578125 
Q 36.03125 48 33.890625 48 
Q 26.265625 48 22.1875 43.046875 
Q 18.109375 38.09375 18.109375 28.8125 
L 18.109375 0 
L 9.078125 0 
L 9.078125 54.6875 
L 18.109375 54.6875 
L 18.109375 46.1875 
Q 20.953125 51.171875 25.484375 53.578125 
Q 30.03125 56 36.53125 56 
Q 37.453125 56 38.578125 55.875 
Q 39.703125 55.765625 41.0625 55.515625 
z
" id="DejaVuSans-114"/>
     <path d="M 30.609375 48.390625 
Q 23.390625 48.390625 19.1875 42.75 
Q 14.984375 37.109375 14.984375 27.296875 
Q 14.984375 17.484375 19.15625 11.84375 
Q 23.34375 6.203125 30.609375 6.203125 
Q 37.796875 6.203125 41.984375 11.859375 
Q 46.1875 17.53125 46.1875 27.296875 
Q 46.1875 37.015625 41.984375 42.703125 
Q 37.796875 48.390625 30.609375 48.390625 
z
M 30.609375 56 
Q 42.328125 56 49.015625 48.375 
Q 55.71875 40.765625 55.71875 27.296875 
Q 55.71875 13.875 49.015625 6.21875 
Q 42.328125 -1.421875 30.609375 -1.421875 
Q 18.84375 -1.421875 12.171875 6.21875 
Q 5.515625 13.875 5.515625 27.296875 
Q 5.515625 40.765625 12.171875 48.375 
Q 18.84375 56 30.609375 56 
z
" id="DejaVuSans-111"/>
     <path d="M 37.109375 75.984375 
L 37.109375 68.5 
L 28.515625 68.5 
Q 23.6875 68.5 21.796875 66.546875 
Q 19.921875 64.59375 19.921875 59.515625 
L 19.921875 54.6875 
L 34.71875 54.6875 
L 34.71875 47.703125 
L 19.921875 47.703125 
L 19.921875 0 
L 10.890625 0 
L 10.890625 47.703125 
L 2.296875 47.703125 
L 2.296875 54.6875 
L 10.890625 54.6875 
L 10.890625 58.5 
Q 10.890625 67.625 15.140625 71.796875 
Q 19.390625 75.984375 28.609375 75.984375 
z
" id="DejaVuSans-102"/>
     <path d="M 48.78125 52.59375 
L 48.78125 44.1875 
Q 44.96875 46.296875 41.140625 47.34375 
Q 37.3125 48.390625 33.40625 48.390625 
Q 24.65625 48.390625 19.8125 42.84375 
Q 14.984375 37.3125 14.984375 27.296875 
Q 14.984375 17.28125 19.8125 11.734375 
Q 24.65625 6.203125 33.40625 6.203125 
Q 37.3125 6.203125 41.140625 7.25 
Q 44.96875 8.296875 48.78125 10.40625 
L 48.78125 2.09375 
Q 45.015625 0.34375 40.984375 -0.53125 
Q 36.96875 -1.421875 32.421875 -1.421875 
Q 20.0625 -1.421875 12.78125 6.34375 
Q 5.515625 14.109375 5.515625 27.296875 
Q 5.515625 40.671875 12.859375 48.328125 
Q 20.21875 56 33.015625 56 
Q 37.15625 56 41.109375 55.140625 
Q 45.0625 54.296875 48.78125 52.59375 
z
" id="DejaVuSans-99"/>
     <path d="M 9.421875 75.984375 
L 18.40625 75.984375 
L 18.40625 0 
L 9.421875 0 
z
" id="DejaVuSans-108"/>
     <path d="M 44.28125 53.078125 
L 44.28125 44.578125 
Q 40.484375 46.53125 36.375 47.5 
Q 32.28125 48.484375 27.875 48.484375 
Q 21.1875 48.484375 17.84375 46.4375 
Q 14.5 44.390625 14.5 40.28125 
Q 14.5 37.15625 16.890625 35.375 
Q 19.28125 33.59375 26.515625 31.984375 
L 29.59375 31.296875 
Q 39.15625 29.25 43.1875 25.515625 
Q 47.21875 21.78125 47.21875 15.09375 
Q 47.21875 7.46875 41.1875 3.015625 
Q 35.15625 -1.421875 24.609375 -1.421875 
Q 20.21875 -1.421875 15.453125 -0.5625 
Q 10.6875 0.296875 5.421875 2 
L 5.421875 11.28125 
Q 10.40625 8.6875 15.234375 7.390625 
Q 20.0625 6.109375 24.8125 6.109375 
Q 31.15625 6.109375 34.5625 8.28125 
Q 37.984375 10.453125 37.984375 14.40625 
Q 37.984375 18.0625 35.515625 20.015625 
Q 33.0625 21.96875 24.703125 23.78125 
L 21.578125 24.515625 
Q 13.234375 26.265625 9.515625 29.90625 
Q 5.8125 33.546875 5.8125 39.890625 
Q 5.8125 47.609375 11.28125 51.796875 
Q 16.75 56 26.8125 56 
Q 31.78125 56 36.171875 55.265625 
Q 40.578125 54.546875 44.28125 53.078125 
z
" id="DejaVuSans-115"/>
     <path d="M 18.3125 70.21875 
L 18.3125 54.6875 
L 36.8125 54.6875 
L 36.8125 47.703125 
L 18.3125 47.703125 
L 18.3125 18.015625 
Q 18.3125 11.328125 20.140625 9.421875 
Q 21.96875 7.515625 27.59375 7.515625 
L 36.8125 7.515625 
L 36.8125 0 
L 27.59375 0 
Q 17.1875 0 13.234375 3.875 
Q 9.28125 7.765625 9.28125 18.015625 
L 9.28125 47.703125 
L 2.6875 47.703125 
L 2.6875 54.6875 
L 9.28125 54.6875 
L 9.28125 70.21875 
z
" id="DejaVuSans-116"/>
     <path d="M 11.71875 12.40625 
L 22.015625 12.40625 
L 22.015625 0 
L 11.71875 0 
z
M 11.71875 51.703125 
L 22.015625 51.703125 
L 22.015625 39.3125 
L 11.71875 39.3125 
z
" id="DejaVuSans-58"/>
    </defs>
    <g transform="translate(147.5025 35.472)scale(0.12 -0.12)">
     <use xlink:href="#DejaVuSans-79"/>
     <use x="78.710938" xlink:href="#DejaVuSans-80"/>
     <use x="139.013672" xlink:href="#DejaVuSans-84"/>
     <use x="200.097656" xlink:href="#DejaVuSans-73"/>
     <use x="229.589844" xlink:href="#DejaVuSans-67"/>
     <use x="299.414062" xlink:href="#DejaVuSans-83"/>
     <use x="362.890625" xlink:href="#DejaVuSans-32"/>
     <use x="394.677734" xlink:href="#DejaVuSans-78"/>
     <use x="469.482422" xlink:href="#DejaVuSans-117"/>
     <use x="532.861328" xlink:href="#DejaVuSans-109"/>
     <use x="630.273438" xlink:href="#DejaVuSans-98"/>
     <use x="693.75" xlink:href="#DejaVuSans-101"/>
     <use x="755.273438" xlink:href="#DejaVuSans-114"/>
     <use x="796.386719" xlink:href="#DejaVuSans-32"/>
     <use x="828.173828" xlink:href="#DejaVuSans-111"/>
     <use x="889.355469" xlink:href="#DejaVuSans-102"/>
     <use x="924.560547" xlink:href="#DejaVuSans-32"/>
     <use x="956.347656" xlink:href="#DejaVuSans-99"/>
     <use x="1011.328125" xlink:href="#DejaVuSans-108"/>
     <use x="1039.111328" xlink:href="#DejaVuSans-117"/>
     <use x="1102.490234" xlink:href="#DejaVuSans-115"/>
     <use x="1154.589844" xlink:href="#DejaVuSans-116"/>
     <use x="1193.798828" xlink:href="#DejaVuSans-101"/>
     <use x="1255.322266" xlink:href="#DejaVuSans-114"/>
     <use x="1296.435547" xlink:href="#DejaVuSans-115"/>
     <use x="1348.535156" xlink:href="#DejaVuSans-58"/>
     <use x="1382.226562" xlink:href="#DejaVuSans-32"/>
     <use x="1414.013672" xlink:href="#DejaVuSans-49"/>
    </g>
   </g>
  </g>
 </g>
 <defs>
  <clipPath id="p21a26c1ba1">
   <rect height="266.112" width="357.12" x="57.6" y="41.472"/>
  </clipPath>
 </defs>
</svg>
