<?xml version="1.0" encoding="UTF-8"?><svg xmlns="http://www.w3.org/2000/svg" xmlns:xlink="http://www.w3.org/1999/xlink" fill-opacity="1" color-rendering="auto" color-interpolation="auto" text-rendering="auto" stroke="black" stroke-linecap="square" width="736" stroke-miterlimit="10" shape-rendering="auto" stroke-opacity="1" fill="black" stroke-dasharray="none" font-weight="normal" stroke-width="1" height="643" font-family="'Dialog'" font-style="normal" stroke-linejoin="miter" font-size="12px" stroke-dashoffset="0" image-rendering="auto">
  <!--Generated by ySVG 2.5-->
  <defs id="genericDefs"/>
  <g>
    <defs id="defs1">
      <clipPath clipPathUnits="userSpaceOnUse" id="clipPath1">
        <path d="M0 0 L736 0 L736 643 L0 643 L0 0 Z"/>
      </clipPath>
      <clipPath clipPathUnits="userSpaceOnUse" id="clipPath2">
        <path d="M-44 -81 L692 -81 L692 562 L-44 562 L-44 -81 Z"/>
      </clipPath>
    </defs>
    <g fill="white" text-rendering="geometricPrecision" shape-rendering="geometricPrecision" transform="translate(44,81)" stroke="white">
      <rect x="-44" width="736" height="643" y="-81" clip-path="url(#clipPath2)" stroke="none"/>
    </g>
    <g font-size="22px" stroke-linecap="butt" transform="matrix(1,0,0,1,44,81)" text-rendering="geometricPrecision" font-family="'Fira Mono'" shape-rendering="geometricPrecision" stroke-miterlimit="1.45">
      <text x="595.2664" xml:space="preserve" y="-16.8397" clip-path="url(#clipPath2)" stroke="none">:Hobby</text>
      <text x="629.7452" font-size="17px" y="16.7818" clip-path="url(#clipPath2)" stroke="none" font-weight="bold" xml:space="preserve">4</text>
      <circle fill="none" stroke-width="2" r="16.1003" clip-path="url(#clipPath2)" cx="634.8447" cy="11.0874"/>
      <text x="321.9063" xml:space="preserve" y="-43.2252" clip-path="url(#clipPath2)" stroke="none">:Person</text>
      <text x="315.3099" xml:space="preserve" y="-16.8397" clip-path="url(#clipPath2)" stroke="none">:Teacher</text>
      <text x="362.9814" font-size="17px" y="16.7818" clip-path="url(#clipPath2)" stroke="none" font-weight="bold" xml:space="preserve">2</text>
      <circle fill="none" stroke-width="2" r="16.1003" clip-path="url(#clipPath2)" cx="368.0809" cy="11.0874"/>
      <text x="-26.3252" xml:space="preserve" y="5.2606" clip-path="url(#clipPath2)" stroke="none">:Student</text>
      <text x="-19.7288" xml:space="preserve" y="31.6461" clip-path="url(#clipPath2)" stroke="none">:Person</text>
      <text x="96.2177" font-size="17px" y="16.7818" clip-path="url(#clipPath2)" stroke="none" font-weight="bold" xml:space="preserve">1</text>
      <circle fill="none" stroke-width="2" r="16.1003" clip-path="url(#clipPath2)" cx="101.3172" cy="11.0874"/>
      <text x="-13.1324" xml:space="preserve" y="278.2033" clip-path="url(#clipPath2)" stroke="none">:Person</text>
      <text x="96.2177" font-size="17px" y="276.5318" clip-path="url(#clipPath2)" stroke="none" font-weight="bold" xml:space="preserve">3</text>
      <circle fill="none" stroke-width="2" r="16.1003" clip-path="url(#clipPath2)" cx="101.3172" cy="270.8374"/>
      <text x="123.4175" xml:space="preserve" y="537.9533" clip-path="url(#clipPath2)" stroke="none">:Hobby</text>
      <text x="96.2177" font-size="17px" y="536.2818" clip-path="url(#clipPath2)" stroke="none" font-weight="bold" xml:space="preserve">6</text>
      <circle fill="none" stroke-width="2" r="16.1003" clip-path="url(#clipPath2)" cx="101.3172" cy="530.5874"/>
      <text x="416.5667" xml:space="preserve" y="265.0106" clip-path="url(#clipPath2)" stroke="none">:Hobby</text>
      <text x="390.1812" xml:space="preserve" y="291.3961" clip-path="url(#clipPath2)" stroke="none">:Expensive</text>
      <text x="362.9814" font-size="17px" y="276.5318" clip-path="url(#clipPath2)" stroke="none" font-weight="bold" xml:space="preserve">5</text>
      <circle fill="none" stroke-width="2" r="16.1003" clip-path="url(#clipPath2)" cx="368.0809" cy="270.8374"/>
      <path fill="none" d="M384.1812 11.0874 L610.7443 11.0874" clip-path="url(#clipPath2)"/>
      <path d="M618.7443 11.0874 L606.7443 6.0874 L609.7443 11.0874 L606.7443 16.0874 Z" stroke="none" clip-path="url(#clipPath2)"/>
    </g>
    <g stroke-linecap="butt" transform="matrix(1,0,0,1,44,81)" fill="white" text-rendering="geometricPrecision" shape-rendering="geometricPrecision" stroke="white" stroke-miterlimit="1.45">
      <rect x="453.2882" width="96.3492" height="30.3855" y="-4.1054" clip-path="url(#clipPath2)" stroke="none"/>
    </g>
    <g font-size="22px" stroke-linecap="butt" transform="matrix(1,0,0,1,44,81)" text-rendering="geometricPrecision" font-family="'Fira Mono'" shape-rendering="geometricPrecision" stroke-miterlimit="1.45">
      <text x="455.2881" xml:space="preserve" y="18.4533" clip-path="url(#clipPath2)" stroke="none">5:LIKES</text>
      <path fill="none" d="M117.4175 11.0874 L343.9806 11.0874" clip-path="url(#clipPath2)"/>
      <path d="M351.9806 11.0874 L339.9806 6.0874 L342.9806 11.0874 L339.9806 16.0874 Z" stroke="none" clip-path="url(#clipPath2)"/>
    </g>
    <g stroke-linecap="butt" transform="matrix(1,0,0,1,44,81)" fill="white" text-rendering="geometricPrecision" shape-rendering="geometricPrecision" stroke="white" stroke-miterlimit="1.45">
      <rect x="179.928" width="109.542" height="30.3855" y="-4.1054" clip-path="url(#clipPath2)" stroke="none"/>
    </g>
    <g font-size="22px" stroke-linecap="butt" transform="matrix(1,0,0,1,44,81)" text-rendering="geometricPrecision" font-family="'Fira Mono'" shape-rendering="geometricPrecision" stroke-miterlimit="1.45">
      <text x="181.928" xml:space="preserve" y="18.4533" clip-path="url(#clipPath2)" stroke="none">1:FRIEND</text>
      <path fill="none" d="M101.3172 27.1877 L101.3172 226.8685 L101.3172 226.8685 L101.3172 246.7371" clip-path="url(#clipPath2)"/>
      <path d="M101.3172 254.7371 L106.3172 242.7371 L101.3172 245.7371 L96.3172 242.7371 Z" stroke="none" clip-path="url(#clipPath2)"/>
    </g>
    <g stroke-linecap="butt" transform="matrix(1,0,0,1,44,81)" fill="white" text-rendering="geometricPrecision" shape-rendering="geometricPrecision" stroke="white" stroke-miterlimit="1.45">
      <rect x="46.5462" width="109.542" height="30.3855" y="121.9317" clip-path="url(#clipPath2)" stroke="none"/>
    </g>
    <g font-size="22px" stroke-linecap="butt" transform="matrix(1,0,0,1,44,81)" text-rendering="geometricPrecision" font-family="'Fira Mono'" shape-rendering="geometricPrecision" stroke-miterlimit="1.45">
      <text x="48.5462" xml:space="preserve" y="144.4904" clip-path="url(#clipPath2)" stroke="none">4:FRIEND</text>
      <path fill="none" d="M101.3172 286.9377 L101.3172 506.4871" clip-path="url(#clipPath2)"/>
      <path d="M101.3172 514.4871 L106.3172 502.4871 L101.3172 505.4871 L96.3172 502.4871 Z" stroke="none" clip-path="url(#clipPath2)"/>
    </g>
    <g stroke-linecap="butt" transform="matrix(1,0,0,1,44,81)" fill="white" text-rendering="geometricPrecision" shape-rendering="geometricPrecision" stroke="white" stroke-miterlimit="1.45">
      <rect x="53.1425" width="96.3492" height="30.3855" y="385.5196" clip-path="url(#clipPath2)" stroke="none"/>
    </g>
    <g font-size="22px" stroke-linecap="butt" transform="matrix(1,0,0,1,44,81)" text-rendering="geometricPrecision" font-family="'Fira Mono'" shape-rendering="geometricPrecision" stroke-miterlimit="1.45">
      <text x="55.1425" xml:space="preserve" y="408.0783" clip-path="url(#clipPath2)" stroke="none">2:LIKES</text>
      <path fill="none" d="M117.4175 270.8374 L343.9806 270.8374" clip-path="url(#clipPath2)"/>
      <path d="M351.9806 270.8374 L339.9806 265.8374 L342.9806 270.8374 L339.9806 275.8374 Z" stroke="none" clip-path="url(#clipPath2)"/>
    </g>
    <g stroke-linecap="butt" transform="matrix(1,0,0,1,44,81)" fill="white" text-rendering="geometricPrecision" shape-rendering="geometricPrecision" stroke="white" stroke-miterlimit="1.45">
      <rect x="186.5244" width="96.3492" height="30.3855" y="255.6446" clip-path="url(#clipPath2)" stroke="none"/>
    </g>
    <g font-size="22px" stroke-linecap="butt" transform="matrix(1,0,0,1,44,81)" text-rendering="geometricPrecision" font-family="'Fira Mono'" shape-rendering="geometricPrecision" stroke-miterlimit="1.45">
      <text x="188.5244" xml:space="preserve" y="278.2033" clip-path="url(#clipPath2)" stroke="none">3:LIKES</text>
    </g>
  </g>
</svg>
