<?xml version="1.0" encoding="UTF-8"?><svg xmlns="http://www.w3.org/2000/svg" xmlns:xlink="http://www.w3.org/1999/xlink" fill-opacity="1" color-rendering="auto" color-interpolation="auto" text-rendering="auto" stroke="black" stroke-linecap="square" width="656" stroke-miterlimit="10" shape-rendering="auto" stroke-opacity="1" fill="black" stroke-dasharray="none" font-weight="normal" stroke-width="1" height="172" font-family="'Dialog'" font-style="normal" stroke-linejoin="miter" font-size="12px" stroke-dashoffset="0" image-rendering="auto">
  <!--Generated by ySVG 2.5-->
  <defs id="genericDefs"/>
  <g>
    <defs id="defs1">
      <linearGradient x1="549" gradientUnits="userSpaceOnUse" x2="629" y1="745" y2="785" id="linearGradient1" spreadMethod="reflect">
        <stop stop-opacity="1" stop-color="rgb(232,238,247)" offset="0%"/>
        <stop stop-opacity="1" stop-color="rgb(183,201,227)" offset="100%"/>
      </linearGradient>
      <linearGradient x1="410" gradientUnits="userSpaceOnUse" x2="490" y1="659" y2="699" id="linearGradient2" spreadMethod="reflect">
        <stop stop-opacity="1" stop-color="rgb(255,204,0)" offset="0%"/>
        <stop stop-opacity="1" stop-color="rgb(255,153,0)" offset="100%"/>
      </linearGradient>
      <linearGradient x1="688" gradientUnits="userSpaceOnUse" x2="768" y1="659" y2="699" id="linearGradient3" spreadMethod="reflect">
        <stop stop-opacity="1" stop-color="rgb(255,204,0)" offset="0%"/>
        <stop stop-opacity="1" stop-color="rgb(255,153,0)" offset="100%"/>
      </linearGradient>
      <linearGradient x1="410" gradientUnits="userSpaceOnUse" x2="490" y1="745" y2="785" id="linearGradient4" spreadMethod="reflect">
        <stop stop-opacity="1" stop-color="rgb(232,238,247)" offset="0%"/>
        <stop stop-opacity="1" stop-color="rgb(183,201,227)" offset="100%"/>
      </linearGradient>
      <linearGradient x1="688" gradientUnits="userSpaceOnUse" x2="768" y1="745" y2="785" id="linearGradient5" spreadMethod="reflect">
        <stop stop-opacity="1" stop-color="rgb(232,238,247)" offset="0%"/>
        <stop stop-opacity="1" stop-color="rgb(183,201,227)" offset="100%"/>
      </linearGradient>
      <linearGradient x1="142" gradientUnits="userSpaceOnUse" x2="222" y1="659" y2="699" id="linearGradient6" spreadMethod="reflect">
        <stop stop-opacity="1" stop-color="rgb(255,204,0)" offset="0%"/>
        <stop stop-opacity="1" stop-color="rgb(255,153,0)" offset="100%"/>
      </linearGradient>
      <linearGradient x1="152" gradientUnits="userSpaceOnUse" x2="212" y1="729" y2="801" id="linearGradient7" spreadMethod="reflect">
        <stop stop-opacity="1" stop-color="rgb(232,238,247)" offset="0%"/>
        <stop stop-opacity="1" stop-color="rgb(183,201,227)" offset="100%"/>
      </linearGradient>
      <linearGradient x1="271" gradientUnits="userSpaceOnUse" x2="351" y1="745" y2="785" id="linearGradient8" spreadMethod="reflect">
        <stop stop-opacity="1" stop-color="rgb(232,238,247)" offset="0%"/>
        <stop stop-opacity="1" stop-color="rgb(183,201,227)" offset="100%"/>
      </linearGradient>
      <clipPath clipPathUnits="userSpaceOnUse" id="clipPath1">
        <path d="M0 0 L656 0 L656 172 L0 172 L0 0 Z"/>
      </clipPath>
      <clipPath clipPathUnits="userSpaceOnUse" id="clipPath2">
        <path d="M127 644 L783 644 L783 816 L127 816 L127 644 Z"/>
      </clipPath>
    </defs>
    <g fill="white" text-rendering="geometricPrecision" shape-rendering="geometricPrecision" transform="translate(-127,-644)" stroke="white">
      <rect x="127" width="656" height="172" y="644" clip-path="url(#clipPath2)" stroke="none"/>
    </g>
    <g fill="url(#linearGradient1)" text-rendering="geometricPrecision" shape-rendering="geometricPrecision" transform="matrix(1,0,0,1,-127,-644)" stroke="url(#linearGradient1)">
      <path d="M549 745 L629 745 L629 785 L549 785 Z" stroke="none" clip-path="url(#clipPath2)"/>
    </g>
    <g text-rendering="geometricPrecision" stroke-miterlimit="1.45" shape-rendering="geometricPrecision" transform="matrix(1,0,0,1,-127,-644)" stroke-linecap="butt">
      <path fill="none" d="M549 745 L629 745 L629 785 L549 785 Z" clip-path="url(#clipPath2)"/>
      <text x="562.1436" xml:space="preserve" y="769.1543" clip-path="url(#clipPath2)" font-family="sans-serif" stroke="none">Operator</text>
    </g>
    <g fill="url(#linearGradient2)" text-rendering="geometricPrecision" shape-rendering="geometricPrecision" transform="matrix(1,0,0,1,-127,-644)" stroke="url(#linearGradient2)">
      <path d="M420.2 659 L490 659 L479.8 699 L410 699 Z" stroke="none" clip-path="url(#clipPath2)"/>
    </g>
    <g text-rendering="geometricPrecision" stroke-miterlimit="1.45" shape-rendering="geometricPrecision" transform="matrix(1,0,0,1,-127,-644)" stroke-linecap="butt">
      <path fill="none" d="M420.2 659 L490 659 L479.8 699 L410 699 Z" clip-path="url(#clipPath2)"/>
      <text x="434.4639" xml:space="preserve" y="676.1699" clip-path="url(#clipPath2)" font-family="sans-serif" stroke="none">Input</text>
      <text x="419.25" xml:space="preserve" y="690.1387" clip-path="url(#clipPath2)" font-family="sans-serif" stroke="none">properties</text>
    </g>
    <g fill="url(#linearGradient3)" text-rendering="geometricPrecision" shape-rendering="geometricPrecision" transform="matrix(1,0,0,1,-127,-644)" stroke="url(#linearGradient3)">
      <path d="M698.2 659 L768 659 L757.8 699 L688 699 Z" stroke="none" clip-path="url(#clipPath2)"/>
    </g>
    <g text-rendering="geometricPrecision" stroke-miterlimit="1.45" shape-rendering="geometricPrecision" transform="matrix(1,0,0,1,-127,-644)" stroke-linecap="butt">
      <path fill="none" d="M698.2 659 L768 659 L757.8 699 L688 699 Z" clip-path="url(#clipPath2)"/>
      <text x="709.1914" xml:space="preserve" y="676.1699" clip-path="url(#clipPath2)" font-family="sans-serif" stroke="none">Result</text>
      <text x="697.25" xml:space="preserve" y="690.1387" clip-path="url(#clipPath2)" font-family="sans-serif" stroke="none">properties</text>
    </g>
    <g fill="url(#linearGradient4)" text-rendering="geometricPrecision" shape-rendering="geometricPrecision" transform="matrix(1,0,0,1,-127,-644)" stroke="url(#linearGradient4)">
      <path d="M420.2 745 L490 745 L479.8 785 L410 785 Z" stroke="none" clip-path="url(#clipPath2)"/>
    </g>
    <g text-rendering="geometricPrecision" stroke-miterlimit="1.45" shape-rendering="geometricPrecision" transform="matrix(1,0,0,1,-127,-644)" stroke-linecap="butt">
      <path fill="none" d="M420.2 745 L490 745 L479.8 785 L410 785 Z" clip-path="url(#clipPath2)"/>
      <text x="431.3379" xml:space="preserve" y="769.1543" clip-path="url(#clipPath2)" font-family="sans-serif" stroke="none">Inputs</text>
    </g>
    <g fill="url(#linearGradient5)" text-rendering="geometricPrecision" shape-rendering="geometricPrecision" transform="matrix(1,0,0,1,-127,-644)" stroke="url(#linearGradient5)">
      <path d="M698.2 745 L768 745 L757.8 785 L688 785 Z" stroke="none" clip-path="url(#clipPath2)"/>
    </g>
    <g text-rendering="geometricPrecision" stroke-miterlimit="1.45" shape-rendering="geometricPrecision" transform="matrix(1,0,0,1,-127,-644)" stroke-linecap="butt">
      <path fill="none" d="M698.2 745 L768 745 L757.8 785 L688 785 Z" clip-path="url(#clipPath2)"/>
      <text x="709.1914" xml:space="preserve" y="769.1543" clip-path="url(#clipPath2)" font-family="sans-serif" stroke="none">Result</text>
    </g>
    <g fill="url(#linearGradient6)" text-rendering="geometricPrecision" shape-rendering="geometricPrecision" transform="matrix(1,0,0,1,-127,-644)" stroke="url(#linearGradient6)">
      <path d="M152.2 659 L222 659 L211.8 699 L142 699 Z" stroke="none" clip-path="url(#clipPath2)"/>
    </g>
    <g text-rendering="geometricPrecision" stroke-miterlimit="1.45" shape-rendering="geometricPrecision" transform="matrix(1,0,0,1,-127,-644)" stroke-linecap="butt">
      <path fill="none" d="M152.2 659 L222 659 L211.8 699 L142 699 Z" clip-path="url(#clipPath2)"/>
      <text x="153.3711" xml:space="preserve" y="676.1699" clip-path="url(#clipPath2)" font-family="sans-serif" stroke="none">Database</text>
      <text x="151.25" xml:space="preserve" y="690.1387" clip-path="url(#clipPath2)" font-family="sans-serif" stroke="none">properties</text>
    </g>
    <g fill="url(#linearGradient7)" text-rendering="geometricPrecision" shape-rendering="geometricPrecision" transform="matrix(1,0,0,1,-127,-644)" stroke="url(#linearGradient7)">
      <path d="M152 743.4 C153.8 729 210.2 729 212 743.4 L212 786.6 C210.2 801 153.8 801 152 786.6 Z" stroke="none" clip-path="url(#clipPath2)"/>
    </g>
    <g text-rendering="geometricPrecision" stroke-miterlimit="1.45" shape-rendering="geometricPrecision" transform="matrix(1,0,0,1,-127,-644)" stroke-linecap="butt">
      <path fill="none" d="M152 743.4 C153.8 729 210.2 729 212 743.4 L212 786.6 C210.2 801 153.8 801 152 786.6 Z" clip-path="url(#clipPath2)"/>
      <path fill="none" d="M212 743.4 C210.2 757.8 153.8 757.8 152 743.4" clip-path="url(#clipPath2)"/>
      <text x="153.3711" xml:space="preserve" y="769.1543" clip-path="url(#clipPath2)" font-family="sans-serif" stroke="none">Database</text>
    </g>
    <g fill="url(#linearGradient8)" text-rendering="geometricPrecision" shape-rendering="geometricPrecision" transform="matrix(1,0,0,1,-127,-644)" stroke="url(#linearGradient8)">
      <path d="M271 745 L351 745 L351 785 L271 785 Z" stroke="none" clip-path="url(#clipPath2)"/>
    </g>
    <g text-rendering="geometricPrecision" stroke-miterlimit="1.45" shape-rendering="geometricPrecision" transform="matrix(1,0,0,1,-127,-644)" stroke-linecap="butt">
      <path fill="none" d="M271 745 L351 745 L351 785 L271 785 Z" clip-path="url(#clipPath2)"/>
      <text x="285.4062" xml:space="preserve" y="762.1699" clip-path="url(#clipPath2)" font-family="sans-serif" stroke="none">Previous</text>
      <text x="281.0176" xml:space="preserve" y="776.1387" clip-path="url(#clipPath2)" font-family="sans-serif" stroke="none">Operators</text>
    </g>
    <g text-rendering="geometricPrecision" stroke-miterlimit="1.45" shape-rendering="geometricPrecision" transform="matrix(1,0,0,1,-127,-644)" stroke-linecap="butt">
      <path fill="none" d="M484.9197 765 L540.9789 765" clip-path="url(#clipPath2)"/>
    </g>
    <g text-rendering="geometricPrecision" stroke-miterlimit="1.45" shape-rendering="geometricPrecision" transform="matrix(1,0,0,1,-127,-644)" stroke-linecap="butt">
      <path d="M548.9789 765 L536.9789 760 L539.9789 765 L536.9789 770 Z" stroke="none" clip-path="url(#clipPath2)"/>
      <path fill="none" d="M450 744.9697 L450 707.0035" clip-path="url(#clipPath2)"/>
      <path d="M450 699.0035 L445 711.0035 L450 708.0035 L455 711.0035 Z" clip-path="url(#clipPath2)" stroke="none"/>
      <path fill="none" d="M629.01 765 L685.0538 765" clip-path="url(#clipPath2)"/>
      <path d="M693.0538 765 L681.0538 760 L684.0538 765 L681.0538 770 Z" clip-path="url(#clipPath2)" stroke="none"/>
      <path fill="none" d="M728 744.9697 L728 707.0035" clip-path="url(#clipPath2)"/>
      <path d="M728 699.0035 L723 711.0035 L728 708.0035 L733 711.0035 Z" clip-path="url(#clipPath2)" stroke="none"/>
      <path fill="none" d="M182 732.624 L182 706.9781" clip-path="url(#clipPath2)"/>
      <path d="M182 698.9781 L177 710.9781 L182 707.9781 L187 710.9781 Z" clip-path="url(#clipPath2)" stroke="none"/>
      <path fill="none" d="M212.0139 765 L263.0286 765" clip-path="url(#clipPath2)"/>
      <path d="M271.0286 765 L259.0286 760 L262.0286 765 L259.0286 770 Z" clip-path="url(#clipPath2)" stroke="none"/>
      <path fill="none" d="M351.01 765 L407.0538 765" clip-path="url(#clipPath2)"/>
      <path d="M415.0538 765 L403.0538 760 L406.0538 765 L403.0538 770 Z" clip-path="url(#clipPath2)" stroke="none"/>
    </g>
  </g>
</svg>
