<?xml version="1.0" encoding="UTF-8"?><svg xmlns="http://www.w3.org/2000/svg" xmlns:xlink="http://www.w3.org/1999/xlink" fill-opacity="1" color-rendering="auto" color-interpolation="auto" text-rendering="auto" stroke="black" stroke-linecap="square" width="669" stroke-miterlimit="10" shape-rendering="auto" stroke-opacity="1" fill="black" stroke-dasharray="none" font-weight="normal" stroke-width="1" height="185" font-family="'Dialog'" font-style="normal" stroke-linejoin="miter" font-size="12px" stroke-dashoffset="0" image-rendering="auto">
  <!--Generated by ySVG 2.5-->
  <defs id="genericDefs"/>
  <g>
    <defs id="defs1">
      <linearGradient x1="550.12" gradientUnits="userSpaceOnUse" x2="630.12" y1="745" y2="785" id="linearGradient1" spreadMethod="reflect">
        <stop stop-opacity="1" stop-color="rgb(232,238,247)" offset="0%"/>
        <stop stop-opacity="1" stop-color="rgb(183,201,227)" offset="100%"/>
      </linearGradient>
      <linearGradient x1="399.5" gradientUnits="userSpaceOnUse" x2="500.5" y1="646" y2="699" id="linearGradient2" spreadMethod="reflect">
        <stop stop-opacity="1" stop-color="rgb(255,204,0)" offset="0%"/>
        <stop stop-opacity="1" stop-color="rgb(255,153,0)" offset="100%"/>
      </linearGradient>
      <linearGradient x1="410.56" gradientUnits="userSpaceOnUse" x2="490.56" y1="745" y2="785" id="linearGradient3" spreadMethod="reflect">
        <stop stop-opacity="1" stop-color="rgb(232,238,247)" offset="0%"/>
        <stop stop-opacity="1" stop-color="rgb(183,201,227)" offset="100%"/>
      </linearGradient>
      <linearGradient x1="689.68" gradientUnits="userSpaceOnUse" x2="769.68" y1="745" y2="785" id="linearGradient4" spreadMethod="reflect">
        <stop stop-opacity="1" stop-color="rgb(232,238,247)" offset="0%"/>
        <stop stop-opacity="1" stop-color="rgb(183,201,227)" offset="100%"/>
      </linearGradient>
      <linearGradient x1="142" gradientUnits="userSpaceOnUse" x2="222" y1="659" y2="699" id="linearGradient5" spreadMethod="reflect">
        <stop stop-opacity="1" stop-color="rgb(255,204,0)" offset="0%"/>
        <stop stop-opacity="1" stop-color="rgb(255,153,0)" offset="100%"/>
      </linearGradient>
      <linearGradient x1="152" gradientUnits="userSpaceOnUse" x2="212" y1="729" y2="801" id="linearGradient6" spreadMethod="reflect">
        <stop stop-opacity="1" stop-color="rgb(232,238,247)" offset="0%"/>
        <stop stop-opacity="1" stop-color="rgb(183,201,227)" offset="100%"/>
      </linearGradient>
      <linearGradient x1="271" gradientUnits="userSpaceOnUse" x2="351" y1="745" y2="785" id="linearGradient7" spreadMethod="reflect">
        <stop stop-opacity="1" stop-color="rgb(232,238,247)" offset="0%"/>
        <stop stop-opacity="1" stop-color="rgb(183,201,227)" offset="100%"/>
      </linearGradient>
      <linearGradient x1="271" gradientUnits="userSpaceOnUse" x2="351" y1="659" y2="699" id="linearGradient8" spreadMethod="reflect">
        <stop stop-opacity="1" stop-color="rgb(255,204,0)" offset="0%"/>
        <stop stop-opacity="1" stop-color="rgb(255,153,0)" offset="100%"/>
      </linearGradient>
      <linearGradient x1="549" gradientUnits="userSpaceOnUse" x2="629" y1="659" y2="699" id="linearGradient9" spreadMethod="reflect">
        <stop stop-opacity="1" stop-color="rgb(255,204,0)" offset="0%"/>
        <stop stop-opacity="1" stop-color="rgb(255,153,0)" offset="100%"/>
      </linearGradient>
      <linearGradient x1="679.18" gradientUnits="userSpaceOnUse" x2="780.18" y1="646" y2="699" id="linearGradient10" spreadMethod="reflect">
        <stop stop-opacity="1" stop-color="rgb(255,204,0)" offset="0%"/>
        <stop stop-opacity="1" stop-color="rgb(255,153,0)" offset="100%"/>
      </linearGradient>
      <clipPath clipPathUnits="userSpaceOnUse" id="clipPath1">
        <path d="M0 0 L669 0 L669 185 L0 185 L0 0 Z"/>
      </clipPath>
      <clipPath clipPathUnits="userSpaceOnUse" id="clipPath2">
        <path d="M127 631 L796 631 L796 816 L127 816 L127 631 Z"/>
      </clipPath>
    </defs>
    <g fill="white" text-rendering="geometricPrecision" shape-rendering="geometricPrecision" transform="translate(-127,-631)" stroke="white">
      <rect x="127" width="669" height="185" y="631" clip-path="url(#clipPath2)" stroke="none"/>
    </g>
    <g fill="url(#linearGradient1)" text-rendering="geometricPrecision" shape-rendering="geometricPrecision" transform="matrix(1,0,0,1,-127,-631)" stroke="url(#linearGradient1)">
      <path d="M550.12 745 L630.12 745 L630.12 785 L550.12 785 Z" stroke="none" clip-path="url(#clipPath2)"/>
    </g>
    <g text-rendering="geometricPrecision" stroke-miterlimit="1.45" shape-rendering="geometricPrecision" transform="matrix(1,0,0,1,-127,-631)" stroke-linecap="butt">
      <path fill="none" d="M550.12 745 L630.12 745 L630.12 785 L550.12 785 Z" clip-path="url(#clipPath2)"/>
      <text x="563.2635" xml:space="preserve" y="769.1543" clip-path="url(#clipPath2)" font-family="sans-serif" stroke="none">Operator</text>
    </g>
    <g fill="url(#linearGradient2)" text-rendering="geometricPrecision" shape-rendering="geometricPrecision" transform="matrix(1,0,0,1,-127,-631)" stroke="url(#linearGradient2)">
      <path d="M413.015 646 L500.5 646 L486.985 699 L399.5 699 Z" stroke="none" clip-path="url(#clipPath2)"/>
    </g>
    <g text-rendering="geometricPrecision" stroke-miterlimit="1.45" shape-rendering="geometricPrecision" transform="matrix(1,0,0,1,-127,-631)" stroke-linecap="butt">
      <path fill="none" d="M413.015 646 L500.5 646 L486.985 699 L399.5 699 Z" clip-path="url(#clipPath2)"/>
      <text x="418.0225" xml:space="preserve" y="662.6855" clip-path="url(#clipPath2)" font-family="sans-serif" stroke="none">Estimatied</text>
      <text x="434.5664" xml:space="preserve" y="676.6543" clip-path="url(#clipPath2)" font-family="sans-serif" stroke="none">input</text>
      <text x="419.25" xml:space="preserve" y="690.623" clip-path="url(#clipPath2)" font-family="sans-serif" stroke="none">properties</text>
    </g>
    <g fill="url(#linearGradient3)" text-rendering="geometricPrecision" shape-rendering="geometricPrecision" transform="matrix(1,0,0,1,-127,-631)" stroke="url(#linearGradient3)">
      <path d="M420.76 745 L490.56 745 L480.36 785 L410.56 785 Z" stroke="none" clip-path="url(#clipPath2)"/>
    </g>
    <g text-rendering="geometricPrecision" stroke-miterlimit="1.45" shape-rendering="geometricPrecision" transform="matrix(1,0,0,1,-127,-631)" stroke-linecap="butt">
      <path fill="none" d="M420.76 745 L490.56 745 L480.36 785 L410.56 785 Z" clip-path="url(#clipPath2)"/>
      <text x="431.8979" xml:space="preserve" y="769.1543" clip-path="url(#clipPath2)" font-family="sans-serif" stroke="none">Inputs</text>
    </g>
    <g fill="url(#linearGradient4)" text-rendering="geometricPrecision" shape-rendering="geometricPrecision" transform="matrix(1,0,0,1,-127,-631)" stroke="url(#linearGradient4)">
      <path d="M699.88 745 L769.68 745 L759.48 785 L689.68 785 Z" stroke="none" clip-path="url(#clipPath2)"/>
    </g>
    <g text-rendering="geometricPrecision" stroke-miterlimit="1.45" shape-rendering="geometricPrecision" transform="matrix(1,0,0,1,-127,-631)" stroke-linecap="butt">
      <path fill="none" d="M699.88 745 L769.68 745 L759.48 785 L689.68 785 Z" clip-path="url(#clipPath2)"/>
      <text x="710.8714" xml:space="preserve" y="769.1543" clip-path="url(#clipPath2)" font-family="sans-serif" stroke="none">Result</text>
    </g>
    <g fill="url(#linearGradient5)" text-rendering="geometricPrecision" shape-rendering="geometricPrecision" transform="matrix(1,0,0,1,-127,-631)" stroke="url(#linearGradient5)">
      <path d="M152.2 659 L222 659 L211.8 699 L142 699 Z" stroke="none" clip-path="url(#clipPath2)"/>
    </g>
    <g text-rendering="geometricPrecision" stroke-miterlimit="1.45" shape-rendering="geometricPrecision" transform="matrix(1,0,0,1,-127,-631)" stroke-linecap="butt">
      <path fill="none" d="M152.2 659 L222 659 L211.8 699 L142 699 Z" clip-path="url(#clipPath2)"/>
      <text x="153.3711" xml:space="preserve" y="676.1699" clip-path="url(#clipPath2)" font-family="sans-serif" stroke="none">Database</text>
      <text x="151.25" xml:space="preserve" y="690.1387" clip-path="url(#clipPath2)" font-family="sans-serif" stroke="none">properties</text>
    </g>
    <g fill="url(#linearGradient6)" text-rendering="geometricPrecision" shape-rendering="geometricPrecision" transform="matrix(1,0,0,1,-127,-631)" stroke="url(#linearGradient6)">
      <path d="M152 743.4 C153.8 729 210.2 729 212 743.4 L212 786.6 C210.2 801 153.8 801 152 786.6 Z" stroke="none" clip-path="url(#clipPath2)"/>
    </g>
    <g text-rendering="geometricPrecision" stroke-miterlimit="1.45" shape-rendering="geometricPrecision" transform="matrix(1,0,0,1,-127,-631)" stroke-linecap="butt">
      <path fill="none" d="M152 743.4 C153.8 729 210.2 729 212 743.4 L212 786.6 C210.2 801 153.8 801 152 786.6 Z" clip-path="url(#clipPath2)"/>
      <path fill="none" d="M212 743.4 C210.2 757.8 153.8 757.8 152 743.4" clip-path="url(#clipPath2)"/>
      <text x="153.3711" xml:space="preserve" y="769.1543" clip-path="url(#clipPath2)" font-family="sans-serif" stroke="none">Database</text>
    </g>
    <g fill="url(#linearGradient7)" text-rendering="geometricPrecision" shape-rendering="geometricPrecision" transform="matrix(1,0,0,1,-127,-631)" stroke="url(#linearGradient7)">
      <path d="M271 745 L351 745 L351 785 L271 785 Z" stroke="none" clip-path="url(#clipPath2)"/>
    </g>
    <g text-rendering="geometricPrecision" stroke-miterlimit="1.45" shape-rendering="geometricPrecision" transform="matrix(1,0,0,1,-127,-631)" stroke-linecap="butt">
      <path fill="none" d="M271 745 L351 745 L351 785 L271 785 Z" clip-path="url(#clipPath2)"/>
      <text x="285.4062" xml:space="preserve" y="762.1699" clip-path="url(#clipPath2)" font-family="sans-serif" stroke="none">Previous</text>
      <text x="281.0176" xml:space="preserve" y="776.1387" clip-path="url(#clipPath2)" font-family="sans-serif" stroke="none">Operators</text>
    </g>
    <g fill="url(#linearGradient8)" text-rendering="geometricPrecision" shape-rendering="geometricPrecision" transform="matrix(1,0,0,1,-127,-631)" stroke="url(#linearGradient8)">
      <path d="M271 659 L351 659 L351 699 L271 699 Z" stroke="none" clip-path="url(#clipPath2)"/>
    </g>
    <g text-rendering="geometricPrecision" stroke-miterlimit="1.45" shape-rendering="geometricPrecision" transform="matrix(1,0,0,1,-127,-631)" stroke-linecap="butt">
      <path fill="none" d="M271 659 L351 659 L351 699 L271 699 Z" clip-path="url(#clipPath2)"/>
      <text x="285.4062" xml:space="preserve" y="676.1699" clip-path="url(#clipPath2)" font-family="sans-serif" stroke="none">Previous</text>
      <text x="275.9229" xml:space="preserve" y="690.1387" clip-path="url(#clipPath2)" font-family="sans-serif" stroke="none">Estimations</text>
    </g>
    <g fill="url(#linearGradient9)" text-rendering="geometricPrecision" shape-rendering="geometricPrecision" transform="matrix(1,0,0,1,-127,-631)" stroke="url(#linearGradient9)">
      <path d="M549 659 L629 659 L629 699 L549 699 Z" stroke="none" clip-path="url(#clipPath2)"/>
    </g>
    <g text-rendering="geometricPrecision" stroke-miterlimit="1.45" shape-rendering="geometricPrecision" transform="matrix(1,0,0,1,-127,-631)" stroke-linecap="butt">
      <path fill="none" d="M549 659 L629 659 L629 699 L549 699 Z" clip-path="url(#clipPath2)"/>
      <text x="557.0488" xml:space="preserve" y="683.1543" clip-path="url(#clipPath2)" font-family="sans-serif" stroke="none">Estimation</text>
    </g>
    <g fill="url(#linearGradient10)" text-rendering="geometricPrecision" shape-rendering="geometricPrecision" transform="matrix(1,0,0,1,-127,-631)" stroke="url(#linearGradient10)">
      <path d="M692.695 646 L780.18 646 L766.665 699 L679.18 699 Z" stroke="none" clip-path="url(#clipPath2)"/>
    </g>
    <g text-rendering="geometricPrecision" stroke-miterlimit="1.45" shape-rendering="geometricPrecision" transform="matrix(1,0,0,1,-127,-631)" stroke-linecap="butt">
      <path fill="none" d="M692.695 646 L780.18 646 L766.665 699 L679.18 699 Z" clip-path="url(#clipPath2)"/>
      <text x="697.7025" xml:space="preserve" y="662.6855" clip-path="url(#clipPath2)" font-family="sans-serif" stroke="none">Estimatied</text>
      <text x="712.5735" xml:space="preserve" y="676.6543" clip-path="url(#clipPath2)" font-family="sans-serif" stroke="none">result</text>
      <text x="698.93" xml:space="preserve" y="690.623" clip-path="url(#clipPath2)" font-family="sans-serif" stroke="none">properties</text>
    </g>
    <g text-rendering="geometricPrecision" stroke-miterlimit="1.45" shape-rendering="geometricPrecision" transform="matrix(1,0,0,1,-127,-631)" stroke-linecap="butt">
      <path fill="none" d="M485.4841 765 L542.1407 765" clip-path="url(#clipPath2)"/>
    </g>
    <g text-rendering="geometricPrecision" stroke-miterlimit="1.45" shape-rendering="geometricPrecision" transform="matrix(1,0,0,1,-127,-631)" stroke-linecap="butt">
      <path d="M550.1407 765 L538.1407 760 L541.1407 765 L538.1407 770 Z" stroke="none" clip-path="url(#clipPath2)"/>
      <path fill="none" stroke-dasharray="6,2" d="M450.56 745.0211 L450.56 706.9885" clip-path="url(#clipPath2)"/>
      <path stroke-dasharray="6,2" d="M450.56 698.9885 L445.56 710.9885 L450.56 707.9885 L455.56 710.9885 Z" clip-path="url(#clipPath2)" stroke="none"/>
      <path fill="none" d="M630.0868 765 L686.8126 765" clip-path="url(#clipPath2)"/>
      <path d="M694.8126 765 L682.8126 760 L685.8126 765 L682.8126 770 Z" clip-path="url(#clipPath2)" stroke="none"/>
      <path fill="none" d="M182 732.624 L182 706.9781" clip-path="url(#clipPath2)"/>
      <path d="M182 698.9781 L177 710.9781 L182 707.9781 L187 710.9781 Z" clip-path="url(#clipPath2)" stroke="none"/>
      <path fill="none" d="M212.0139 765 L263.0286 765" clip-path="url(#clipPath2)"/>
      <path d="M271.0286 765 L259.0286 760 L262.0286 765 L259.0286 770 Z" clip-path="url(#clipPath2)" stroke="none"/>
      <path fill="none" d="M350.9668 765 L407.6927 765" clip-path="url(#clipPath2)"/>
      <path d="M415.6927 765 L403.6927 760 L406.6927 765 L403.6927 770 Z" clip-path="url(#clipPath2)" stroke="none"/>
      <path fill="none" d="M216.927 679 L262.9914 679" clip-path="url(#clipPath2)"/>
      <path d="M270.9914 679 L258.9914 674 L261.9914 679 L258.9914 684 Z" clip-path="url(#clipPath2)" stroke="none"/>
      <path fill="none" d="M351.01 679 L396.6135 679" clip-path="url(#clipPath2)"/>
      <path d="M404.6135 679 L392.6135 674 L395.6135 679 L392.6135 684 Z" clip-path="url(#clipPath2)" stroke="none"/>
      <path fill="none" d="M492.114 679 L541.0251 679" clip-path="url(#clipPath2)"/>
      <path d="M549.0251 679 L537.0251 674 L540.0251 679 L537.0251 684 Z" clip-path="url(#clipPath2)" stroke="none"/>
      <path fill="none" d="M629.0128 679 L676.3109 679" clip-path="url(#clipPath2)"/>
      <path d="M684.3109 679 L672.3109 674 L675.3109 679 L672.3109 684 Z" clip-path="url(#clipPath2)" stroke="none"/>
      <path fill="none" stroke-dasharray="6,2" d="M729.68 744.9915 L729.68 707.0118" clip-path="url(#clipPath2)"/>
      <path stroke-dasharray="6,2" d="M729.68 699.0118 L724.68 711.0118 L729.68 708.0118 L734.68 711.0118 Z" clip-path="url(#clipPath2)" stroke="none"/>
    </g>
  </g>
</svg>
