<?xml version="1.0" encoding="UTF-8"?><svg xmlns="http://www.w3.org/2000/svg" xmlns:xlink="http://www.w3.org/1999/xlink" fill-opacity="1" color-rendering="auto" color-interpolation="auto" text-rendering="auto" stroke="black" stroke-linecap="square" width="607" stroke-miterlimit="10" shape-rendering="auto" stroke-opacity="1" fill="black" stroke-dasharray="none" font-weight="normal" stroke-width="1" height="172" font-family="'Dialog'" font-style="normal" stroke-linejoin="miter" font-size="12px" stroke-dashoffset="0" image-rendering="auto">
  <!--Generated by ySVG 2.5-->
  <defs id="genericDefs"/>
  <g>
    <defs id="defs1">
      <linearGradient x1="89.5" gradientUnits="userSpaceOnUse" x2="169.5" y1="116" y2="156" id="linearGradient1" spreadMethod="reflect">
        <stop stop-opacity="1" stop-color="rgb(255,204,0)" offset="0%"/>
        <stop stop-opacity="1" stop-color="rgb(255,153,0)" offset="100%"/>
      </linearGradient>
      <linearGradient x1="99.5" gradientUnits="userSpaceOnUse" x2="159.5" y1="186" y2="258" id="linearGradient2" spreadMethod="reflect">
        <stop stop-opacity="1" stop-color="rgb(232,238,247)" offset="0%"/>
        <stop stop-opacity="1" stop-color="rgb(183,201,227)" offset="100%"/>
      </linearGradient>
      <linearGradient x1="228.28" gradientUnits="userSpaceOnUse" x2="308.28" y1="162" y2="202" id="linearGradient3" spreadMethod="reflect">
        <stop stop-opacity="1" stop-color="rgb(255,153,153)" offset="0%"/>
        <stop stop-opacity="1" stop-color="rgb(255,51,51)" offset="100%"/>
      </linearGradient>
      <linearGradient x1="389" gradientUnits="userSpaceOnUse" x2="666" y1="162" y2="202" id="linearGradient4" spreadMethod="reflect">
        <stop stop-opacity="1" stop-color="rgb(255,204,0)" offset="0%"/>
        <stop stop-opacity="1" stop-color="rgb(255,153,0)" offset="100%"/>
      </linearGradient>
      <clipPath clipPathUnits="userSpaceOnUse" id="clipPath1">
        <path d="M0 0 L607 0 L607 172 L0 172 L0 0 Z"/>
      </clipPath>
      <clipPath clipPathUnits="userSpaceOnUse" id="clipPath2">
        <path d="M74 101 L681 101 L681 273 L74 273 L74 101 Z"/>
      </clipPath>
    </defs>
    <g fill="white" text-rendering="geometricPrecision" shape-rendering="geometricPrecision" transform="translate(-74,-101)" stroke="white">
      <rect x="74" width="607" height="172" y="101" clip-path="url(#clipPath2)" stroke="none"/>
    </g>
    <g fill="url(#linearGradient1)" text-rendering="geometricPrecision" shape-rendering="geometricPrecision" transform="matrix(1,0,0,1,-74,-101)" stroke="url(#linearGradient1)">
      <path d="M99.7 116 L169.5 116 L159.3 156 L89.5 156 Z" stroke="none" clip-path="url(#clipPath2)"/>
    </g>
    <g text-rendering="geometricPrecision" stroke-miterlimit="1.45" shape-rendering="geometricPrecision" transform="matrix(1,0,0,1,-74,-101)" stroke-linecap="butt">
      <path fill="none" d="M99.7 116 L169.5 116 L159.3 156 L89.5 156 Z" clip-path="url(#clipPath2)"/>
      <text x="111.2656" xml:space="preserve" y="133.1699" clip-path="url(#clipPath2)" font-family="sans-serif" stroke="none">Query</text>
      <text x="107.3486" xml:space="preserve" y="147.1387" clip-path="url(#clipPath2)" font-family="sans-serif" stroke="none">catalog</text>
    </g>
    <g fill="url(#linearGradient2)" text-rendering="geometricPrecision" shape-rendering="geometricPrecision" transform="matrix(1,0,0,1,-74,-101)" stroke="url(#linearGradient2)">
      <path d="M99.5 200.4 C101.3 186 157.7 186 159.5 200.4 L159.5 243.6 C157.7 258 101.3 258 99.5 243.6 Z" stroke="none" clip-path="url(#clipPath2)"/>
    </g>
    <g text-rendering="geometricPrecision" stroke-miterlimit="1.45" shape-rendering="geometricPrecision" transform="matrix(1,0,0,1,-74,-101)" stroke-linecap="butt">
      <path fill="none" d="M99.5 200.4 C101.3 186 157.7 186 159.5 200.4 L159.5 243.6 C157.7 258 101.3 258 99.5 243.6 Z" clip-path="url(#clipPath2)"/>
      <path fill="none" d="M159.5 200.4 C157.7 214.8 101.3 214.8 99.5 200.4" clip-path="url(#clipPath2)"/>
      <text x="100.8711" xml:space="preserve" y="226.1543" clip-path="url(#clipPath2)" font-family="sans-serif" stroke="none">Database</text>
    </g>
    <g fill="url(#linearGradient3)" text-rendering="geometricPrecision" shape-rendering="geometricPrecision" transform="matrix(1,0,0,1,-74,-101)" stroke="url(#linearGradient3)">
      <path d="M228.28 162 L308.28 162 L308.28 202 L228.28 202 Z" stroke="none" clip-path="url(#clipPath2)"/>
    </g>
    <g text-rendering="geometricPrecision" stroke-miterlimit="1.45" shape-rendering="geometricPrecision" transform="matrix(1,0,0,1,-74,-101)" stroke-linecap="butt">
      <path fill="none" d="M228.28 162 L308.28 162 L308.28 202 L228.28 202 Z" clip-path="url(#clipPath2)"/>
      <text x="255.445" xml:space="preserve" y="186.1543" clip-path="url(#clipPath2)" font-family="sans-serif" stroke="none">Test</text>
    </g>
    <g fill="url(#linearGradient4)" text-rendering="geometricPrecision" shape-rendering="geometricPrecision" transform="matrix(1,0,0,1,-74,-101)" stroke="url(#linearGradient4)">
      <path d="M399.2 162 L666 162 L655.8 202 L389 202 Z" stroke="none" clip-path="url(#clipPath2)"/>
    </g>
    <g text-rendering="geometricPrecision" stroke-miterlimit="1.45" shape-rendering="geometricPrecision" transform="matrix(1,0,0,1,-74,-101)" stroke-linecap="butt">
      <path fill="none" d="M399.2 162 L666 162 L655.8 202 L389 202 Z" clip-path="url(#clipPath2)"/>
      <text x="398.7578" xml:space="preserve" y="186.1543" clip-path="url(#clipPath2)" font-family="sans-serif" stroke="none">CSV(QueryId|ResultSize|Optimizer|EstSize)</text>
    </g>
    <g text-rendering="geometricPrecision" stroke-miterlimit="1.45" shape-rendering="geometricPrecision" transform="matrix(1,0,0,1,-74,-101)" stroke-linecap="butt">
      <path fill="none" d="M164.4322 136 L268.28 136 L268.28 154.0098" clip-path="url(#clipPath2)"/>
    </g>
    <g text-rendering="geometricPrecision" stroke-miterlimit="1.45" shape-rendering="geometricPrecision" transform="matrix(1,0,0,1,-74,-101)" stroke-linecap="butt">
      <path d="M268.28 162.0098 L273.28 150.0098 L268.28 153.0098 L263.28 150.0098 Z" stroke="none" clip-path="url(#clipPath2)"/>
      <path fill="none" d="M159.4854 222 L268.28 222 L268.28 209.9609" clip-path="url(#clipPath2)"/>
      <path d="M268.28 201.9609 L263.28 213.9609 L268.28 210.9609 L273.28 213.9609 Z" clip-path="url(#clipPath2)" stroke="none"/>
      <path fill="none" d="M308.3085 182 L386.1175 182" clip-path="url(#clipPath2)"/>
      <path d="M394.1175 182 L382.1175 177 L385.1175 182 L382.1175 187 Z" clip-path="url(#clipPath2)" stroke="none"/>
    </g>
  </g>
</svg>
