<?xml version="1.0" encoding="utf-8" standalone="no"?>
<!DOCTYPE svg PUBLIC "-//W3C//DTD SVG 1.1//EN"
  "http://www.w3.org/Graphics/SVG/1.1/DTD/svg11.dtd">
<!-- Created with matplotlib (https://matplotlib.org/) -->
<svg height="345.6pt" version="1.1" viewBox="0 0 460.8 345.6" width="460.8pt" xmlns="http://www.w3.org/2000/svg" xmlns:xlink="http://www.w3.org/1999/xlink">
 <defs>
  <style type="text/css">
*{stroke-linecap:butt;stroke-linejoin:round;white-space:pre;}
  </style>
 </defs>
 <g id="figure_1">
  <g id="patch_1">
   <path d="M 0 345.6 
L 460.8 345.6 
L 460.8 0 
L 0 0 
z
" style="fill:#ffffff;"/>
  </g>
  <g id="axes_1">
   <g id="patch_2">
    <path d="M 57.6 307.584 
L 414.72 307.584 
L 414.72 41.472 
L 57.6 41.472 
z
" style="fill:#ffffff;"/>
   </g>
   <g id="matplotlib.axis_1">
    <g id="xtick_1">
     <g id="line2d_1">
      <defs>
       <path d="M 0 0 
L 0 3.5 
" id="m387ad39f57" style="stroke:#000000;stroke-width:0.8;"/>
      </defs>
      <g>
       <use style="stroke:#000000;stroke-width:0.8;" x="99.148097" xlink:href="#m387ad39f57" y="307.584"/>
      </g>
     </g>
     <g id="text_1">
      <!-- −20 -->
      <defs>
       <path d="M 10.59375 35.5 
L 73.1875 35.5 
L 73.1875 27.203125 
L 10.59375 27.203125 
z
" id="DejaVuSans-8722"/>
       <path d="M 19.1875 8.296875 
L 53.609375 8.296875 
L 53.609375 0 
L 7.328125 0 
L 7.328125 8.296875 
Q 12.9375 14.109375 22.625 23.890625 
Q 32.328125 33.6875 34.8125 36.53125 
Q 39.546875 41.84375 41.421875 45.53125 
Q 43.3125 49.21875 43.3125 52.78125 
Q 43.3125 58.59375 39.234375 62.25 
Q 35.15625 65.921875 28.609375 65.921875 
Q 23.96875 65.921875 18.8125 64.3125 
Q 13.671875 62.703125 7.8125 59.421875 
L 7.8125 69.390625 
Q 13.765625 71.78125 18.9375 73 
Q 24.125 74.21875 28.421875 74.21875 
Q 39.75 74.21875 46.484375 68.546875 
Q 53.21875 62.890625 53.21875 53.421875 
Q 53.21875 48.921875 51.53125 44.890625 
Q 49.859375 40.875 45.40625 35.40625 
Q 44.1875 33.984375 37.640625 27.21875 
Q 31.109375 20.453125 19.1875 8.296875 
z
" id="DejaVuSans-50"/>
       <path d="M 31.78125 66.40625 
Q 24.171875 66.40625 20.328125 58.90625 
Q 16.5 51.421875 16.5 36.375 
Q 16.5 21.390625 20.328125 13.890625 
Q 24.171875 6.390625 31.78125 6.390625 
Q 39.453125 6.390625 43.28125 13.890625 
Q 47.125 21.390625 47.125 36.375 
Q 47.125 51.421875 43.28125 58.90625 
Q 39.453125 66.40625 31.78125 66.40625 
z
M 31.78125 74.21875 
Q 44.046875 74.21875 50.515625 64.515625 
Q 56.984375 54.828125 56.984375 36.375 
Q 56.984375 17.96875 50.515625 8.265625 
Q 44.046875 -1.421875 31.78125 -1.421875 
Q 19.53125 -1.421875 13.0625 8.265625 
Q 6.59375 17.96875 6.59375 36.375 
Q 6.59375 54.828125 13.0625 64.515625 
Q 19.53125 74.21875 31.78125 74.21875 
z
" id="DejaVuSans-48"/>
      </defs>
      <g transform="translate(88.595753 322.182437)scale(0.1 -0.1)">
       <use xlink:href="#DejaVuSans-8722"/>
       <use x="83.789062" xlink:href="#DejaVuSans-50"/>
       <use x="147.412109" xlink:href="#DejaVuSans-48"/>
      </g>
     </g>
    </g>
    <g id="xtick_2">
     <g id="line2d_2">
      <g>
       <use style="stroke:#000000;stroke-width:0.8;" x="167.19676" xlink:href="#m387ad39f57" y="307.584"/>
      </g>
     </g>
     <g id="text_2">
      <!-- −10 -->
      <defs>
       <path d="M 12.40625 8.296875 
L 28.515625 8.296875 
L 28.515625 63.921875 
L 10.984375 60.40625 
L 10.984375 69.390625 
L 28.421875 72.90625 
L 38.28125 72.90625 
L 38.28125 8.296875 
L 54.390625 8.296875 
L 54.390625 0 
L 12.40625 0 
z
" id="DejaVuSans-49"/>
      </defs>
      <g transform="translate(156.644417 322.182437)scale(0.1 -0.1)">
       <use xlink:href="#DejaVuSans-8722"/>
       <use x="83.789062" xlink:href="#DejaVuSans-49"/>
       <use x="147.412109" xlink:href="#DejaVuSans-48"/>
      </g>
     </g>
    </g>
    <g id="xtick_3">
     <g id="line2d_3">
      <g>
       <use style="stroke:#000000;stroke-width:0.8;" x="235.245423" xlink:href="#m387ad39f57" y="307.584"/>
      </g>
     </g>
     <g id="text_3">
      <!-- 0 -->
      <g transform="translate(232.064173 322.182437)scale(0.1 -0.1)">
       <use xlink:href="#DejaVuSans-48"/>
      </g>
     </g>
    </g>
    <g id="xtick_4">
     <g id="line2d_4">
      <g>
       <use style="stroke:#000000;stroke-width:0.8;" x="303.294087" xlink:href="#m387ad39f57" y="307.584"/>
      </g>
     </g>
     <g id="text_4">
      <!-- 10 -->
      <g transform="translate(296.931587 322.182437)scale(0.1 -0.1)">
       <use xlink:href="#DejaVuSans-49"/>
       <use x="63.623047" xlink:href="#DejaVuSans-48"/>
      </g>
     </g>
    </g>
    <g id="xtick_5">
     <g id="line2d_5">
      <g>
       <use style="stroke:#000000;stroke-width:0.8;" x="371.34275" xlink:href="#m387ad39f57" y="307.584"/>
      </g>
     </g>
     <g id="text_5">
      <!-- 20 -->
      <g transform="translate(364.98025 322.182437)scale(0.1 -0.1)">
       <use xlink:href="#DejaVuSans-50"/>
       <use x="63.623047" xlink:href="#DejaVuSans-48"/>
      </g>
     </g>
    </g>
   </g>
   <g id="matplotlib.axis_2">
    <g id="ytick_1">
     <g id="line2d_6">
      <defs>
       <path d="M 0 0 
L -3.5 0 
" id="m8b2b9ebe1a" style="stroke:#000000;stroke-width:0.8;"/>
      </defs>
      <g>
       <use style="stroke:#000000;stroke-width:0.8;" x="57.6" xlink:href="#m8b2b9ebe1a" y="275.174978"/>
      </g>
     </g>
     <g id="text_6">
      <!-- −20 -->
      <g transform="translate(29.495313 278.974196)scale(0.1 -0.1)">
       <use xlink:href="#DejaVuSans-8722"/>
       <use x="83.789062" xlink:href="#DejaVuSans-50"/>
       <use x="147.412109" xlink:href="#DejaVuSans-48"/>
      </g>
     </g>
    </g>
    <g id="ytick_2">
     <g id="line2d_7">
      <g>
       <use style="stroke:#000000;stroke-width:0.8;" x="57.6" xlink:href="#m8b2b9ebe1a" y="218.219273"/>
      </g>
     </g>
     <g id="text_7">
      <!-- −10 -->
      <g transform="translate(29.495313 222.018491)scale(0.1 -0.1)">
       <use xlink:href="#DejaVuSans-8722"/>
       <use x="83.789062" xlink:href="#DejaVuSans-49"/>
       <use x="147.412109" xlink:href="#DejaVuSans-48"/>
      </g>
     </g>
    </g>
    <g id="ytick_3">
     <g id="line2d_8">
      <g>
       <use style="stroke:#000000;stroke-width:0.8;" x="57.6" xlink:href="#m8b2b9ebe1a" y="161.263568"/>
      </g>
     </g>
     <g id="text_8">
      <!-- 0 -->
      <g transform="translate(44.2375 165.062786)scale(0.1 -0.1)">
       <use xlink:href="#DejaVuSans-48"/>
      </g>
     </g>
    </g>
    <g id="ytick_4">
     <g id="line2d_9">
      <g>
       <use style="stroke:#000000;stroke-width:0.8;" x="57.6" xlink:href="#m8b2b9ebe1a" y="104.307863"/>
      </g>
     </g>
     <g id="text_9">
      <!-- 10 -->
      <g transform="translate(37.875 108.107081)scale(0.1 -0.1)">
       <use xlink:href="#DejaVuSans-49"/>
       <use x="63.623047" xlink:href="#DejaVuSans-48"/>
      </g>
     </g>
    </g>
    <g id="ytick_5">
     <g id="line2d_10">
      <g>
       <use style="stroke:#000000;stroke-width:0.8;" x="57.6" xlink:href="#m8b2b9ebe1a" y="47.352158"/>
      </g>
     </g>
     <g id="text_10">
      <!-- 20 -->
      <g transform="translate(37.875 51.151376)scale(0.1 -0.1)">
       <use xlink:href="#DejaVuSans-50"/>
       <use x="63.623047" xlink:href="#DejaVuSans-48"/>
      </g>
     </g>
    </g>
   </g>
   <g id="line2d_11">
    <defs>
     <path d="M 0 5 
C 1.326016 5 2.597899 4.473168 3.535534 3.535534 
C 4.473168 2.597899 5 1.326016 5 0 
C 5 -1.326016 4.473168 -2.597899 3.535534 -3.535534 
C 2.597899 -4.473168 1.326016 -5 0 -5 
C -1.326016 -5 -2.597899 -4.473168 -3.535534 -3.535534 
C -4.473168 -2.597899 -5 -1.326016 -5 0 
C -5 1.326016 -4.473168 2.597899 -3.535534 3.535534 
C -2.597899 4.473168 -1.326016 5 0 5 
z
" id="ma18012966a" style="stroke:#000000;"/>
    </defs>
    <g clip-path="url(#pb65e433b5c)">
     <use style="fill:#9e0142;stroke:#000000;" x="269.373787" xlink:href="#ma18012966a" y="142.820329"/>
     <use style="fill:#9e0142;stroke:#000000;" x="220.530214" xlink:href="#ma18012966a" y="88.278158"/>
     <use style="fill:#9e0142;stroke:#000000;" x="266.29456" xlink:href="#ma18012966a" y="118.760571"/>
     <use style="fill:#9e0142;stroke:#000000;" x="271.093982" xlink:href="#ma18012966a" y="76.305574"/>
     <use style="fill:#9e0142;stroke:#000000;" x="269.360438" xlink:href="#ma18012966a" y="132.903562"/>
     <use style="fill:#9e0142;stroke:#000000;" x="296.232536" xlink:href="#ma18012966a" y="114.891589"/>
     <use style="fill:#9e0142;stroke:#000000;" x="269.385945" xlink:href="#ma18012966a" y="142.835317"/>
     <use style="fill:#9e0142;stroke:#000000;" x="243.519943" xlink:href="#ma18012966a" y="122.736823"/>
     <use style="fill:#9e0142;stroke:#000000;" x="294.196137" xlink:href="#ma18012966a" y="93.805416"/>
     <use style="fill:#9e0142;stroke:#000000;" x="328.790939" xlink:href="#ma18012966a" y="111.917625"/>
     <use style="fill:#9e0142;stroke:#000000;" x="226.630779" xlink:href="#ma18012966a" y="83.919225"/>
     <use style="fill:#9e0142;stroke:#000000;" x="391.559272" xlink:href="#ma18012966a" y="100.1342"/>
     <use style="fill:#9e0142;stroke:#000000;" x="331.92097" xlink:href="#ma18012966a" y="144.728468"/>
     <use style="fill:#9e0142;stroke:#000000;" x="348.155964" xlink:href="#ma18012966a" y="95.185057"/>
     <use style="fill:#9e0142;stroke:#000000;" x="326.761918" xlink:href="#ma18012966a" y="203.66491"/>
     <use style="fill:#9e0142;stroke:#000000;" x="342.04358" xlink:href="#ma18012966a" y="181.680485"/>
     <use style="fill:#9e0142;stroke:#000000;" x="339.623897" xlink:href="#ma18012966a" y="115.879003"/>
     <use style="fill:#9e0142;stroke:#000000;" x="238.70884" xlink:href="#ma18012966a" y="148.124508"/>
     <use style="fill:#9e0142;stroke:#000000;" x="371.899858" xlink:href="#ma18012966a" y="149.62793"/>
     <use style="fill:#9e0142;stroke:#000000;" x="261.26605" xlink:href="#ma18012966a" y="80.968406"/>
     <use style="fill:#9e0142;stroke:#000000;" x="262.553271" xlink:href="#ma18012966a" y="77.177897"/>
     <use style="fill:#9e0142;stroke:#000000;" x="337.485396" xlink:href="#ma18012966a" y="92.622936"/>
     <use style="fill:#9e0142;stroke:#000000;" x="313.798793" xlink:href="#ma18012966a" y="139.946948"/>
     <use style="fill:#9e0142;stroke:#000000;" x="317.719338" xlink:href="#ma18012966a" y="250.877833"/>
     <use style="fill:#9e0142;stroke:#000000;" x="349.021096" xlink:href="#ma18012966a" y="72.651857"/>
     <use style="fill:#9e0142;stroke:#000000;" x="385.140552" xlink:href="#ma18012966a" y="131.774766"/>
     <use style="fill:#9e0142;stroke:#000000;" x="344.060796" xlink:href="#ma18012966a" y="115.977216"/>
     <use style="fill:#9e0142;stroke:#000000;" x="398.487273" xlink:href="#ma18012966a" y="106.24238"/>
     <use style="fill:#9e0142;stroke:#000000;" x="266.889052" xlink:href="#ma18012966a" y="122.989857"/>
     <use style="fill:#9e0142;stroke:#000000;" x="303.391055" xlink:href="#ma18012966a" y="82.712232"/>
     <use style="fill:#9e0142;stroke:#000000;" x="328.298337" xlink:href="#ma18012966a" y="104.332783"/>
     <use style="fill:#9e0142;stroke:#000000;" x="285.47893" xlink:href="#ma18012966a" y="152.219283"/>
     <use style="fill:#9e0142;stroke:#000000;" x="249.057639" xlink:href="#ma18012966a" y="156.893749"/>
     <use style="fill:#9e0142;stroke:#000000;" x="343.96251" xlink:href="#ma18012966a" y="83.485774"/>
     <use style="fill:#9e0142;stroke:#000000;" x="276.083425" xlink:href="#ma18012966a" y="125.73533"/>
     <use style="fill:#9e0142;stroke:#000000;" x="260.76196" xlink:href="#ma18012966a" y="118.968983"/>
     <use style="fill:#9e0142;stroke:#000000;" x="215.21348" xlink:href="#ma18012966a" y="73.261573"/>
     <use style="fill:#9e0142;stroke:#000000;" x="171.361731" xlink:href="#ma18012966a" y="120.844949"/>
     <use style="fill:#9e0142;stroke:#000000;" x="238.139187" xlink:href="#ma18012966a" y="144.252398"/>
     <use style="fill:#9e0142;stroke:#000000;" x="391.963836" xlink:href="#ma18012966a" y="106.005807"/>
     <use style="fill:#9e0142;stroke:#000000;" x="272.390824" xlink:href="#ma18012966a" y="120.200104"/>
     <use style="fill:#9e0142;stroke:#000000;" x="151.69122" xlink:href="#ma18012966a" y="208.398224"/>
     <use style="fill:#9e0142;stroke:#000000;" x="325.256942" xlink:href="#ma18012966a" y="117.996415"/>
     <use style="fill:#9e0142;stroke:#000000;" x="240.294727" xlink:href="#ma18012966a" y="150.885127"/>
     <use style="fill:#9e0142;stroke:#000000;" x="338.959061" xlink:href="#ma18012966a" y="130.03538"/>
     <use style="fill:#9e0142;stroke:#000000;" x="324.220373" xlink:href="#ma18012966a" y="156.306886"/>
     <use style="fill:#9e0142;stroke:#000000;" x="312.692701" xlink:href="#ma18012966a" y="80.562597"/>
     <use style="fill:#9e0142;stroke:#000000;" x="239.919253" xlink:href="#ma18012966a" y="160.273051"/>
     <use style="fill:#9e0142;stroke:#000000;" x="285.05727" xlink:href="#ma18012966a" y="152.155987"/>
     <use style="fill:#9e0142;stroke:#000000;" x="234.106398" xlink:href="#ma18012966a" y="246.732746"/>
     <use style="fill:#9e0142;stroke:#000000;" x="216.824699" xlink:href="#ma18012966a" y="143.977399"/>
     <use style="fill:#9e0142;stroke:#000000;" x="325.256494" xlink:href="#ma18012966a" y="117.991287"/>
     <use style="fill:#9e0142;stroke:#000000;" x="389.106881" xlink:href="#ma18012966a" y="100.876532"/>
     <use style="fill:#9e0142;stroke:#000000;" x="139.023664" xlink:href="#ma18012966a" y="128.307363"/>
     <use style="fill:#9e0142;stroke:#000000;" x="325.488401" xlink:href="#ma18012966a" y="124.568195"/>
     <use style="fill:#9e0142;stroke:#000000;" x="226.198067" xlink:href="#ma18012966a" y="250.22702"/>
     <use style="fill:#9e0142;stroke:#000000;" x="254.371007" xlink:href="#ma18012966a" y="74.657677"/>
     <use style="fill:#9e0142;stroke:#000000;" x="326.407254" xlink:href="#ma18012966a" y="140.172481"/>
     <use style="fill:#9e0142;stroke:#000000;" x="357.777393" xlink:href="#ma18012966a" y="127.546618"/>
     <use style="fill:#9e0142;stroke:#000000;" x="257.980452" xlink:href="#ma18012966a" y="117.785791"/>
     <use style="fill:#9e0142;stroke:#000000;" x="287.283582" xlink:href="#ma18012966a" y="118.864745"/>
     <use style="fill:#9e0142;stroke:#000000;" x="340.619347" xlink:href="#ma18012966a" y="90.869012"/>
     <use style="fill:#9e0142;stroke:#000000;" x="223.414122" xlink:href="#ma18012966a" y="139.210996"/>
     <use style="fill:#9e0142;stroke:#000000;" x="291.271905" xlink:href="#ma18012966a" y="53.572335"/>
     <use style="fill:#9e0142;stroke:#000000;" x="312.071721" xlink:href="#ma18012966a" y="190.268588"/>
     <use style="fill:#9e0142;stroke:#000000;" x="194.456458" xlink:href="#ma18012966a" y="117.785783"/>
     <use style="fill:#9e0142;stroke:#000000;" x="361.739271" xlink:href="#ma18012966a" y="112.960027"/>
     <use style="fill:#9e0142;stroke:#000000;" x="310.760616" xlink:href="#ma18012966a" y="144.840441"/>
     <use style="fill:#9e0142;stroke:#000000;" x="307.85277" xlink:href="#ma18012966a" y="135.377161"/>
     <use style="fill:#9e0142;stroke:#000000;" x="246.993602" xlink:href="#ma18012966a" y="106.355328"/>
     <use style="fill:#9e0142;stroke:#000000;" x="287.69944" xlink:href="#ma18012966a" y="227.548196"/>
     <use style="fill:#9e0142;stroke:#000000;" x="77.327806" xlink:href="#ma18012966a" y="125.519759"/>
     <use style="fill:#9e0142;stroke:#000000;" x="321.536212" xlink:href="#ma18012966a" y="105.427383"/>
     <use style="fill:#9e0142;stroke:#000000;" x="347.592716" xlink:href="#ma18012966a" y="98.106659"/>
     <use style="fill:#9e0142;stroke:#000000;" x="73.832727" xlink:href="#ma18012966a" y="124.47859"/>
     <use style="fill:#9e0142;stroke:#000000;" x="258.259095" xlink:href="#ma18012966a" y="134.020014"/>
     <use style="fill:#9e0142;stroke:#000000;" x="272.395704" xlink:href="#ma18012966a" y="120.202578"/>
     <use style="fill:#9e0142;stroke:#000000;" x="312.070378" xlink:href="#ma18012966a" y="190.267469"/>
     <use style="fill:#9e0142;stroke:#000000;" x="263.996664" xlink:href="#ma18012966a" y="101.112806"/>
     <use style="fill:#9e0142;stroke:#000000;" x="352.601099" xlink:href="#ma18012966a" y="172.678611"/>
     <use style="fill:#9e0142;stroke:#000000;" x="347.535621" xlink:href="#ma18012966a" y="139.790838"/>
     <use style="fill:#9e0142;stroke:#000000;" x="274.446799" xlink:href="#ma18012966a" y="75.607364"/>
     <use style="fill:#9e0142;stroke:#000000;" x="292.219981" xlink:href="#ma18012966a" y="88.912518"/>
     <use style="fill:#9e0142;stroke:#000000;" x="228.328584" xlink:href="#ma18012966a" y="249.590689"/>
     <use style="fill:#9e0142;stroke:#000000;" x="386.774289" xlink:href="#ma18012966a" y="104.209798"/>
     <use style="fill:#9e0142;stroke:#000000;" x="246.01617" xlink:href="#ma18012966a" y="156.371133"/>
     <use style="fill:#9e0142;stroke:#000000;" x="347.512258" xlink:href="#ma18012966a" y="172.628778"/>
     <use style="fill:#9e0142;stroke:#000000;" x="233.183571" xlink:href="#ma18012966a" y="257.934092"/>
     <use style="fill:#9e0142;stroke:#000000;" x="318.264369" xlink:href="#ma18012966a" y="124.0656"/>
     <use style="fill:#9e0142;stroke:#000000;" x="287.735363" xlink:href="#ma18012966a" y="227.058462"/>
     <use style="fill:#9e0142;stroke:#000000;" x="357.193989" xlink:href="#ma18012966a" y="170.786909"/>
     <use style="fill:#9e0142;stroke:#000000;" x="371.892304" xlink:href="#ma18012966a" y="149.623505"/>
     <use style="fill:#9e0142;stroke:#000000;" x="350.151991" xlink:href="#ma18012966a" y="88.521114"/>
     <use style="fill:#9e0142;stroke:#000000;" x="349.150071" xlink:href="#ma18012966a" y="72.212903"/>
     <use style="fill:#9e0142;stroke:#000000;" x="284.775143" xlink:href="#ma18012966a" y="179.280848"/>
     <use style="fill:#9e0142;stroke:#000000;" x="350.052973" xlink:href="#ma18012966a" y="96.240005"/>
     <use style="fill:#9e0142;stroke:#000000;" x="200.693502" xlink:href="#ma18012966a" y="77.260426"/>
     <use style="fill:#9e0142;stroke:#000000;" x="307.494309" xlink:href="#ma18012966a" y="99.454165"/>
     <use style="fill:#9e0142;stroke:#000000;" x="248.476514" xlink:href="#ma18012966a" y="122.930572"/>
     <use style="fill:#9e0142;stroke:#000000;" x="78.812114" xlink:href="#ma18012966a" y="123.430999"/>
     <use style="fill:#9e0142;stroke:#000000;" x="313.855947" xlink:href="#ma18012966a" y="139.962256"/>
     <use style="fill:#9e0142;stroke:#000000;" x="162.920032" xlink:href="#ma18012966a" y="260.754491"/>
     <use style="fill:#9e0142;stroke:#000000;" x="316.706333" xlink:href="#ma18012966a" y="113.319748"/>
     <use style="fill:#9e0142;stroke:#000000;" x="224.297314" xlink:href="#ma18012966a" y="96.587641"/>
     <use style="fill:#9e0142;stroke:#000000;" x="308.23508" xlink:href="#ma18012966a" y="165.112049"/>
     <use style="fill:#9e0142;stroke:#000000;" x="265.999986" xlink:href="#ma18012966a" y="133.635872"/>
     <use style="fill:#9e0142;stroke:#000000;" x="139.03286" xlink:href="#ma18012966a" y="128.304188"/>
     <use style="fill:#9e0142;stroke:#000000;" x="260.465782" xlink:href="#ma18012966a" y="78.673249"/>
     <use style="fill:#9e0142;stroke:#000000;" x="312.477537" xlink:href="#ma18012966a" y="247.157366"/>
     <use style="fill:#9e0142;stroke:#000000;" x="338.190676" xlink:href="#ma18012966a" y="90.397887"/>
     <use style="fill:#9e0142;stroke:#000000;" x="171.324507" xlink:href="#ma18012966a" y="120.848306"/>
     <use style="fill:#9e0142;stroke:#000000;" x="349.067744" xlink:href="#ma18012966a" y="171.90931"/>
     <use style="fill:#9e0142;stroke:#000000;" x="336.573247" xlink:href="#ma18012966a" y="123.851729"/>
     <use style="fill:#9e0142;stroke:#000000;" x="313.343091" xlink:href="#ma18012966a" y="156.711349"/>
     <use style="fill:#9e0142;stroke:#000000;" x="294.304514" xlink:href="#ma18012966a" y="92.423413"/>
     <use style="fill:#9e0142;stroke:#000000;" x="360.909845" xlink:href="#ma18012966a" y="113.566331"/>
     <use style="fill:#9e0142;stroke:#000000;" x="332.198791" xlink:href="#ma18012966a" y="116.028163"/>
     <use style="fill:#9e0142;stroke:#000000;" x="335.247974" xlink:href="#ma18012966a" y="212.915427"/>
     <use style="fill:#9e0142;stroke:#000000;" x="259.590218" xlink:href="#ma18012966a" y="127.740436"/>
     <use style="fill:#9e0142;stroke:#000000;" x="291.2882" xlink:href="#ma18012966a" y="53.568"/>
     <use style="fill:#9e0142;stroke:#000000;" x="341.454465" xlink:href="#ma18012966a" y="96.853306"/>
     <use style="fill:#9e0142;stroke:#000000;" x="101.711331" xlink:href="#ma18012966a" y="146.008705"/>
     <use style="fill:#9e0142;stroke:#000000;" x="84.122614" xlink:href="#ma18012966a" y="118.589414"/>
     <use style="fill:#9e0142;stroke:#000000;" x="264.760059" xlink:href="#ma18012966a" y="112.353016"/>
     <use style="fill:#9e0142;stroke:#000000;" x="203.137647" xlink:href="#ma18012966a" y="133.539279"/>
     <use style="fill:#9e0142;stroke:#000000;" x="299.226655" xlink:href="#ma18012966a" y="130.318769"/>
     <use style="fill:#9e0142;stroke:#000000;" x="287.428401" xlink:href="#ma18012966a" y="170.1885"/>
     <use style="fill:#9e0142;stroke:#000000;" x="312.009278" xlink:href="#ma18012966a" y="246.847019"/>
     <use style="fill:#9e0142;stroke:#000000;" x="273.777547" xlink:href="#ma18012966a" y="113.248369"/>
     <use style="fill:#9e0142;stroke:#000000;" x="286.522767" xlink:href="#ma18012966a" y="100.748272"/>
     <use style="fill:#9e0142;stroke:#000000;" x="215.267685" xlink:href="#ma18012966a" y="123.98935"/>
     <use style="fill:#9e0142;stroke:#000000;" x="286.529279" xlink:href="#ma18012966a" y="134.990377"/>
     <use style="fill:#9e0142;stroke:#000000;" x="313.876318" xlink:href="#ma18012966a" y="79.754335"/>
     <use style="fill:#9e0142;stroke:#000000;" x="330.382416" xlink:href="#ma18012966a" y="138.18064"/>
    </g>
   </g>
   <g id="line2d_12">
    <defs>
     <path d="M 0 5 
C 1.326016 5 2.597899 4.473168 3.535534 3.535534 
C 4.473168 2.597899 5 1.326016 5 0 
C 5 -1.326016 4.473168 -2.597899 3.535534 -3.535534 
C 2.597899 -4.473168 1.326016 -5 0 -5 
C -1.326016 -5 -2.597899 -4.473168 -3.535534 -3.535534 
C -4.473168 -2.597899 -5 -1.326016 -5 0 
C -5 1.326016 -4.473168 2.597899 -3.535534 3.535534 
C -2.597899 4.473168 -1.326016 5 0 5 
z
" id="m2da8983ab0" style="stroke:#000000;"/>
    </defs>
    <g clip-path="url(#pb65e433b5c)">
     <use style="fill:#ffffbe;stroke:#000000;" x="211.672377" xlink:href="#m2da8983ab0" y="246.077583"/>
     <use style="fill:#ffffbe;stroke:#000000;" x="206.812223" xlink:href="#m2da8983ab0" y="207.251398"/>
     <use style="fill:#ffffbe;stroke:#000000;" x="193.148425" xlink:href="#m2da8983ab0" y="202.145805"/>
     <use style="fill:#ffffbe;stroke:#000000;" x="193.630948" xlink:href="#m2da8983ab0" y="222.3004"/>
     <use style="fill:#ffffbe;stroke:#000000;" x="251.500058" xlink:href="#m2da8983ab0" y="250.562652"/>
     <use style="fill:#ffffbe;stroke:#000000;" x="239.089492" xlink:href="#m2da8983ab0" y="217.451439"/>
     <use style="fill:#ffffbe;stroke:#000000;" x="224.663207" xlink:href="#m2da8983ab0" y="227.76836"/>
     <use style="fill:#ffffbe;stroke:#000000;" x="215.765871" xlink:href="#m2da8983ab0" y="209.436595"/>
     <use style="fill:#ffffbe;stroke:#000000;" x="249.975254" xlink:href="#m2da8983ab0" y="244.196861"/>
     <use style="fill:#ffffbe;stroke:#000000;" x="214.556995" xlink:href="#m2da8983ab0" y="190.055371"/>
     <use style="fill:#ffffbe;stroke:#000000;" x="224.78862" xlink:href="#m2da8983ab0" y="210.779984"/>
     <use style="fill:#ffffbe;stroke:#000000;" x="219.843389" xlink:href="#m2da8983ab0" y="203.87332"/>
     <use style="fill:#ffffbe;stroke:#000000;" x="186.108115" xlink:href="#m2da8983ab0" y="199.934229"/>
     <use style="fill:#ffffbe;stroke:#000000;" x="229.369946" xlink:href="#m2da8983ab0" y="255.013348"/>
     <use style="fill:#ffffbe;stroke:#000000;" x="200.193651" xlink:href="#m2da8983ab0" y="225.674644"/>
     <use style="fill:#ffffbe;stroke:#000000;" x="212.374035" xlink:href="#m2da8983ab0" y="214.520853"/>
     <use style="fill:#ffffbe;stroke:#000000;" x="231.967413" xlink:href="#m2da8983ab0" y="176.147288"/>
     <use style="fill:#ffffbe;stroke:#000000;" x="235.027851" xlink:href="#m2da8983ab0" y="236.350743"/>
     <use style="fill:#ffffbe;stroke:#000000;" x="229.376383" xlink:href="#m2da8983ab0" y="224.701546"/>
     <use style="fill:#ffffbe;stroke:#000000;" x="212.000974" xlink:href="#m2da8983ab0" y="239.060177"/>
     <use style="fill:#ffffbe;stroke:#000000;" x="217.320287" xlink:href="#m2da8983ab0" y="172.548648"/>
     <use style="fill:#ffffbe;stroke:#000000;" x="326.744293" xlink:href="#m2da8983ab0" y="203.647931"/>
     <use style="fill:#ffffbe;stroke:#000000;" x="198.824583" xlink:href="#m2da8983ab0" y="183.330733"/>
     <use style="fill:#ffffbe;stroke:#000000;" x="199.937801" xlink:href="#m2da8983ab0" y="187.267144"/>
     <use style="fill:#ffffbe;stroke:#000000;" x="225.260975" xlink:href="#m2da8983ab0" y="191.659844"/>
     <use style="fill:#ffffbe;stroke:#000000;" x="210.117643" xlink:href="#m2da8983ab0" y="182.407101"/>
     <use style="fill:#ffffbe;stroke:#000000;" x="238.330487" xlink:href="#m2da8983ab0" y="205.041321"/>
     <use style="fill:#ffffbe;stroke:#000000;" x="183.440412" xlink:href="#m2da8983ab0" y="229.397115"/>
     <use style="fill:#ffffbe;stroke:#000000;" x="186.13423" xlink:href="#m2da8983ab0" y="199.938574"/>
     <use style="fill:#ffffbe;stroke:#000000;" x="136.675094" xlink:href="#m2da8983ab0" y="212.02551"/>
     <use style="fill:#ffffbe;stroke:#000000;" x="221.537553" xlink:href="#m2da8983ab0" y="197.939845"/>
     <use style="fill:#ffffbe;stroke:#000000;" x="234.307578" xlink:href="#m2da8983ab0" y="198.093099"/>
     <use style="fill:#ffffbe;stroke:#000000;" x="213.067016" xlink:href="#m2da8983ab0" y="187.398114"/>
     <use style="fill:#ffffbe;stroke:#000000;" x="227.443717" xlink:href="#m2da8983ab0" y="198.099514"/>
     <use style="fill:#ffffbe;stroke:#000000;" x="238.657804" xlink:href="#m2da8983ab0" y="209.415797"/>
     <use style="fill:#ffffbe;stroke:#000000;" x="255.376346" xlink:href="#m2da8983ab0" y="191.132961"/>
     <use style="fill:#ffffbe;stroke:#000000;" x="257.407924" xlink:href="#m2da8983ab0" y="201.75571"/>
     <use style="fill:#ffffbe;stroke:#000000;" x="175.997258" xlink:href="#m2da8983ab0" y="219.943105"/>
     <use style="fill:#ffffbe;stroke:#000000;" x="181.833317" xlink:href="#m2da8983ab0" y="196.117341"/>
     <use style="fill:#ffffbe;stroke:#000000;" x="172.69067" xlink:href="#m2da8983ab0" y="220.570762"/>
     <use style="fill:#ffffbe;stroke:#000000;" x="230.969077" xlink:href="#m2da8983ab0" y="182.470551"/>
     <use style="fill:#ffffbe;stroke:#000000;" x="183.455198" xlink:href="#m2da8983ab0" y="185.178963"/>
     <use style="fill:#ffffbe;stroke:#000000;" x="253.074158" xlink:href="#m2da8983ab0" y="161.740896"/>
     <use style="fill:#ffffbe;stroke:#000000;" x="195.344849" xlink:href="#m2da8983ab0" y="249.245574"/>
     <use style="fill:#ffffbe;stroke:#000000;" x="235.856604" xlink:href="#m2da8983ab0" y="209.691816"/>
     <use style="fill:#ffffbe;stroke:#000000;" x="217.094224" xlink:href="#m2da8983ab0" y="260.536527"/>
     <use style="fill:#ffffbe;stroke:#000000;" x="195.097552" xlink:href="#m2da8983ab0" y="229.949375"/>
     <use style="fill:#ffffbe;stroke:#000000;" x="245.363564" xlink:href="#m2da8983ab0" y="210.493526"/>
     <use style="fill:#ffffbe;stroke:#000000;" x="220.64895" xlink:href="#m2da8983ab0" y="238.671548"/>
     <use style="fill:#ffffbe;stroke:#000000;" x="263.868167" xlink:href="#m2da8983ab0" y="97.649167"/>
     <use style="fill:#ffffbe;stroke:#000000;" x="212.439402" xlink:href="#m2da8983ab0" y="199.077288"/>
     <use style="fill:#ffffbe;stroke:#000000;" x="253.702672" xlink:href="#m2da8983ab0" y="226.048124"/>
     <use style="fill:#ffffbe;stroke:#000000;" x="184.042834" xlink:href="#m2da8983ab0" y="205.424559"/>
     <use style="fill:#ffffbe;stroke:#000000;" x="161.378564" xlink:href="#m2da8983ab0" y="175.144791"/>
     <use style="fill:#ffffbe;stroke:#000000;" x="217.447888" xlink:href="#m2da8983ab0" y="166.319731"/>
     <use style="fill:#ffffbe;stroke:#000000;" x="245.647992" xlink:href="#m2da8983ab0" y="197.102915"/>
     <use style="fill:#ffffbe;stroke:#000000;" x="189.643849" xlink:href="#m2da8983ab0" y="217.353304"/>
     <use style="fill:#ffffbe;stroke:#000000;" x="231.980914" xlink:href="#m2da8983ab0" y="176.173097"/>
     <use style="fill:#ffffbe;stroke:#000000;" x="255.681685" xlink:href="#m2da8983ab0" y="211.268508"/>
     <use style="fill:#ffffbe;stroke:#000000;" x="212.439402" xlink:href="#m2da8983ab0" y="199.077288"/>
     <use style="fill:#ffffbe;stroke:#000000;" x="244.725383" xlink:href="#m2da8983ab0" y="186.932339"/>
     <use style="fill:#ffffbe;stroke:#000000;" x="202.592769" xlink:href="#m2da8983ab0" y="249.497747"/>
     <use style="fill:#ffffbe;stroke:#000000;" x="211.727665" xlink:href="#m2da8983ab0" y="252.4856"/>
     <use style="fill:#ffffbe;stroke:#000000;" x="236.723113" xlink:href="#m2da8983ab0" y="191.554094"/>
     <use style="fill:#ffffbe;stroke:#000000;" x="215.735897" xlink:href="#m2da8983ab0" y="219.636077"/>
     <use style="fill:#ffffbe;stroke:#000000;" x="240.827423" xlink:href="#m2da8983ab0" y="205.935556"/>
     <use style="fill:#ffffbe;stroke:#000000;" x="159.347421" xlink:href="#m2da8983ab0" y="237.010648"/>
     <use style="fill:#ffffbe;stroke:#000000;" x="254.593206" xlink:href="#m2da8983ab0" y="226.759293"/>
     <use style="fill:#ffffbe;stroke:#000000;" x="218.70238" xlink:href="#m2da8983ab0" y="170.691416"/>
     <use style="fill:#ffffbe;stroke:#000000;" x="164.624597" xlink:href="#m2da8983ab0" y="189.842844"/>
     <use style="fill:#ffffbe;stroke:#000000;" x="173.864533" xlink:href="#m2da8983ab0" y="201.210083"/>
     <use style="fill:#ffffbe;stroke:#000000;" x="224.795008" xlink:href="#m2da8983ab0" y="210.792983"/>
     <use style="fill:#ffffbe;stroke:#000000;" x="180.186792" xlink:href="#m2da8983ab0" y="212.7743"/>
     <use style="fill:#ffffbe;stroke:#000000;" x="161.69479" xlink:href="#m2da8983ab0" y="235.706954"/>
     <use style="fill:#ffffbe;stroke:#000000;" x="250.720476" xlink:href="#m2da8983ab0" y="215.019593"/>
     <use style="fill:#ffffbe;stroke:#000000;" x="225.259006" xlink:href="#m2da8983ab0" y="191.665802"/>
     <use style="fill:#ffffbe;stroke:#000000;" x="262.275682" xlink:href="#m2da8983ab0" y="284.937559"/>
     <use style="fill:#ffffbe;stroke:#000000;" x="251.088395" xlink:href="#m2da8983ab0" y="251.040246"/>
     <use style="fill:#ffffbe;stroke:#000000;" x="228.62634" xlink:href="#m2da8983ab0" y="266.25352"/>
     <use style="fill:#ffffbe;stroke:#000000;" x="240.280843" xlink:href="#m2da8983ab0" y="178.679619"/>
     <use style="fill:#ffffbe;stroke:#000000;" x="236.720312" xlink:href="#m2da8983ab0" y="191.557211"/>
     <use style="fill:#ffffbe;stroke:#000000;" x="198.99468" xlink:href="#m2da8983ab0" y="259.825862"/>
     <use style="fill:#ffffbe;stroke:#000000;" x="226.607853" xlink:href="#m2da8983ab0" y="202.469478"/>
     <use style="fill:#ffffbe;stroke:#000000;" x="235.327132" xlink:href="#m2da8983ab0" y="206.627196"/>
     <use style="fill:#ffffbe;stroke:#000000;" x="231.389221" xlink:href="#m2da8983ab0" y="246.956631"/>
     <use style="fill:#ffffbe;stroke:#000000;" x="192.612736" xlink:href="#m2da8983ab0" y="236.424772"/>
     <use style="fill:#ffffbe;stroke:#000000;" x="201.259647" xlink:href="#m2da8983ab0" y="197.957088"/>
     <use style="fill:#ffffbe;stroke:#000000;" x="227.05983" xlink:href="#m2da8983ab0" y="181.344786"/>
    </g>
   </g>
   <g id="line2d_13">
    <defs>
     <path d="M 0 5 
C 1.326016 5 2.597899 4.473168 3.535534 3.535534 
C 4.473168 2.597899 5 1.326016 5 0 
C 5 -1.326016 4.473168 -2.597899 3.535534 -3.535534 
C 2.597899 -4.473168 1.326016 -5 0 -5 
C -1.326016 -5 -2.597899 -4.473168 -3.535534 -3.535534 
C -4.473168 -2.597899 -5 -1.326016 -5 0 
C -5 1.326016 -4.473168 2.597899 -3.535534 3.535534 
C -2.597899 4.473168 -1.326016 5 0 5 
z
" id="m2561d4fea9" style="stroke:#000000;"/>
    </defs>
    <g clip-path="url(#pb65e433b5c)">
     <use style="fill:#5e4fa2;stroke:#000000;" x="122.86615" xlink:href="#m2561d4fea9" y="134.427547"/>
     <use style="fill:#5e4fa2;stroke:#000000;" x="113.331928" xlink:href="#m2561d4fea9" y="123.055608"/>
     <use style="fill:#5e4fa2;stroke:#000000;" x="251.366919" xlink:href="#m2561d4fea9" y="283.923435"/>
     <use style="fill:#5e4fa2;stroke:#000000;" x="104.951601" xlink:href="#m2561d4fea9" y="140.415081"/>
     <use style="fill:#5e4fa2;stroke:#000000;" x="169.819913" xlink:href="#m2561d4fea9" y="171.233976"/>
     <use style="fill:#5e4fa2;stroke:#000000;" x="86.690442" xlink:href="#m2561d4fea9" y="134.85265"/>
     <use style="fill:#5e4fa2;stroke:#000000;" x="269.441805" xlink:href="#m2561d4fea9" y="173.643576"/>
     <use style="fill:#5e4fa2;stroke:#000000;" x="259.387107" xlink:href="#m2561d4fea9" y="289.226575"/>
     <use style="fill:#5e4fa2;stroke:#000000;" x="182.491911" xlink:href="#m2561d4fea9" y="84.196428"/>
     <use style="fill:#5e4fa2;stroke:#000000;" x="188.166751" xlink:href="#m2561d4fea9" y="147.93691"/>
     <use style="fill:#5e4fa2;stroke:#000000;" x="187.954502" xlink:href="#m2561d4fea9" y="149.30128"/>
     <use style="fill:#5e4fa2;stroke:#000000;" x="322.213846" xlink:href="#m2561d4fea9" y="198.3706"/>
     <use style="fill:#5e4fa2;stroke:#000000;" x="225.997108" xlink:href="#m2561d4fea9" y="120.077026"/>
     <use style="fill:#5e4fa2;stroke:#000000;" x="286.448334" xlink:href="#m2561d4fea9" y="218.62751"/>
     <use style="fill:#5e4fa2;stroke:#000000;" x="347.438562" xlink:href="#m2561d4fea9" y="202.604484"/>
     <use style="fill:#5e4fa2;stroke:#000000;" x="211.859554" xlink:href="#m2561d4fea9" y="93.00062"/>
     <use style="fill:#5e4fa2;stroke:#000000;" x="221.64096" xlink:href="#m2561d4fea9" y="112.981987"/>
     <use style="fill:#5e4fa2;stroke:#000000;" x="184.097159" xlink:href="#m2561d4fea9" y="171.54941"/>
     <use style="fill:#5e4fa2;stroke:#000000;" x="326.900952" xlink:href="#m2561d4fea9" y="216.003175"/>
     <use style="fill:#5e4fa2;stroke:#000000;" x="112.651945" xlink:href="#m2561d4fea9" y="138.896254"/>
     <use style="fill:#5e4fa2;stroke:#000000;" x="118.911748" xlink:href="#m2561d4fea9" y="146.339347"/>
     <use style="fill:#5e4fa2;stroke:#000000;" x="206.712708" xlink:href="#m2561d4fea9" y="100.03355"/>
     <use style="fill:#5e4fa2;stroke:#000000;" x="169.820283" xlink:href="#m2561d4fea9" y="171.236895"/>
     <use style="fill:#5e4fa2;stroke:#000000;" x="255.464146" xlink:href="#m2561d4fea9" y="294.805222"/>
     <use style="fill:#5e4fa2;stroke:#000000;" x="279.05068" xlink:href="#m2561d4fea9" y="173.746399"/>
     <use style="fill:#5e4fa2;stroke:#000000;" x="209.902524" xlink:href="#m2561d4fea9" y="81.932232"/>
     <use style="fill:#5e4fa2;stroke:#000000;" x="166.739462" xlink:href="#m2561d4fea9" y="152.699982"/>
     <use style="fill:#5e4fa2;stroke:#000000;" x="99.220885" xlink:href="#m2561d4fea9" y="132.087215"/>
     <use style="fill:#5e4fa2;stroke:#000000;" x="202.93471" xlink:href="#m2561d4fea9" y="89.619288"/>
     <use style="fill:#5e4fa2;stroke:#000000;" x="95.869811" xlink:href="#m2561d4fea9" y="124.280235"/>
     <use style="fill:#5e4fa2;stroke:#000000;" x="125.378881" xlink:href="#m2561d4fea9" y="154.060598"/>
     <use style="fill:#5e4fa2;stroke:#000000;" x="138.679441" xlink:href="#m2561d4fea9" y="200.815175"/>
     <use style="fill:#5e4fa2;stroke:#000000;" x="221.679849" xlink:href="#m2561d4fea9" y="139.084226"/>
     <use style="fill:#5e4fa2;stroke:#000000;" x="124.365292" xlink:href="#m2561d4fea9" y="149.559386"/>
     <use style="fill:#5e4fa2;stroke:#000000;" x="331.669322" xlink:href="#m2561d4fea9" y="199.7491"/>
     <use style="fill:#5e4fa2;stroke:#000000;" x="140.377919" xlink:href="#m2561d4fea9" y="203.984923"/>
     <use style="fill:#5e4fa2;stroke:#000000;" x="107.652584" xlink:href="#m2561d4fea9" y="127.081093"/>
     <use style="fill:#5e4fa2;stroke:#000000;" x="186.393166" xlink:href="#m2561d4fea9" y="89.097376"/>
     <use style="fill:#5e4fa2;stroke:#000000;" x="173.768033" xlink:href="#m2561d4fea9" y="86.437658"/>
     <use style="fill:#5e4fa2;stroke:#000000;" x="111.647247" xlink:href="#m2561d4fea9" y="125.762991"/>
     <use style="fill:#5e4fa2;stroke:#000000;" x="222.830073" xlink:href="#m2561d4fea9" y="133.289439"/>
     <use style="fill:#5e4fa2;stroke:#000000;" x="137.411764" xlink:href="#m2561d4fea9" y="203.111062"/>
     <use style="fill:#5e4fa2;stroke:#000000;" x="347.438562" xlink:href="#m2561d4fea9" y="202.604112"/>
     <use style="fill:#5e4fa2;stroke:#000000;" x="215.137047" xlink:href="#m2561d4fea9" y="103.630511"/>
     <use style="fill:#5e4fa2;stroke:#000000;" x="327.506343" xlink:href="#m2561d4fea9" y="197.119042"/>
     <use style="fill:#5e4fa2;stroke:#000000;" x="320.126594" xlink:href="#m2561d4fea9" y="216.182503"/>
     <use style="fill:#5e4fa2;stroke:#000000;" x="115.508536" xlink:href="#m2561d4fea9" y="134.580526"/>
     <use style="fill:#5e4fa2;stroke:#000000;" x="93.578025" xlink:href="#m2561d4fea9" y="133.427196"/>
     <use style="fill:#5e4fa2;stroke:#000000;" x="141.448701" xlink:href="#m2561d4fea9" y="201.722068"/>
     <use style="fill:#5e4fa2;stroke:#000000;" x="318.670918" xlink:href="#m2561d4fea9" y="208.194301"/>
     <use style="fill:#5e4fa2;stroke:#000000;" x="182.490817" xlink:href="#m2561d4fea9" y="84.198122"/>
     <use style="fill:#5e4fa2;stroke:#000000;" x="92.608592" xlink:href="#m2561d4fea9" y="138.475585"/>
     <use style="fill:#5e4fa2;stroke:#000000;" x="180.394084" xlink:href="#m2561d4fea9" y="77.897708"/>
     <use style="fill:#5e4fa2;stroke:#000000;" x="267.325713" xlink:href="#m2561d4fea9" y="293.016991"/>
     <use style="fill:#5e4fa2;stroke:#000000;" x="117.869734" xlink:href="#m2561d4fea9" y="138.119446"/>
     <use style="fill:#5e4fa2;stroke:#000000;" x="259.390511" xlink:href="#m2561d4fea9" y="289.232093"/>
     <use style="fill:#5e4fa2;stroke:#000000;" x="284.892894" xlink:href="#m2561d4fea9" y="206.777141"/>
     <use style="fill:#5e4fa2;stroke:#000000;" x="284.905682" xlink:href="#m2561d4fea9" y="206.777557"/>
     <use style="fill:#5e4fa2;stroke:#000000;" x="205.487382" xlink:href="#m2561d4fea9" y="90.203926"/>
     <use style="fill:#5e4fa2;stroke:#000000;" x="211.861808" xlink:href="#m2561d4fea9" y="92.99351"/>
     <use style="fill:#5e4fa2;stroke:#000000;" x="171.78076" xlink:href="#m2561d4fea9" y="158.991863"/>
     <use style="fill:#5e4fa2;stroke:#000000;" x="323.457115" xlink:href="#m2561d4fea9" y="217.871181"/>
     <use style="fill:#5e4fa2;stroke:#000000;" x="213.210798" xlink:href="#m2561d4fea9" y="96.964032"/>
     <use style="fill:#5e4fa2;stroke:#000000;" x="184.422643" xlink:href="#m2561d4fea9" y="166.054986"/>
     <use style="fill:#5e4fa2;stroke:#000000;" x="261.172658" xlink:href="#m2561d4fea9" y="295.488"/>
     <use style="fill:#5e4fa2;stroke:#000000;" x="198.244826" xlink:href="#m2561d4fea9" y="83.359981"/>
     <use style="fill:#5e4fa2;stroke:#000000;" x="186.340265" xlink:href="#m2561d4fea9" y="89.124708"/>
     <use style="fill:#5e4fa2;stroke:#000000;" x="127.937105" xlink:href="#m2561d4fea9" y="145.330198"/>
     <use style="fill:#5e4fa2;stroke:#000000;" x="270.5991" xlink:href="#m2561d4fea9" y="173.493841"/>
     <use style="fill:#5e4fa2;stroke:#000000;" x="182.385481" xlink:href="#m2561d4fea9" y="178.981571"/>
     <use style="fill:#5e4fa2;stroke:#000000;" x="364.243501" xlink:href="#m2561d4fea9" y="88.043465"/>
     <use style="fill:#5e4fa2;stroke:#000000;" x="217.76469" xlink:href="#m2561d4fea9" y="112.378262"/>
     <use style="fill:#5e4fa2;stroke:#000000;" x="186.810877" xlink:href="#m2561d4fea9" y="156.755409"/>
     <use style="fill:#5e4fa2;stroke:#000000;" x="281.390031" xlink:href="#m2561d4fea9" y="209.240418"/>
     <use style="fill:#5e4fa2;stroke:#000000;" x="102.07279" xlink:href="#m2561d4fea9" y="121.983565"/>
     <use style="fill:#5e4fa2;stroke:#000000;" x="287.319959" xlink:href="#m2561d4fea9" y="223.149481"/>
     <use style="fill:#5e4fa2;stroke:#000000;" x="188.997706" xlink:href="#m2561d4fea9" y="165.367385"/>
     <use style="fill:#5e4fa2;stroke:#000000;" x="99.21629" xlink:href="#m2561d4fea9" y="132.086007"/>
    </g>
   </g>
   <g id="patch_3">
    <path d="M 57.6 307.584 
L 57.6 41.472 
" style="fill:none;stroke:#000000;stroke-linecap:square;stroke-linejoin:miter;stroke-width:0.8;"/>
   </g>
   <g id="patch_4">
    <path d="M 414.72 307.584 
L 414.72 41.472 
" style="fill:none;stroke:#000000;stroke-linecap:square;stroke-linejoin:miter;stroke-width:0.8;"/>
   </g>
   <g id="patch_5">
    <path d="M 57.6 307.584 
L 414.72 307.584 
" style="fill:none;stroke:#000000;stroke-linecap:square;stroke-linejoin:miter;stroke-width:0.8;"/>
   </g>
   <g id="patch_6">
    <path d="M 57.6 41.472 
L 414.72 41.472 
" style="fill:none;stroke:#000000;stroke-linecap:square;stroke-linejoin:miter;stroke-width:0.8;"/>
   </g>
   <g id="text_11">
    <!-- AffinityPropagation Number of clusters: 3 -->
    <defs>
     <path d="M 34.1875 63.1875 
L 20.796875 26.90625 
L 47.609375 26.90625 
z
M 28.609375 72.90625 
L 39.796875 72.90625 
L 67.578125 0 
L 57.328125 0 
L 50.6875 18.703125 
L 17.828125 18.703125 
L 11.1875 0 
L 0.78125 0 
z
" id="DejaVuSans-65"/>
     <path d="M 37.109375 75.984375 
L 37.109375 68.5 
L 28.515625 68.5 
Q 23.6875 68.5 21.796875 66.546875 
Q 19.921875 64.59375 19.921875 59.515625 
L 19.921875 54.6875 
L 34.71875 54.6875 
L 34.71875 47.703125 
L 19.921875 47.703125 
L 19.921875 0 
L 10.890625 0 
L 10.890625 47.703125 
L 2.296875 47.703125 
L 2.296875 54.6875 
L 10.890625 54.6875 
L 10.890625 58.5 
Q 10.890625 67.625 15.140625 71.796875 
Q 19.390625 75.984375 28.609375 75.984375 
z
" id="DejaVuSans-102"/>
     <path d="M 9.421875 54.6875 
L 18.40625 54.6875 
L 18.40625 0 
L 9.421875 0 
z
M 9.421875 75.984375 
L 18.40625 75.984375 
L 18.40625 64.59375 
L 9.421875 64.59375 
z
" id="DejaVuSans-105"/>
     <path d="M 54.890625 33.015625 
L 54.890625 0 
L 45.90625 0 
L 45.90625 32.71875 
Q 45.90625 40.484375 42.875 44.328125 
Q 39.84375 48.1875 33.796875 48.1875 
Q 26.515625 48.1875 22.3125 43.546875 
Q 18.109375 38.921875 18.109375 30.90625 
L 18.109375 0 
L 9.078125 0 
L 9.078125 54.6875 
L 18.109375 54.6875 
L 18.109375 46.1875 
Q 21.34375 51.125 25.703125 53.5625 
Q 30.078125 56 35.796875 56 
Q 45.21875 56 50.046875 50.171875 
Q 54.890625 44.34375 54.890625 33.015625 
z
" id="DejaVuSans-110"/>
     <path d="M 18.3125 70.21875 
L 18.3125 54.6875 
L 36.8125 54.6875 
L 36.8125 47.703125 
L 18.3125 47.703125 
L 18.3125 18.015625 
Q 18.3125 11.328125 20.140625 9.421875 
Q 21.96875 7.515625 27.59375 7.515625 
L 36.8125 7.515625 
L 36.8125 0 
L 27.59375 0 
Q 17.1875 0 13.234375 3.875 
Q 9.28125 7.765625 9.28125 18.015625 
L 9.28125 47.703125 
L 2.6875 47.703125 
L 2.6875 54.6875 
L 9.28125 54.6875 
L 9.28125 70.21875 
z
" id="DejaVuSans-116"/>
     <path d="M 32.171875 -5.078125 
Q 28.375 -14.84375 24.75 -17.8125 
Q 21.140625 -20.796875 15.09375 -20.796875 
L 7.90625 -20.796875 
L 7.90625 -13.28125 
L 13.1875 -13.28125 
Q 16.890625 -13.28125 18.9375 -11.515625 
Q 21 -9.765625 23.484375 -3.21875 
L 25.09375 0.875 
L 2.984375 54.6875 
L 12.5 54.6875 
L 29.59375 11.921875 
L 46.6875 54.6875 
L 56.203125 54.6875 
z
" id="DejaVuSans-121"/>
     <path d="M 19.671875 64.796875 
L 19.671875 37.40625 
L 32.078125 37.40625 
Q 38.96875 37.40625 42.71875 40.96875 
Q 46.484375 44.53125 46.484375 51.125 
Q 46.484375 57.671875 42.71875 61.234375 
Q 38.96875 64.796875 32.078125 64.796875 
z
M 9.8125 72.90625 
L 32.078125 72.90625 
Q 44.34375 72.90625 50.609375 67.359375 
Q 56.890625 61.8125 56.890625 51.125 
Q 56.890625 40.328125 50.609375 34.8125 
Q 44.34375 29.296875 32.078125 29.296875 
L 19.671875 29.296875 
L 19.671875 0 
L 9.8125 0 
z
" id="DejaVuSans-80"/>
     <path d="M 41.109375 46.296875 
Q 39.59375 47.171875 37.8125 47.578125 
Q 36.03125 48 33.890625 48 
Q 26.265625 48 22.1875 43.046875 
Q 18.109375 38.09375 18.109375 28.8125 
L 18.109375 0 
L 9.078125 0 
L 9.078125 54.6875 
L 18.109375 54.6875 
L 18.109375 46.1875 
Q 20.953125 51.171875 25.484375 53.578125 
Q 30.03125 56 36.53125 56 
Q 37.453125 56 38.578125 55.875 
Q 39.703125 55.765625 41.0625 55.515625 
z
" id="DejaVuSans-114"/>
     <path d="M 30.609375 48.390625 
Q 23.390625 48.390625 19.1875 42.75 
Q 14.984375 37.109375 14.984375 27.296875 
Q 14.984375 17.484375 19.15625 11.84375 
Q 23.34375 6.203125 30.609375 6.203125 
Q 37.796875 6.203125 41.984375 11.859375 
Q 46.1875 17.53125 46.1875 27.296875 
Q 46.1875 37.015625 41.984375 42.703125 
Q 37.796875 48.390625 30.609375 48.390625 
z
M 30.609375 56 
Q 42.328125 56 49.015625 48.375 
Q 55.71875 40.765625 55.71875 27.296875 
Q 55.71875 13.875 49.015625 6.21875 
Q 42.328125 -1.421875 30.609375 -1.421875 
Q 18.84375 -1.421875 12.171875 6.21875 
Q 5.515625 13.875 5.515625 27.296875 
Q 5.515625 40.765625 12.171875 48.375 
Q 18.84375 56 30.609375 56 
z
" id="DejaVuSans-111"/>
     <path d="M 18.109375 8.203125 
L 18.109375 -20.796875 
L 9.078125 -20.796875 
L 9.078125 54.6875 
L 18.109375 54.6875 
L 18.109375 46.390625 
Q 20.953125 51.265625 25.265625 53.625 
Q 29.59375 56 35.59375 56 
Q 45.5625 56 51.78125 48.09375 
Q 58.015625 40.1875 58.015625 27.296875 
Q 58.015625 14.40625 51.78125 6.484375 
Q 45.5625 -1.421875 35.59375 -1.421875 
Q 29.59375 -1.421875 25.265625 0.953125 
Q 20.953125 3.328125 18.109375 8.203125 
z
M 48.6875 27.296875 
Q 48.6875 37.203125 44.609375 42.84375 
Q 40.53125 48.484375 33.40625 48.484375 
Q 26.265625 48.484375 22.1875 42.84375 
Q 18.109375 37.203125 18.109375 27.296875 
Q 18.109375 17.390625 22.1875 11.75 
Q 26.265625 6.109375 33.40625 6.109375 
Q 40.53125 6.109375 44.609375 11.75 
Q 48.6875 17.390625 48.6875 27.296875 
z
" id="DejaVuSans-112"/>
     <path d="M 34.28125 27.484375 
Q 23.390625 27.484375 19.1875 25 
Q 14.984375 22.515625 14.984375 16.5 
Q 14.984375 11.71875 18.140625 8.90625 
Q 21.296875 6.109375 26.703125 6.109375 
Q 34.1875 6.109375 38.703125 11.40625 
Q 43.21875 16.703125 43.21875 25.484375 
L 43.21875 27.484375 
z
M 52.203125 31.203125 
L 52.203125 0 
L 43.21875 0 
L 43.21875 8.296875 
Q 40.140625 3.328125 35.546875 0.953125 
Q 30.953125 -1.421875 24.3125 -1.421875 
Q 15.921875 -1.421875 10.953125 3.296875 
Q 6 8.015625 6 15.921875 
Q 6 25.140625 12.171875 29.828125 
Q 18.359375 34.515625 30.609375 34.515625 
L 43.21875 34.515625 
L 43.21875 35.40625 
Q 43.21875 41.609375 39.140625 45 
Q 35.0625 48.390625 27.6875 48.390625 
Q 23 48.390625 18.546875 47.265625 
Q 14.109375 46.140625 10.015625 43.890625 
L 10.015625 52.203125 
Q 14.9375 54.109375 19.578125 55.046875 
Q 24.21875 56 28.609375 56 
Q 40.484375 56 46.34375 49.84375 
Q 52.203125 43.703125 52.203125 31.203125 
z
" id="DejaVuSans-97"/>
     <path d="M 45.40625 27.984375 
Q 45.40625 37.75 41.375 43.109375 
Q 37.359375 48.484375 30.078125 48.484375 
Q 22.859375 48.484375 18.828125 43.109375 
Q 14.796875 37.75 14.796875 27.984375 
Q 14.796875 18.265625 18.828125 12.890625 
Q 22.859375 7.515625 30.078125 7.515625 
Q 37.359375 7.515625 41.375 12.890625 
Q 45.40625 18.265625 45.40625 27.984375 
z
M 54.390625 6.78125 
Q 54.390625 -7.171875 48.1875 -13.984375 
Q 42 -20.796875 29.203125 -20.796875 
Q 24.46875 -20.796875 20.265625 -20.09375 
Q 16.0625 -19.390625 12.109375 -17.921875 
L 12.109375 -9.1875 
Q 16.0625 -11.328125 19.921875 -12.34375 
Q 23.78125 -13.375 27.78125 -13.375 
Q 36.625 -13.375 41.015625 -8.765625 
Q 45.40625 -4.15625 45.40625 5.171875 
L 45.40625 9.625 
Q 42.625 4.78125 38.28125 2.390625 
Q 33.9375 0 27.875 0 
Q 17.828125 0 11.671875 7.65625 
Q 5.515625 15.328125 5.515625 27.984375 
Q 5.515625 40.671875 11.671875 48.328125 
Q 17.828125 56 27.875 56 
Q 33.9375 56 38.28125 53.609375 
Q 42.625 51.21875 45.40625 46.390625 
L 45.40625 54.6875 
L 54.390625 54.6875 
z
" id="DejaVuSans-103"/>
     <path id="DejaVuSans-32"/>
     <path d="M 9.8125 72.90625 
L 23.09375 72.90625 
L 55.421875 11.921875 
L 55.421875 72.90625 
L 64.984375 72.90625 
L 64.984375 0 
L 51.703125 0 
L 19.390625 60.984375 
L 19.390625 0 
L 9.8125 0 
z
" id="DejaVuSans-78"/>
     <path d="M 8.5 21.578125 
L 8.5 54.6875 
L 17.484375 54.6875 
L 17.484375 21.921875 
Q 17.484375 14.15625 20.5 10.265625 
Q 23.53125 6.390625 29.59375 6.390625 
Q 36.859375 6.390625 41.078125 11.03125 
Q 45.3125 15.671875 45.3125 23.6875 
L 45.3125 54.6875 
L 54.296875 54.6875 
L 54.296875 0 
L 45.3125 0 
L 45.3125 8.40625 
Q 42.046875 3.421875 37.71875 1 
Q 33.40625 -1.421875 27.6875 -1.421875 
Q 18.265625 -1.421875 13.375 4.4375 
Q 8.5 10.296875 8.5 21.578125 
z
M 31.109375 56 
z
" id="DejaVuSans-117"/>
     <path d="M 52 44.1875 
Q 55.375 50.25 60.0625 53.125 
Q 64.75 56 71.09375 56 
Q 79.640625 56 84.28125 50.015625 
Q 88.921875 44.046875 88.921875 33.015625 
L 88.921875 0 
L 79.890625 0 
L 79.890625 32.71875 
Q 79.890625 40.578125 77.09375 44.375 
Q 74.3125 48.1875 68.609375 48.1875 
Q 61.625 48.1875 57.5625 43.546875 
Q 53.515625 38.921875 53.515625 30.90625 
L 53.515625 0 
L 44.484375 0 
L 44.484375 32.71875 
Q 44.484375 40.625 41.703125 44.40625 
Q 38.921875 48.1875 33.109375 48.1875 
Q 26.21875 48.1875 22.15625 43.53125 
Q 18.109375 38.875 18.109375 30.90625 
L 18.109375 0 
L 9.078125 0 
L 9.078125 54.6875 
L 18.109375 54.6875 
L 18.109375 46.1875 
Q 21.1875 51.21875 25.484375 53.609375 
Q 29.78125 56 35.6875 56 
Q 41.65625 56 45.828125 52.96875 
Q 50 49.953125 52 44.1875 
z
" id="DejaVuSans-109"/>
     <path d="M 48.6875 27.296875 
Q 48.6875 37.203125 44.609375 42.84375 
Q 40.53125 48.484375 33.40625 48.484375 
Q 26.265625 48.484375 22.1875 42.84375 
Q 18.109375 37.203125 18.109375 27.296875 
Q 18.109375 17.390625 22.1875 11.75 
Q 26.265625 6.109375 33.40625 6.109375 
Q 40.53125 6.109375 44.609375 11.75 
Q 48.6875 17.390625 48.6875 27.296875 
z
M 18.109375 46.390625 
Q 20.953125 51.265625 25.265625 53.625 
Q 29.59375 56 35.59375 56 
Q 45.5625 56 51.78125 48.09375 
Q 58.015625 40.1875 58.015625 27.296875 
Q 58.015625 14.40625 51.78125 6.484375 
Q 45.5625 -1.421875 35.59375 -1.421875 
Q 29.59375 -1.421875 25.265625 0.953125 
Q 20.953125 3.328125 18.109375 8.203125 
L 18.109375 0 
L 9.078125 0 
L 9.078125 75.984375 
L 18.109375 75.984375 
z
" id="DejaVuSans-98"/>
     <path d="M 56.203125 29.59375 
L 56.203125 25.203125 
L 14.890625 25.203125 
Q 15.484375 15.921875 20.484375 11.0625 
Q 25.484375 6.203125 34.421875 6.203125 
Q 39.59375 6.203125 44.453125 7.46875 
Q 49.3125 8.734375 54.109375 11.28125 
L 54.109375 2.78125 
Q 49.265625 0.734375 44.1875 -0.34375 
Q 39.109375 -1.421875 33.890625 -1.421875 
Q 20.796875 -1.421875 13.15625 6.1875 
Q 5.515625 13.8125 5.515625 26.8125 
Q 5.515625 40.234375 12.765625 48.109375 
Q 20.015625 56 32.328125 56 
Q 43.359375 56 49.78125 48.890625 
Q 56.203125 41.796875 56.203125 29.59375 
z
M 47.21875 32.234375 
Q 47.125 39.59375 43.09375 43.984375 
Q 39.0625 48.390625 32.421875 48.390625 
Q 24.90625 48.390625 20.390625 44.140625 
Q 15.875 39.890625 15.1875 32.171875 
z
" id="DejaVuSans-101"/>
     <path d="M 48.78125 52.59375 
L 48.78125 44.1875 
Q 44.96875 46.296875 41.140625 47.34375 
Q 37.3125 48.390625 33.40625 48.390625 
Q 24.65625 48.390625 19.8125 42.84375 
Q 14.984375 37.3125 14.984375 27.296875 
Q 14.984375 17.28125 19.8125 11.734375 
Q 24.65625 6.203125 33.40625 6.203125 
Q 37.3125 6.203125 41.140625 7.25 
Q 44.96875 8.296875 48.78125 10.40625 
L 48.78125 2.09375 
Q 45.015625 0.34375 40.984375 -0.53125 
Q 36.96875 -1.421875 32.421875 -1.421875 
Q 20.0625 -1.421875 12.78125 6.34375 
Q 5.515625 14.109375 5.515625 27.296875 
Q 5.515625 40.671875 12.859375 48.328125 
Q 20.21875 56 33.015625 56 
Q 37.15625 56 41.109375 55.140625 
Q 45.0625 54.296875 48.78125 52.59375 
z
" id="DejaVuSans-99"/>
     <path d="M 9.421875 75.984375 
L 18.40625 75.984375 
L 18.40625 0 
L 9.421875 0 
z
" id="DejaVuSans-108"/>
     <path d="M 44.28125 53.078125 
L 44.28125 44.578125 
Q 40.484375 46.53125 36.375 47.5 
Q 32.28125 48.484375 27.875 48.484375 
Q 21.1875 48.484375 17.84375 46.4375 
Q 14.5 44.390625 14.5 40.28125 
Q 14.5 37.15625 16.890625 35.375 
Q 19.28125 33.59375 26.515625 31.984375 
L 29.59375 31.296875 
Q 39.15625 29.25 43.1875 25.515625 
Q 47.21875 21.78125 47.21875 15.09375 
Q 47.21875 7.46875 41.1875 3.015625 
Q 35.15625 -1.421875 24.609375 -1.421875 
Q 20.21875 -1.421875 15.453125 -0.5625 
Q 10.6875 0.296875 5.421875 2 
L 5.421875 11.28125 
Q 10.40625 8.6875 15.234375 7.390625 
Q 20.0625 6.109375 24.8125 6.109375 
Q 31.15625 6.109375 34.5625 8.28125 
Q 37.984375 10.453125 37.984375 14.40625 
Q 37.984375 18.0625 35.515625 20.015625 
Q 33.0625 21.96875 24.703125 23.78125 
L 21.578125 24.515625 
Q 13.234375 26.265625 9.515625 29.90625 
Q 5.8125 33.546875 5.8125 39.890625 
Q 5.8125 47.609375 11.28125 51.796875 
Q 16.75 56 26.8125 56 
Q 31.78125 56 36.171875 55.265625 
Q 40.578125 54.546875 44.28125 53.078125 
z
" id="DejaVuSans-115"/>
     <path d="M 11.71875 12.40625 
L 22.015625 12.40625 
L 22.015625 0 
L 11.71875 0 
z
M 11.71875 51.703125 
L 22.015625 51.703125 
L 22.015625 39.3125 
L 11.71875 39.3125 
z
" id="DejaVuSans-58"/>
     <path d="M 40.578125 39.3125 
Q 47.65625 37.796875 51.625 33 
Q 55.609375 28.21875 55.609375 21.1875 
Q 55.609375 10.40625 48.1875 4.484375 
Q 40.765625 -1.421875 27.09375 -1.421875 
Q 22.515625 -1.421875 17.65625 -0.515625 
Q 12.796875 0.390625 7.625 2.203125 
L 7.625 11.71875 
Q 11.71875 9.328125 16.59375 8.109375 
Q 21.484375 6.890625 26.8125 6.890625 
Q 36.078125 6.890625 40.9375 10.546875 
Q 45.796875 14.203125 45.796875 21.1875 
Q 45.796875 27.640625 41.28125 31.265625 
Q 36.765625 34.90625 28.71875 34.90625 
L 20.21875 34.90625 
L 20.21875 43.015625 
L 29.109375 43.015625 
Q 36.375 43.015625 40.234375 45.921875 
Q 44.09375 48.828125 44.09375 54.296875 
Q 44.09375 59.90625 40.109375 62.90625 
Q 36.140625 65.921875 28.71875 65.921875 
Q 24.65625 65.921875 20.015625 65.03125 
Q 15.375 64.15625 9.8125 62.3125 
L 9.8125 71.09375 
Q 15.4375 72.65625 20.34375 73.4375 
Q 25.25 74.21875 29.59375 74.21875 
Q 40.828125 74.21875 47.359375 69.109375 
Q 53.90625 64.015625 53.90625 55.328125 
Q 53.90625 49.265625 50.4375 45.09375 
Q 46.96875 40.921875 40.578125 39.3125 
z
" id="DejaVuSans-51"/>
    </defs>
    <g transform="translate(111.69375 35.472)scale(0.12 -0.12)">
     <use xlink:href="#DejaVuSans-65"/>
     <use x="68.361328" xlink:href="#DejaVuSans-102"/>
     <use x="103.566406" xlink:href="#DejaVuSans-102"/>
     <use x="138.771484" xlink:href="#DejaVuSans-105"/>
     <use x="166.554688" xlink:href="#DejaVuSans-110"/>
     <use x="229.933594" xlink:href="#DejaVuSans-105"/>
     <use x="257.716797" xlink:href="#DejaVuSans-116"/>
     <use x="296.925781" xlink:href="#DejaVuSans-121"/>
     <use x="356.105469" xlink:href="#DejaVuSans-80"/>
     <use x="416.392578" xlink:href="#DejaVuSans-114"/>
     <use x="457.474609" xlink:href="#DejaVuSans-111"/>
     <use x="518.65625" xlink:href="#DejaVuSans-112"/>
     <use x="582.132812" xlink:href="#DejaVuSans-97"/>
     <use x="643.412109" xlink:href="#DejaVuSans-103"/>
     <use x="706.888672" xlink:href="#DejaVuSans-97"/>
     <use x="768.167969" xlink:href="#DejaVuSans-116"/>
     <use x="807.376953" xlink:href="#DejaVuSans-105"/>
     <use x="835.160156" xlink:href="#DejaVuSans-111"/>
     <use x="896.341797" xlink:href="#DejaVuSans-110"/>
     <use x="959.720703" xlink:href="#DejaVuSans-32"/>
     <use x="991.507812" xlink:href="#DejaVuSans-78"/>
     <use x="1066.3125" xlink:href="#DejaVuSans-117"/>
     <use x="1129.691406" xlink:href="#DejaVuSans-109"/>
     <use x="1227.103516" xlink:href="#DejaVuSans-98"/>
     <use x="1290.580078" xlink:href="#DejaVuSans-101"/>
     <use x="1352.103516" xlink:href="#DejaVuSans-114"/>
     <use x="1393.216797" xlink:href="#DejaVuSans-32"/>
     <use x="1425.003906" xlink:href="#DejaVuSans-111"/>
     <use x="1486.185547" xlink:href="#DejaVuSans-102"/>
     <use x="1521.390625" xlink:href="#DejaVuSans-32"/>
     <use x="1553.177734" xlink:href="#DejaVuSans-99"/>
     <use x="1608.158203" xlink:href="#DejaVuSans-108"/>
     <use x="1635.941406" xlink:href="#DejaVuSans-117"/>
     <use x="1699.320312" xlink:href="#DejaVuSans-115"/>
     <use x="1751.419922" xlink:href="#DejaVuSans-116"/>
     <use x="1790.628906" xlink:href="#DejaVuSans-101"/>
     <use x="1852.152344" xlink:href="#DejaVuSans-114"/>
     <use x="1893.265625" xlink:href="#DejaVuSans-115"/>
     <use x="1945.365234" xlink:href="#DejaVuSans-58"/>
     <use x="1979.056641" xlink:href="#DejaVuSans-32"/>
     <use x="2010.84375" xlink:href="#DejaVuSans-51"/>
    </g>
   </g>
  </g>
 </g>
 <defs>
  <clipPath id="pb65e433b5c">
   <rect height="266.112" width="357.12" x="57.6" y="41.472"/>
  </clipPath>
 </defs>
</svg>
