<?xml version="1.0" encoding="UTF-8"?><svg xmlns="http://www.w3.org/2000/svg" xmlns:xlink="http://www.w3.org/1999/xlink" fill-opacity="1" color-rendering="auto" color-interpolation="auto" text-rendering="auto" stroke="black" stroke-linecap="square" width="697" stroke-miterlimit="10" shape-rendering="auto" stroke-opacity="1" fill="black" stroke-dasharray="none" font-weight="normal" stroke-width="1" height="258" font-family="'Dialog'" font-style="normal" stroke-linejoin="miter" font-size="12px" stroke-dashoffset="0" image-rendering="auto">
  <!--Generated by ySVG 2.5-->
  <defs id="genericDefs"/>
  <g>
    <defs id="defs1">
      <clipPath clipPathUnits="userSpaceOnUse" id="clipPath1">
        <path d="M0 0 L697 0 L697 258 L0 258 L0 0 Z"/>
      </clipPath>
      <clipPath clipPathUnits="userSpaceOnUse" id="clipPath2">
        <path d="M-54 -72 L643 -72 L643 186 L-54 186 L-54 -72 Z"/>
      </clipPath>
    </defs>
    <g fill="white" text-rendering="geometricPrecision" shape-rendering="geometricPrecision" transform="translate(54,72)" stroke="white">
      <rect x="-54" width="697" height="258" y="-72" clip-path="url(#clipPath2)" stroke="none"/>
    </g>
    <g font-size="17px" stroke-linecap="butt" transform="matrix(1,0,0,1,54,72)" text-rendering="geometricPrecision" font-family="'Fira Mono'" shape-rendering="geometricPrecision" font-weight="bold" stroke-miterlimit="1.45">
      <text x="606.462" xml:space="preserve" y="35.7689" clip-path="url(#clipPath2)" stroke="none">4</text>
    </g>
    <g text-rendering="geometricPrecision" stroke-miterlimit="1.45" stroke-width="2" shape-rendering="geometricPrecision" transform="matrix(1,0,0,1,54,72)" stroke-linecap="butt">
      <circle fill="none" r="16.1003" clip-path="url(#clipPath2)" cx="611.5615" cy="30.0744"/>
    </g>
    <g font-size="17px" stroke-linecap="butt" transform="matrix(1,0,0,1,54,72)" text-rendering="geometricPrecision" font-family="'Fira Mono'" shape-rendering="geometricPrecision" font-weight="bold" stroke-miterlimit="1.45">
      <text x="339.6982" xml:space="preserve" y="35.7689" clip-path="url(#clipPath2)" stroke="none">2</text>
    </g>
    <g text-rendering="geometricPrecision" stroke-miterlimit="1.45" stroke-width="2" shape-rendering="geometricPrecision" transform="matrix(1,0,0,1,54,72)" stroke-linecap="butt">
      <circle fill="none" r="16.1003" clip-path="url(#clipPath2)" cx="344.7977" cy="30.0744"/>
    </g>
    <g font-size="17px" stroke-linecap="butt" transform="matrix(1,0,0,1,54,72)" text-rendering="geometricPrecision" font-family="'Fira Mono'" shape-rendering="geometricPrecision" font-weight="bold" stroke-miterlimit="1.45">
      <text x="72.9345" xml:space="preserve" y="35.7689" clip-path="url(#clipPath2)" stroke="none">1</text>
    </g>
    <g text-rendering="geometricPrecision" stroke-miterlimit="1.45" stroke-width="2" shape-rendering="geometricPrecision" transform="matrix(1,0,0,1,54,72)" stroke-linecap="butt">
      <circle fill="none" r="16.1003" clip-path="url(#clipPath2)" cx="78.034" cy="30.0744"/>
    </g>
    <g font-size="17px" stroke-linecap="butt" transform="matrix(1,0,0,1,54,72)" text-rendering="geometricPrecision" font-family="'Fira Mono'" shape-rendering="geometricPrecision" font-weight="bold" stroke-miterlimit="1.45">
      <text x="606.462" xml:space="preserve" y="97.9695" clip-path="url(#clipPath2)" stroke="none">5</text>
    </g>
    <g text-rendering="geometricPrecision" stroke-miterlimit="1.45" stroke-width="2" shape-rendering="geometricPrecision" transform="matrix(1,0,0,1,54,72)" stroke-linecap="butt">
      <circle fill="none" r="16.1003" clip-path="url(#clipPath2)" cx="611.5615" cy="92.2751"/>
    </g>
    <g font-size="17px" stroke-linecap="butt" transform="matrix(1,0,0,1,54,72)" text-rendering="geometricPrecision" font-family="'Fira Mono'" shape-rendering="geometricPrecision" font-weight="bold" stroke-miterlimit="1.45">
      <text x="339.6982" xml:space="preserve" y="97.9695" clip-path="url(#clipPath2)" stroke="none">3</text>
    </g>
    <g text-rendering="geometricPrecision" stroke-miterlimit="1.45" stroke-width="2" shape-rendering="geometricPrecision" transform="matrix(1,0,0,1,54,72)" stroke-linecap="butt">
      <circle fill="none" r="16.1003" clip-path="url(#clipPath2)" cx="344.7977" cy="92.2751"/>
    </g>
    <g font-size="17px" stroke-linecap="butt" transform="matrix(1,0,0,1,54,72)" text-rendering="geometricPrecision" font-family="'Fira Mono'" shape-rendering="geometricPrecision" font-weight="bold" stroke-miterlimit="1.45">
      <text x="72.9345" xml:space="preserve" y="97.9695" clip-path="url(#clipPath2)" stroke="none">1</text>
    </g>
    <g text-rendering="geometricPrecision" stroke-miterlimit="1.45" stroke-width="2" shape-rendering="geometricPrecision" transform="matrix(1,0,0,1,54,72)" stroke-linecap="butt">
      <circle fill="none" r="16.1003" clip-path="url(#clipPath2)" cx="78.034" cy="92.2751"/>
    </g>
    <g font-size="17px" stroke-linecap="butt" transform="matrix(1,0,0,1,54,72)" text-rendering="geometricPrecision" font-family="'Fira Mono'" shape-rendering="geometricPrecision" font-weight="bold" stroke-miterlimit="1.45">
      <text x="606.462" xml:space="preserve" y="160.1702" clip-path="url(#clipPath2)" stroke="none">6</text>
    </g>
    <g text-rendering="geometricPrecision" stroke-miterlimit="1.45" stroke-width="2" shape-rendering="geometricPrecision" transform="matrix(1,0,0,1,54,72)" stroke-linecap="butt">
      <circle fill="none" r="16.1003" clip-path="url(#clipPath2)" cx="611.5615" cy="154.4757"/>
    </g>
    <g font-size="17px" stroke-linecap="butt" transform="matrix(1,0,0,1,54,72)" text-rendering="geometricPrecision" font-family="'Fira Mono'" shape-rendering="geometricPrecision" font-weight="bold" stroke-miterlimit="1.45">
      <text x="339.6982" xml:space="preserve" y="160.1702" clip-path="url(#clipPath2)" stroke="none">3</text>
    </g>
    <g text-rendering="geometricPrecision" stroke-miterlimit="1.45" stroke-width="2" shape-rendering="geometricPrecision" transform="matrix(1,0,0,1,54,72)" stroke-linecap="butt">
      <circle fill="none" r="16.1003" clip-path="url(#clipPath2)" cx="344.7977" cy="154.4757"/>
    </g>
    <g font-size="17px" stroke-linecap="butt" transform="matrix(1,0,0,1,54,72)" text-rendering="geometricPrecision" font-family="'Fira Mono'" shape-rendering="geometricPrecision" font-weight="bold" stroke-miterlimit="1.45">
      <text x="72.9345" xml:space="preserve" y="160.1702" clip-path="url(#clipPath2)" stroke="none">1</text>
    </g>
    <g text-rendering="geometricPrecision" stroke-miterlimit="1.45" stroke-width="2" shape-rendering="geometricPrecision" transform="matrix(1,0,0,1,54,72)" stroke-linecap="butt">
      <circle fill="none" r="16.1003" clip-path="url(#clipPath2)" cx="78.034" cy="154.4757"/>
    </g>
    <g stroke-linecap="butt" font-size="17px" transform="matrix(1,0,0,1,54,72)" fill="rgb(204,0,0)" text-rendering="geometricPrecision" font-family="'Fira Mono'" shape-rendering="geometricPrecision" stroke="rgb(204,0,0)" font-weight="bold" stroke-miterlimit="1.45">
      <text x="606.462" xml:space="preserve" y="-26.4318" clip-path="url(#clipPath2)" stroke="none">z</text>
    </g>
    <g stroke-linecap="butt" transform="matrix(1,0,0,1,54,72)" fill="rgb(204,0,0)" text-rendering="geometricPrecision" shape-rendering="geometricPrecision" stroke="rgb(204,0,0)" stroke-width="2" stroke-miterlimit="1.45">
      <circle fill="none" r="16.1003" clip-path="url(#clipPath2)" cx="611.5615" cy="-32.1262"/>
    </g>
    <g stroke-linecap="butt" font-size="17px" transform="matrix(1,0,0,1,54,72)" fill="rgb(204,0,0)" text-rendering="geometricPrecision" font-family="'Fira Mono'" shape-rendering="geometricPrecision" stroke="rgb(204,0,0)" font-weight="bold" stroke-miterlimit="1.45">
      <text x="339.6982" xml:space="preserve" y="-26.4318" clip-path="url(#clipPath2)" stroke="none">x</text>
    </g>
    <g stroke-linecap="butt" transform="matrix(1,0,0,1,54,72)" fill="rgb(204,0,0)" text-rendering="geometricPrecision" shape-rendering="geometricPrecision" stroke="rgb(204,0,0)" stroke-width="2" stroke-miterlimit="1.45">
      <circle fill="none" r="16.1003" clip-path="url(#clipPath2)" cx="344.7977" cy="-32.1262"/>
      <text x="-36.4156" font-size="22px" y="-24.7603" clip-path="url(#clipPath2)" font-family="'Fira Mono'" stroke="none" stroke-width="1" xml:space="preserve">:Person</text>
    </g>
    <g stroke-linecap="butt" font-size="17px" transform="matrix(1,0,0,1,54,72)" fill="rgb(204,0,0)" text-rendering="geometricPrecision" font-family="'Fira Mono'" shape-rendering="geometricPrecision" stroke="rgb(204,0,0)" font-weight="bold" stroke-miterlimit="1.45">
      <text x="72.9345" xml:space="preserve" y="-26.4318" clip-path="url(#clipPath2)" stroke="none">p</text>
    </g>
    <g stroke-linecap="butt" transform="matrix(1,0,0,1,54,72)" fill="rgb(204,0,0)" text-rendering="geometricPrecision" shape-rendering="geometricPrecision" stroke="rgb(204,0,0)" stroke-width="2" stroke-miterlimit="1.45">
      <circle fill="none" r="16.1003" clip-path="url(#clipPath2)" cx="78.034" cy="-32.1262"/>
      <path fill="none" d="M360.8981 30.0744 L587.4612 30.0744" stroke-width="1" clip-path="url(#clipPath2)" stroke="black"/>
      <path fill="black" d="M595.4612 30.0744 L583.4612 25.0744 L586.4612 30.0744 L583.4612 35.0744 Z" stroke-width="1" clip-path="url(#clipPath2)" stroke="none"/>
      <rect x="469.5832" y="14.8817" clip-path="url(#clipPath2)" fill="white" width="17.1927" height="30.3855" stroke="none" stroke-width="1"/>
    </g>
    <g font-size="22px" stroke-linecap="butt" transform="matrix(1,0,0,1,54,72)" text-rendering="geometricPrecision" font-family="'Fira Mono'" shape-rendering="geometricPrecision" stroke-miterlimit="1.45">
      <text x="471.5833" xml:space="preserve" y="37.4404" clip-path="url(#clipPath2)" stroke="none">5</text>
      <path fill="none" d="M94.1343 30.0744 L320.6974 30.0744" clip-path="url(#clipPath2)"/>
      <path d="M328.6974 30.0744 L316.6974 25.0744 L319.6974 30.0744 L316.6974 35.0744 Z" stroke="none" clip-path="url(#clipPath2)"/>
    </g>
    <g stroke-linecap="butt" transform="matrix(1,0,0,1,54,72)" fill="white" text-rendering="geometricPrecision" shape-rendering="geometricPrecision" stroke="white" stroke-miterlimit="1.45">
      <rect x="202.8195" width="17.1927" height="30.3855" y="14.8817" clip-path="url(#clipPath2)" stroke="none"/>
    </g>
    <g font-size="22px" stroke-linecap="butt" transform="matrix(1,0,0,1,54,72)" text-rendering="geometricPrecision" font-family="'Fira Mono'" shape-rendering="geometricPrecision" stroke-miterlimit="1.45">
      <text x="204.8195" xml:space="preserve" y="37.4404" clip-path="url(#clipPath2)" stroke="none">1</text>
      <path fill="none" d="M360.8981 92.2751 L587.4612 92.2751" clip-path="url(#clipPath2)"/>
      <path d="M595.4612 92.2751 L583.4612 87.2751 L586.4612 92.2751 L583.4612 97.2751 Z" stroke="none" clip-path="url(#clipPath2)"/>
    </g>
    <g stroke-linecap="butt" transform="matrix(1,0,0,1,54,72)" fill="white" text-rendering="geometricPrecision" shape-rendering="geometricPrecision" stroke="white" stroke-miterlimit="1.45">
      <rect x="469.5832" width="17.1927" height="30.3855" y="77.0823" clip-path="url(#clipPath2)" stroke="none"/>
    </g>
    <g font-size="22px" stroke-linecap="butt" transform="matrix(1,0,0,1,54,72)" text-rendering="geometricPrecision" font-family="'Fira Mono'" shape-rendering="geometricPrecision" stroke-miterlimit="1.45">
      <text x="471.5833" xml:space="preserve" y="99.641" clip-path="url(#clipPath2)" stroke="none">3</text>
      <path fill="none" d="M94.1343 92.2751 L320.6974 92.2751" clip-path="url(#clipPath2)"/>
      <path d="M328.6974 92.2751 L316.6974 87.2751 L319.6974 92.2751 L316.6974 97.2751 Z" stroke="none" clip-path="url(#clipPath2)"/>
    </g>
    <g stroke-linecap="butt" transform="matrix(1,0,0,1,54,72)" fill="white" text-rendering="geometricPrecision" shape-rendering="geometricPrecision" stroke="white" stroke-miterlimit="1.45">
      <rect x="202.8195" width="17.1927" height="30.3855" y="77.0823" clip-path="url(#clipPath2)" stroke="none"/>
    </g>
    <g font-size="22px" stroke-linecap="butt" transform="matrix(1,0,0,1,54,72)" text-rendering="geometricPrecision" font-family="'Fira Mono'" shape-rendering="geometricPrecision" stroke-miterlimit="1.45">
      <text x="204.8195" xml:space="preserve" y="99.641" clip-path="url(#clipPath2)" stroke="none">4</text>
      <path fill="none" d="M360.8981 154.4757 L587.4612 154.4757" clip-path="url(#clipPath2)"/>
      <path d="M595.4612 154.4757 L583.4612 149.4757 L586.4612 154.4757 L583.4612 159.4757 Z" stroke="none" clip-path="url(#clipPath2)"/>
    </g>
    <g stroke-linecap="butt" transform="matrix(1,0,0,1,54,72)" fill="white" text-rendering="geometricPrecision" shape-rendering="geometricPrecision" stroke="white" stroke-miterlimit="1.45">
      <rect x="469.5832" width="17.1927" height="30.3855" y="139.283" clip-path="url(#clipPath2)" stroke="none"/>
    </g>
    <g font-size="22px" stroke-linecap="butt" transform="matrix(1,0,0,1,54,72)" text-rendering="geometricPrecision" font-family="'Fira Mono'" shape-rendering="geometricPrecision" stroke-miterlimit="1.45">
      <text x="471.5833" xml:space="preserve" y="161.8417" clip-path="url(#clipPath2)" stroke="none">2</text>
      <path fill="none" d="M94.1343 154.4757 L320.6974 154.4757" clip-path="url(#clipPath2)"/>
      <path d="M328.6974 154.4757 L316.6974 149.4757 L319.6974 154.4757 L316.6974 159.4757 Z" stroke="none" clip-path="url(#clipPath2)"/>
    </g>
    <g stroke-linecap="butt" transform="matrix(1,0,0,1,54,72)" fill="white" text-rendering="geometricPrecision" shape-rendering="geometricPrecision" stroke="white" stroke-miterlimit="1.45">
      <rect x="202.8195" width="17.1927" height="30.3855" y="139.283" clip-path="url(#clipPath2)" stroke="none"/>
    </g>
    <g font-size="22px" stroke-linecap="butt" transform="matrix(1,0,0,1,54,72)" text-rendering="geometricPrecision" font-family="'Fira Mono'" shape-rendering="geometricPrecision" stroke-miterlimit="1.45">
      <text x="204.8195" xml:space="preserve" y="161.8417" clip-path="url(#clipPath2)" stroke="none">4</text>
    </g>
    <g stroke-linecap="butt" transform="matrix(1,0,0,1,54,72)" fill="rgb(204,0,0)" text-rendering="geometricPrecision" shape-rendering="geometricPrecision" stroke="rgb(204,0,0)" stroke-miterlimit="1.45">
      <path fill="none" d="M360.8981 -32.1262 L587.4612 -32.1262" clip-path="url(#clipPath2)"/>
      <path d="M595.4612 -32.1262 L583.4612 -37.1262 L586.4612 -32.1262 L583.4612 -27.1262 Z" clip-path="url(#clipPath2)" stroke="none"/>
      <rect x="430.005" y="-47.319" clip-path="url(#clipPath2)" fill="white" width="96.3492" height="30.3855" stroke="none"/>
      <text x="432.005" font-size="22px" y="-24.7603" clip-path="url(#clipPath2)" font-family="'Fira Mono'" stroke="none" xml:space="preserve">l:LIKES</text>
      <path fill="none" d="M94.1343 -32.1262 L320.6974 -32.1262" clip-path="url(#clipPath2)"/>
      <path d="M328.6974 -32.1262 L316.6974 -37.1262 L319.6974 -32.1262 L316.6974 -27.1262 Z" clip-path="url(#clipPath2)" stroke="none"/>
      <rect x="156.6449" y="-47.319" clip-path="url(#clipPath2)" fill="white" width="109.542" height="30.3855" stroke="none"/>
      <text x="158.6449" font-size="22px" y="-24.7603" clip-path="url(#clipPath2)" font-family="'Fira Mono'" stroke="none" xml:space="preserve">f:FRIEND</text>
    </g>
  </g>
</svg>
