<?xml version="1.0" encoding="UTF-8"?><svg xmlns="http://www.w3.org/2000/svg" xmlns:xlink="http://www.w3.org/1999/xlink" fill-opacity="1" color-rendering="auto" color-interpolation="auto" text-rendering="auto" stroke="black" stroke-linecap="square" width="383" stroke-miterlimit="10" shape-rendering="auto" stroke-opacity="1" fill="black" stroke-dasharray="none" font-weight="normal" stroke-width="1" height="64" font-family="'Dialog'" font-style="normal" stroke-linejoin="miter" font-size="12px" stroke-dashoffset="0" image-rendering="auto">
  <!--Generated by ySVG 2.5-->
  <defs id="genericDefs"/>
  <g>
    <defs id="defs1">
      <clipPath clipPathUnits="userSpaceOnUse" id="clipPath1">
        <path d="M0 0 L383 0 L383 64 L0 64 L0 0 Z"/>
      </clipPath>
      <clipPath clipPathUnits="userSpaceOnUse" id="clipPath2">
        <path d="M295 90 L678 90 L678 154 L295 154 L295 90 Z"/>
      </clipPath>
    </defs>
    <g fill="white" text-rendering="geometricPrecision" shape-rendering="geometricPrecision" transform="translate(-295,-90)" stroke="white">
      <rect x="295" width="383" height="64" y="90" clip-path="url(#clipPath2)" stroke="none"/>
    </g>
    <g font-size="22px" stroke-linecap="butt" transform="matrix(1,0,0,1,-295,-90)" text-rendering="geometricPrecision" font-family="'Fira Mono'" shape-rendering="geometricPrecision" stroke-miterlimit="1.45">
      <text x="554.6149" xml:space="preserve" y="129.4274" clip-path="url(#clipPath2)" stroke="none">:Teacher</text>
      <text x="527.4151" font-size="17px" y="127.7559" clip-path="url(#clipPath2)" stroke="none" font-weight="bold" xml:space="preserve">t</text>
      <circle fill="none" stroke-width="2" r="16.1003" clip-path="url(#clipPath2)" cx="532.5146" cy="122.0615"/>
      <text x="321.6513" font-size="17px" y="127.7559" clip-path="url(#clipPath2)" stroke="none" font-weight="bold" xml:space="preserve">p</text>
      <circle fill="none" stroke-width="2" r="16.1003" clip-path="url(#clipPath2)" cx="326.7508" cy="122.0615"/>
      <path fill="none" d="M342.8511 122.0615 L508.4142 122.0615" clip-path="url(#clipPath2)"/>
      <path d="M516.4142 122.0615 L504.4142 117.0615 L507.4142 122.0615 L504.4142 127.0615 Z" stroke="none" clip-path="url(#clipPath2)"/>
    </g>
    <g stroke-linecap="butt" transform="matrix(1,0,0,1,-295,-90)" fill="white" text-rendering="geometricPrecision" shape-rendering="geometricPrecision" stroke="white" stroke-miterlimit="1.45">
      <rect x="374.8617" width="109.542" height="30.3855" y="106.8687" clip-path="url(#clipPath2)" stroke="none"/>
    </g>
    <g font-size="22px" stroke-linecap="butt" transform="matrix(1,0,0,1,-295,-90)" text-rendering="geometricPrecision" font-family="'Fira Mono'" shape-rendering="geometricPrecision" stroke-miterlimit="1.45">
      <text x="376.8617" xml:space="preserve" y="129.4274" clip-path="url(#clipPath2)" stroke="none">f:FRIEND</text>
    </g>
  </g>
</svg>
