<?xml version="1.0" encoding="UTF-8"?><svg xmlns="http://www.w3.org/2000/svg" xmlns:xlink="http://www.w3.org/1999/xlink" fill-opacity="1" color-rendering="auto" color-interpolation="auto" text-rendering="auto" stroke="black" stroke-linecap="square" width="374" stroke-miterlimit="10" shape-rendering="auto" stroke-opacity="1" fill="black" stroke-dasharray="none" font-weight="normal" stroke-width="1" height="72" font-family="'Dialog'" font-style="normal" stroke-linejoin="miter" font-size="12px" stroke-dashoffset="0" image-rendering="auto">
  <!--Generated by ySVG 2.5-->
  <defs id="genericDefs"/>
  <g>
    <defs id="defs1">
      <clipPath clipPathUnits="userSpaceOnUse" id="clipPath1">
        <path d="M0 0 L374 0 L374 72 L0 72 L0 0 Z"/>
      </clipPath>
      <clipPath clipPathUnits="userSpaceOnUse" id="clipPath2">
        <path d="M131 195 L505 195 L505 267 L131 267 L131 195 Z"/>
      </clipPath>
    </defs>
    <g fill="white" text-rendering="geometricPrecision" shape-rendering="geometricPrecision" transform="translate(-131,-195)" stroke="white">
      <rect x="131" width="374" height="72" y="195" clip-path="url(#clipPath2)" stroke="none"/>
    </g>
    <g font-size="17px" stroke-linecap="butt" transform="matrix(1,0,0,1,-131,-195)" text-rendering="geometricPrecision" font-family="'Fira Mono'" shape-rendering="geometricPrecision" font-weight="bold" stroke-miterlimit="1.45">
      <text x="468.6319" xml:space="preserve" y="240.743" clip-path="url(#clipPath2)" stroke="none">x</text>
    </g>
    <g text-rendering="geometricPrecision" stroke-miterlimit="1.45" stroke-width="2" shape-rendering="geometricPrecision" transform="matrix(1,0,0,1,-131,-195)" stroke-linecap="butt">
      <circle fill="none" r="16.1003" clip-path="url(#clipPath2)" cx="473.7314" cy="235.0485"/>
      <text x="148.5181" font-size="22px" y="242.4145" clip-path="url(#clipPath2)" font-family="'Fira Mono'" stroke="none" stroke-width="1" xml:space="preserve">:Person</text>
    </g>
    <g font-size="17px" stroke-linecap="butt" transform="matrix(1,0,0,1,-131,-195)" text-rendering="geometricPrecision" font-family="'Fira Mono'" shape-rendering="geometricPrecision" font-weight="bold" stroke-miterlimit="1.45">
      <text x="257.8682" xml:space="preserve" y="240.743" clip-path="url(#clipPath2)" stroke="none">p</text>
    </g>
    <g text-rendering="geometricPrecision" stroke-miterlimit="1.45" stroke-width="2" shape-rendering="geometricPrecision" transform="matrix(1,0,0,1,-131,-195)" stroke-linecap="butt">
      <circle fill="none" r="16.1003" clip-path="url(#clipPath2)" cx="262.9676" cy="235.0485"/>
      <path fill="none" d="M279.068 235.0485 L449.6311 235.0485" stroke-width="1" clip-path="url(#clipPath2)"/>
      <path d="M457.6311 235.0485 L445.6311 230.0485 L448.6311 235.0485 L445.6311 240.0485 Z" stroke-width="1" clip-path="url(#clipPath2)" stroke="none"/>
      <rect x="313.5785" y="219.8558" clip-path="url(#clipPath2)" fill="white" width="109.542" height="30.3855" stroke="none" stroke-width="1"/>
      <text x="315.5785" font-size="22px" y="242.4145" clip-path="url(#clipPath2)" font-family="'Fira Mono'" stroke="none" stroke-width="1" xml:space="preserve">f:FRIEND</text>
    </g>
  </g>
</svg>
