<?xml version="1.0" encoding="UTF-8"?><svg xmlns="http://www.w3.org/2000/svg" xmlns:xlink="http://www.w3.org/1999/xlink" fill-opacity="1" color-rendering="auto" color-interpolation="auto" text-rendering="auto" stroke="black" stroke-linecap="square" width="585" stroke-miterlimit="10" shape-rendering="auto" stroke-opacity="1" fill="black" stroke-dasharray="none" font-weight="normal" stroke-width="1" height="72" font-family="'Dialog'" font-style="normal" stroke-linejoin="miter" font-size="12px" stroke-dashoffset="0" image-rendering="auto">
  <!--Generated by ySVG 2.5-->
  <defs id="genericDefs"/>
  <g>
    <defs id="defs1">
      <clipPath clipPathUnits="userSpaceOnUse" id="clipPath1">
        <path d="M0 0 L585 0 L585 72 L0 72 L0 0 Z"/>
      </clipPath>
      <clipPath clipPathUnits="userSpaceOnUse" id="clipPath2">
        <path d="M6 161 L591 161 L591 233 L6 233 L6 161 Z"/>
      </clipPath>
    </defs>
    <g fill="white" text-rendering="geometricPrecision" shape-rendering="geometricPrecision" transform="translate(-6,-161)" stroke="white">
      <rect x="6" width="585" height="72" y="161" clip-path="url(#clipPath2)" stroke="none"/>
    </g>
    <g font-size="17px" stroke-linecap="butt" transform="matrix(1,0,0,1,-6,-161)" text-rendering="geometricPrecision" font-family="'Fira Mono'" shape-rendering="geometricPrecision" font-weight="bold" stroke-miterlimit="1.45">
      <text x="553.962" xml:space="preserve" y="206.7689" clip-path="url(#clipPath2)" stroke="none">z</text>
    </g>
    <g text-rendering="geometricPrecision" stroke-miterlimit="1.45" stroke-width="2" shape-rendering="geometricPrecision" transform="matrix(1,0,0,1,-6,-161)" stroke-linecap="butt">
      <circle fill="none" r="16.1003" clip-path="url(#clipPath2)" cx="559.0615" cy="201.0744"/>
    </g>
    <g font-size="17px" stroke-linecap="butt" transform="matrix(1,0,0,1,-6,-161)" text-rendering="geometricPrecision" font-family="'Fira Mono'" shape-rendering="geometricPrecision" font-weight="bold" stroke-miterlimit="1.45">
      <text x="343.1982" xml:space="preserve" y="206.7689" clip-path="url(#clipPath2)" stroke="none">x</text>
    </g>
    <g text-rendering="geometricPrecision" stroke-miterlimit="1.45" stroke-width="2" shape-rendering="geometricPrecision" transform="matrix(1,0,0,1,-6,-161)" stroke-linecap="butt">
      <circle fill="none" r="16.1003" clip-path="url(#clipPath2)" cx="348.2977" cy="201.0744"/>
      <text x="23.0844" font-size="22px" y="208.4404" clip-path="url(#clipPath2)" font-family="'Fira Mono'" stroke="none" stroke-width="1" xml:space="preserve">:Person</text>
    </g>
    <g font-size="17px" stroke-linecap="butt" transform="matrix(1,0,0,1,-6,-161)" text-rendering="geometricPrecision" font-family="'Fira Mono'" shape-rendering="geometricPrecision" font-weight="bold" stroke-miterlimit="1.45">
      <text x="132.4345" xml:space="preserve" y="206.7689" clip-path="url(#clipPath2)" stroke="none">p</text>
    </g>
    <g text-rendering="geometricPrecision" stroke-miterlimit="1.45" stroke-width="2" shape-rendering="geometricPrecision" transform="matrix(1,0,0,1,-6,-161)" stroke-linecap="butt">
      <circle fill="none" r="16.1003" clip-path="url(#clipPath2)" cx="137.534" cy="201.0744"/>
      <path fill="none" d="M364.3981 201.0744 L534.9612 201.0744" stroke-width="1" clip-path="url(#clipPath2)"/>
      <path d="M542.9612 201.0744 L530.9612 196.0744 L533.9612 201.0744 L530.9612 206.0744 Z" stroke-width="1" clip-path="url(#clipPath2)" stroke="none"/>
      <rect x="405.505" y="185.8817" clip-path="url(#clipPath2)" fill="white" width="96.3492" height="30.3855" stroke="none" stroke-width="1"/>
      <text x="407.505" font-size="22px" y="208.4404" clip-path="url(#clipPath2)" font-family="'Fira Mono'" stroke="none" stroke-width="1" xml:space="preserve">l:LIKES</text>
      <path fill="none" d="M153.6343 201.0744 L324.1974 201.0744" stroke-width="1" clip-path="url(#clipPath2)"/>
      <path d="M332.1974 201.0744 L320.1974 196.0744 L323.1974 201.0744 L320.1974 206.0744 Z" stroke-width="1" clip-path="url(#clipPath2)" stroke="none"/>
      <rect x="188.1449" y="185.8817" clip-path="url(#clipPath2)" fill="white" width="109.542" height="30.3855" stroke="none" stroke-width="1"/>
      <text x="190.1449" font-size="22px" y="208.4404" clip-path="url(#clipPath2)" font-family="'Fira Mono'" stroke="none" stroke-width="1" xml:space="preserve">f:FRIEND</text>
    </g>
  </g>
</svg>
